<mxfile host="Electron" agent="Mozilla/5.0 (Windows NT 10.0; Win64; x64) AppleWebKit/537.36 (KHTML, like Gecko) draw.io/24.7.17 Chrome/128.0.6613.36 Electron/32.0.1 Safari/537.36" version="24.7.17">
  <diagram name="Страница — 1" id="WcRJ7LtIaRxhwfhUKX7J">
    <mxGraphModel dx="1050" dy="621" grid="1" gridSize="10" guides="1" tooltips="1" connect="1" arrows="1" fold="1" page="1" pageScale="1" pageWidth="827" pageHeight="1169" math="0" shadow="0">
      <root>
        <mxCell id="0" />
        <mxCell id="1" parent="0" />
        <mxCell id="c3mjCf5Rib2vs3XdOX3i-1" value="&lt;font style=&quot;font-size: 14px;&quot; face=&quot;Times New Roman&quot;&gt;Начало&lt;/font&gt;" style="ellipse;whiteSpace=wrap;html=1;" parent="1" vertex="1">
          <mxGeometry x="240" y="40" width="200" height="40" as="geometry" />
        </mxCell>
        <mxCell id="c3mjCf5Rib2vs3XdOX3i-2" value="" style="endArrow=classic;html=1;rounded=0;" parent="1" edge="1">
          <mxGeometry width="50" height="50" relative="1" as="geometry">
            <mxPoint x="340" y="80" as="sourcePoint" />
            <mxPoint x="340" y="120" as="targetPoint" />
          </mxGeometry>
        </mxCell>
        <mxCell id="c3mjCf5Rib2vs3XdOX3i-3" value="&lt;font style=&quot;font-size: 14px;&quot; face=&quot;Times New Roman&quot;&gt;List&amp;lt;clsRestaraunt&amp;gt; restaurants = new List&amp;lt;clsRestaraunt&amp;gt;();&lt;/font&gt;" style="rounded=0;whiteSpace=wrap;html=1;" parent="1" vertex="1">
          <mxGeometry x="240" y="120" width="200" height="40" as="geometry" />
        </mxCell>
        <mxCell id="c3mjCf5Rib2vs3XdOX3i-4" value="" style="endArrow=classic;html=1;rounded=0;" parent="1" edge="1">
          <mxGeometry width="50" height="50" relative="1" as="geometry">
            <mxPoint x="339.58" y="160" as="sourcePoint" />
            <mxPoint x="339.58" y="200" as="targetPoint" />
          </mxGeometry>
        </mxCell>
        <mxCell id="c3mjCf5Rib2vs3XdOX3i-5" value="&lt;font style=&quot;font-size: 10px;&quot; face=&quot;Times New Roman&quot;&gt;File.Exists(&quot;PopularRestaurants.txt&quot;)&lt;/font&gt;" style="rhombus;whiteSpace=wrap;html=1;" parent="1" vertex="1">
          <mxGeometry x="240" y="200" width="200" height="40" as="geometry" />
        </mxCell>
        <mxCell id="c3mjCf5Rib2vs3XdOX3i-6" value="" style="endArrow=classic;html=1;rounded=0;" parent="1" edge="1">
          <mxGeometry width="50" height="50" relative="1" as="geometry">
            <mxPoint x="339.58" y="240" as="sourcePoint" />
            <mxPoint x="339.58" y="280" as="targetPoint" />
          </mxGeometry>
        </mxCell>
        <mxCell id="c3mjCf5Rib2vs3XdOX3i-7" value="&lt;font face=&quot;Times New Roman&quot;&gt;&lt;span style=&quot;font-size: 14px;&quot;&gt;string[] lines = File.ReadAllLines&lt;/span&gt;&lt;/font&gt;&lt;div&gt;&lt;font face=&quot;Times New Roman&quot;&gt;&lt;span style=&quot;font-size: 14px;&quot;&gt;(&quot;PopularRestaurants.txt&quot;, Encoding.GetEncoding(&quot;windows-1251&quot;));&lt;/span&gt;&lt;/font&gt;&lt;/div&gt;" style="rounded=0;whiteSpace=wrap;html=1;" parent="1" vertex="1">
          <mxGeometry x="240" y="280" width="200" height="80" as="geometry" />
        </mxCell>
        <mxCell id="c3mjCf5Rib2vs3XdOX3i-8" value="" style="endArrow=classic;html=1;rounded=0;" parent="1" edge="1">
          <mxGeometry width="50" height="50" relative="1" as="geometry">
            <mxPoint x="339.71000000000004" y="360" as="sourcePoint" />
            <mxPoint x="339.71000000000004" y="400" as="targetPoint" />
          </mxGeometry>
        </mxCell>
        <mxCell id="c3mjCf5Rib2vs3XdOX3i-9" value="&lt;font style=&quot;font-size: 14px;&quot; face=&quot;Times New Roman&quot;&gt;string line in lines&lt;/font&gt;" style="shape=hexagon;perimeter=hexagonPerimeter2;whiteSpace=wrap;html=1;fixedSize=1;" parent="1" vertex="1">
          <mxGeometry x="240" y="400" width="200" height="40" as="geometry" />
        </mxCell>
        <mxCell id="c3mjCf5Rib2vs3XdOX3i-10" value="" style="endArrow=classic;html=1;rounded=0;" parent="1" edge="1">
          <mxGeometry width="50" height="50" relative="1" as="geometry">
            <mxPoint x="339.71000000000004" y="440" as="sourcePoint" />
            <mxPoint x="340" y="460" as="targetPoint" />
          </mxGeometry>
        </mxCell>
        <mxCell id="c3mjCf5Rib2vs3XdOX3i-11" value="&lt;font face=&quot;Times New Roman&quot;&gt;&lt;span style=&quot;font-size: 14px;&quot;&gt;restaurants.Add(new clsRestaraunt(line));&lt;/span&gt;&lt;/font&gt;" style="rounded=0;whiteSpace=wrap;html=1;" parent="1" vertex="1">
          <mxGeometry x="240" y="460" width="200" height="40" as="geometry" />
        </mxCell>
        <mxCell id="c3mjCf5Rib2vs3XdOX3i-12" value="" style="endArrow=none;html=1;rounded=0;" parent="1" edge="1">
          <mxGeometry width="50" height="50" relative="1" as="geometry">
            <mxPoint x="340" y="510" as="sourcePoint" />
            <mxPoint x="340" y="500" as="targetPoint" />
          </mxGeometry>
        </mxCell>
        <mxCell id="c3mjCf5Rib2vs3XdOX3i-13" value="" style="endArrow=none;html=1;rounded=0;" parent="1" edge="1">
          <mxGeometry width="50" height="50" relative="1" as="geometry">
            <mxPoint x="230" y="510" as="sourcePoint" />
            <mxPoint x="340" y="510" as="targetPoint" />
          </mxGeometry>
        </mxCell>
        <mxCell id="c3mjCf5Rib2vs3XdOX3i-14" value="" style="endArrow=none;html=1;rounded=0;" parent="1" edge="1">
          <mxGeometry width="50" height="50" relative="1" as="geometry">
            <mxPoint x="230" y="510" as="sourcePoint" />
            <mxPoint x="230" y="420" as="targetPoint" />
          </mxGeometry>
        </mxCell>
        <mxCell id="c3mjCf5Rib2vs3XdOX3i-15" value="" style="endArrow=classic;html=1;rounded=0;entryX=0;entryY=0.5;entryDx=0;entryDy=0;" parent="1" target="c3mjCf5Rib2vs3XdOX3i-9" edge="1">
          <mxGeometry width="50" height="50" relative="1" as="geometry">
            <mxPoint x="230" y="420" as="sourcePoint" />
            <mxPoint x="280" y="370" as="targetPoint" />
          </mxGeometry>
        </mxCell>
        <mxCell id="c3mjCf5Rib2vs3XdOX3i-16" value="" style="endArrow=none;html=1;rounded=0;" parent="1" edge="1">
          <mxGeometry width="50" height="50" relative="1" as="geometry">
            <mxPoint x="440" y="420" as="sourcePoint" />
            <mxPoint x="450" y="420" as="targetPoint" />
          </mxGeometry>
        </mxCell>
        <mxCell id="c3mjCf5Rib2vs3XdOX3i-17" value="" style="endArrow=none;html=1;rounded=0;" parent="1" edge="1">
          <mxGeometry width="50" height="50" relative="1" as="geometry">
            <mxPoint x="450" y="520" as="sourcePoint" />
            <mxPoint x="450" y="420" as="targetPoint" />
          </mxGeometry>
        </mxCell>
        <mxCell id="c3mjCf5Rib2vs3XdOX3i-18" value="" style="endArrow=none;html=1;rounded=0;" parent="1" edge="1">
          <mxGeometry width="50" height="50" relative="1" as="geometry">
            <mxPoint x="340" y="520" as="sourcePoint" />
            <mxPoint x="450" y="520" as="targetPoint" />
          </mxGeometry>
        </mxCell>
        <mxCell id="c3mjCf5Rib2vs3XdOX3i-19" value="" style="endArrow=classic;html=1;rounded=0;" parent="1" edge="1">
          <mxGeometry width="50" height="50" relative="1" as="geometry">
            <mxPoint x="340" y="520" as="sourcePoint" />
            <mxPoint x="340" y="560" as="targetPoint" />
          </mxGeometry>
        </mxCell>
        <mxCell id="c3mjCf5Rib2vs3XdOX3i-20" value="&lt;font style=&quot;font-size: 14px;&quot; face=&quot;Times New Roman&quot;&gt;Файл PopularRestaurants.txt не найден.&lt;/font&gt;" style="shape=document;whiteSpace=wrap;html=1;boundedLbl=1;" parent="1" vertex="1">
          <mxGeometry x="450" y="310" width="200" height="80" as="geometry" />
        </mxCell>
        <mxCell id="c3mjCf5Rib2vs3XdOX3i-21" value="" style="endArrow=none;html=1;rounded=0;" parent="1" edge="1">
          <mxGeometry width="50" height="50" relative="1" as="geometry">
            <mxPoint x="440" y="220" as="sourcePoint" />
            <mxPoint x="550" y="220" as="targetPoint" />
          </mxGeometry>
        </mxCell>
        <mxCell id="c3mjCf5Rib2vs3XdOX3i-22" value="" style="endArrow=classic;html=1;rounded=0;" parent="1" target="c3mjCf5Rib2vs3XdOX3i-20" edge="1">
          <mxGeometry width="50" height="50" relative="1" as="geometry">
            <mxPoint x="550" y="220" as="sourcePoint" />
            <mxPoint x="600" y="170" as="targetPoint" />
          </mxGeometry>
        </mxCell>
        <mxCell id="c3mjCf5Rib2vs3XdOX3i-23" value="" style="endArrow=none;html=1;rounded=0;exitX=0.499;exitY=0.842;exitDx=0;exitDy=0;exitPerimeter=0;" parent="1" source="c3mjCf5Rib2vs3XdOX3i-20" edge="1">
          <mxGeometry width="50" height="50" relative="1" as="geometry">
            <mxPoint x="549" y="380" as="sourcePoint" />
            <mxPoint x="550" y="540" as="targetPoint" />
          </mxGeometry>
        </mxCell>
        <mxCell id="c3mjCf5Rib2vs3XdOX3i-24" value="" style="endArrow=classic;html=1;rounded=0;" parent="1" edge="1">
          <mxGeometry width="50" height="50" relative="1" as="geometry">
            <mxPoint x="550" y="540" as="sourcePoint" />
            <mxPoint x="340" y="540" as="targetPoint" />
          </mxGeometry>
        </mxCell>
        <mxCell id="c3mjCf5Rib2vs3XdOX3i-25" value="&lt;font style=&quot;font-size: 14px;&quot; face=&quot;Times New Roman&quot;&gt;True&lt;/font&gt;" style="text;html=1;align=center;verticalAlign=middle;resizable=0;points=[];autosize=1;strokeColor=none;fillColor=none;" parent="1" vertex="1">
          <mxGeometry x="334" y="240" width="50" height="30" as="geometry" />
        </mxCell>
        <mxCell id="c3mjCf5Rib2vs3XdOX3i-26" value="&lt;font style=&quot;font-size: 14px;&quot; face=&quot;Times New Roman&quot;&gt;False&lt;/font&gt;" style="text;html=1;align=center;verticalAlign=middle;resizable=0;points=[];autosize=1;strokeColor=none;fillColor=none;" parent="1" vertex="1">
          <mxGeometry x="440" y="190" width="50" height="30" as="geometry" />
        </mxCell>
        <mxCell id="c3mjCf5Rib2vs3XdOX3i-27" value="&lt;font face=&quot;Times New Roman&quot;&gt;&lt;span style=&quot;font-size: 14px;&quot;&gt;int SelectedIndex = 0;&lt;/span&gt;&lt;/font&gt;" style="rounded=0;whiteSpace=wrap;html=1;" parent="1" vertex="1">
          <mxGeometry x="240" y="560" width="200" height="20" as="geometry" />
        </mxCell>
        <mxCell id="c3mjCf5Rib2vs3XdOX3i-29" value="" style="endArrow=classic;html=1;rounded=0;" parent="1" edge="1">
          <mxGeometry width="50" height="50" relative="1" as="geometry">
            <mxPoint x="339.8" y="580" as="sourcePoint" />
            <mxPoint x="340.09" y="600" as="targetPoint" />
          </mxGeometry>
        </mxCell>
        <mxCell id="c3mjCf5Rib2vs3XdOX3i-30" value="&lt;div&gt;&lt;font face=&quot;Times New Roman&quot;&gt;&lt;span style=&quot;font-size: 14px;&quot;&gt;string[] menuPositions = { ...&lt;/span&gt;&lt;/font&gt;&lt;span style=&quot;font-size: 14px; font-family: &amp;quot;Times New Roman&amp;quot;; background-color: initial;&quot;&gt;};&lt;/span&gt;&lt;/div&gt;" style="rounded=0;whiteSpace=wrap;html=1;" parent="1" vertex="1">
          <mxGeometry x="240" y="600" width="200" height="20" as="geometry" />
        </mxCell>
        <mxCell id="c3mjCf5Rib2vs3XdOX3i-31" value="" style="endArrow=none;html=1;rounded=0;" parent="1" edge="1">
          <mxGeometry width="50" height="50" relative="1" as="geometry">
            <mxPoint x="440" y="610" as="sourcePoint" />
            <mxPoint x="480" y="610" as="targetPoint" />
          </mxGeometry>
        </mxCell>
        <mxCell id="c3mjCf5Rib2vs3XdOX3i-32" value="" style="endArrow=none;html=1;rounded=0;" parent="1" edge="1">
          <mxGeometry width="50" height="50" relative="1" as="geometry">
            <mxPoint x="480" y="590" as="sourcePoint" />
            <mxPoint x="480" y="630" as="targetPoint" />
          </mxGeometry>
        </mxCell>
        <mxCell id="c3mjCf5Rib2vs3XdOX3i-33" value="&lt;font style=&quot;font-size: 14px;&quot; face=&quot;Times New Roman&quot;&gt;Позиции меню&lt;/font&gt;" style="text;html=1;align=center;verticalAlign=middle;resizable=0;points=[];autosize=1;strokeColor=none;fillColor=none;" parent="1" vertex="1">
          <mxGeometry x="480" y="595" width="110" height="30" as="geometry" />
        </mxCell>
        <mxCell id="c3mjCf5Rib2vs3XdOX3i-34" value="" style="endArrow=none;html=1;rounded=0;" parent="1" edge="1">
          <mxGeometry width="50" height="50" relative="1" as="geometry">
            <mxPoint x="480" y="590" as="sourcePoint" />
            <mxPoint x="510" y="590" as="targetPoint" />
          </mxGeometry>
        </mxCell>
        <mxCell id="c3mjCf5Rib2vs3XdOX3i-35" value="" style="endArrow=none;html=1;rounded=0;" parent="1" edge="1">
          <mxGeometry width="50" height="50" relative="1" as="geometry">
            <mxPoint x="480" y="630" as="sourcePoint" />
            <mxPoint x="510" y="630" as="targetPoint" />
          </mxGeometry>
        </mxCell>
        <mxCell id="c3mjCf5Rib2vs3XdOX3i-36" value="" style="endArrow=classic;html=1;rounded=0;" parent="1" edge="1">
          <mxGeometry width="50" height="50" relative="1" as="geometry">
            <mxPoint x="339.8" y="620" as="sourcePoint" />
            <mxPoint x="340.09" y="640" as="targetPoint" />
          </mxGeometry>
        </mxCell>
        <mxCell id="c3mjCf5Rib2vs3XdOX3i-37" value="&lt;font face=&quot;Times New Roman&quot;&gt;&lt;span style=&quot;font-size: 14px;&quot;&gt;&amp;nbsp;bool flgMenu = false, flgRepeat = true;&lt;/span&gt;&lt;/font&gt;&lt;br&gt;&lt;div&gt;&lt;font face=&quot;Times New Roman&quot;&gt;&lt;span style=&quot;font-size: 14px;&quot;&gt;ConsoleKeyInfo key;&lt;/span&gt;&lt;br&gt;&lt;/font&gt;&lt;/div&gt;" style="rounded=0;whiteSpace=wrap;html=1;" parent="1" vertex="1">
          <mxGeometry x="240" y="640" width="200" height="60" as="geometry" />
        </mxCell>
        <mxCell id="c3mjCf5Rib2vs3XdOX3i-38" value="" style="endArrow=classic;html=1;rounded=0;" parent="1" edge="1">
          <mxGeometry width="50" height="50" relative="1" as="geometry">
            <mxPoint x="339.71000000000004" y="700" as="sourcePoint" />
            <mxPoint x="340" y="720" as="targetPoint" />
          </mxGeometry>
        </mxCell>
        <mxCell id="c3mjCf5Rib2vs3XdOX3i-40" value="&lt;font face=&quot;Times New Roman&quot;&gt;flgRepeat&lt;/font&gt;" style="rhombus;whiteSpace=wrap;html=1;" parent="1" vertex="1">
          <mxGeometry x="240" y="720" width="200" height="40" as="geometry" />
        </mxCell>
        <mxCell id="c3mjCf5Rib2vs3XdOX3i-41" value="" style="endArrow=classic;html=1;rounded=0;" parent="1" edge="1">
          <mxGeometry width="50" height="50" relative="1" as="geometry">
            <mxPoint x="339.8" y="760" as="sourcePoint" />
            <mxPoint x="340.09" y="780" as="targetPoint" />
          </mxGeometry>
        </mxCell>
        <mxCell id="c3mjCf5Rib2vs3XdOX3i-42" value="&lt;font face=&quot;Times New Roman&quot;&gt;!flgMenu&lt;/font&gt;" style="rhombus;whiteSpace=wrap;html=1;" parent="1" vertex="1">
          <mxGeometry x="240" y="780" width="200" height="40" as="geometry" />
        </mxCell>
        <mxCell id="c3mjCf5Rib2vs3XdOX3i-43" value="" style="endArrow=classic;html=1;rounded=0;" parent="1" edge="1">
          <mxGeometry width="50" height="50" relative="1" as="geometry">
            <mxPoint x="339.8" y="820" as="sourcePoint" />
            <mxPoint x="340.09" y="840" as="targetPoint" />
          </mxGeometry>
        </mxCell>
        <mxCell id="c3mjCf5Rib2vs3XdOX3i-44" value="&lt;font face=&quot;Times New Roman&quot;&gt;&lt;span style=&quot;font-size: 14px;&quot;&gt;Console.Clear();&lt;/span&gt;&lt;/font&gt;" style="rounded=0;whiteSpace=wrap;html=1;" parent="1" vertex="1">
          <mxGeometry x="240" y="840" width="200" height="20" as="geometry" />
        </mxCell>
        <mxCell id="c3mjCf5Rib2vs3XdOX3i-45" value="" style="endArrow=classic;html=1;rounded=0;" parent="1" edge="1">
          <mxGeometry width="50" height="50" relative="1" as="geometry">
            <mxPoint x="339.8" y="860" as="sourcePoint" />
            <mxPoint x="340.09" y="880" as="targetPoint" />
          </mxGeometry>
        </mxCell>
        <mxCell id="c3mjCf5Rib2vs3XdOX3i-46" value="&lt;font face=&quot;Times New Roman&quot;&gt;&lt;span style=&quot;font-size: 14px;&quot;&gt;int i = 0; i &amp;lt; menuPositions.Length; i++&lt;/span&gt;&lt;/font&gt;" style="shape=hexagon;perimeter=hexagonPerimeter2;whiteSpace=wrap;html=1;fixedSize=1;" parent="1" vertex="1">
          <mxGeometry x="240" y="880" width="200" height="40" as="geometry" />
        </mxCell>
        <mxCell id="c3mjCf5Rib2vs3XdOX3i-47" value="" style="endArrow=classic;html=1;rounded=0;" parent="1" edge="1">
          <mxGeometry width="50" height="50" relative="1" as="geometry">
            <mxPoint x="339.8" y="920" as="sourcePoint" />
            <mxPoint x="340.09" y="940" as="targetPoint" />
          </mxGeometry>
        </mxCell>
        <mxCell id="c3mjCf5Rib2vs3XdOX3i-48" value="&lt;font face=&quot;Times New Roman&quot;&gt;SelectedIndex == i&lt;/font&gt;" style="rhombus;whiteSpace=wrap;html=1;" parent="1" vertex="1">
          <mxGeometry x="240" y="940" width="200" height="40" as="geometry" />
        </mxCell>
        <mxCell id="c3mjCf5Rib2vs3XdOX3i-49" value="" style="endArrow=classic;html=1;rounded=0;" parent="1" edge="1">
          <mxGeometry width="50" height="50" relative="1" as="geometry">
            <mxPoint x="339.8" y="980" as="sourcePoint" />
            <mxPoint x="340.09" y="1000" as="targetPoint" />
          </mxGeometry>
        </mxCell>
        <mxCell id="c3mjCf5Rib2vs3XdOX3i-50" value="&lt;font face=&quot;Times New Roman&quot;&gt;&lt;span style=&quot;font-size: 14px;&quot;&gt;Console.BackgroundColor = ConsoleColor.Red;&lt;/span&gt;&lt;/font&gt;&lt;div&gt;&lt;font face=&quot;Times New Roman&quot;&gt;&lt;span style=&quot;font-size: 14px;&quot;&gt;Console.ForegroundColor = ConsoleColor.Black;&lt;/span&gt;&lt;br&gt;&lt;/font&gt;&lt;/div&gt;" style="rounded=0;whiteSpace=wrap;html=1;" parent="1" vertex="1">
          <mxGeometry x="240" y="1000" width="200" height="80" as="geometry" />
        </mxCell>
        <mxCell id="c3mjCf5Rib2vs3XdOX3i-51" value="" style="endArrow=classic;html=1;rounded=0;" parent="1" edge="1">
          <mxGeometry width="50" height="50" relative="1" as="geometry">
            <mxPoint x="339.8" y="1080" as="sourcePoint" />
            <mxPoint x="340.09" y="1100" as="targetPoint" />
          </mxGeometry>
        </mxCell>
        <mxCell id="c3mjCf5Rib2vs3XdOX3i-52" value="" style="endArrow=none;html=1;rounded=0;" parent="1" edge="1">
          <mxGeometry width="50" height="50" relative="1" as="geometry">
            <mxPoint x="440" y="960" as="sourcePoint" />
            <mxPoint x="450" y="960" as="targetPoint" />
          </mxGeometry>
        </mxCell>
        <mxCell id="c3mjCf5Rib2vs3XdOX3i-53" value="" style="endArrow=none;html=1;rounded=0;" parent="1" edge="1">
          <mxGeometry width="50" height="50" relative="1" as="geometry">
            <mxPoint x="450" y="960" as="sourcePoint" />
            <mxPoint x="450" y="1090" as="targetPoint" />
          </mxGeometry>
        </mxCell>
        <mxCell id="c3mjCf5Rib2vs3XdOX3i-54" value="" style="endArrow=classic;html=1;rounded=0;" parent="1" edge="1">
          <mxGeometry width="50" height="50" relative="1" as="geometry">
            <mxPoint x="450" y="1090" as="sourcePoint" />
            <mxPoint x="340" y="1090" as="targetPoint" />
          </mxGeometry>
        </mxCell>
        <mxCell id="c3mjCf5Rib2vs3XdOX3i-55" value="&lt;font style=&quot;font-size: 14px;&quot; face=&quot;Times New Roman&quot;&gt;True&lt;/font&gt;" style="text;html=1;align=center;verticalAlign=middle;resizable=0;points=[];autosize=1;strokeColor=none;fillColor=none;" parent="1" vertex="1">
          <mxGeometry x="334" y="970" width="50" height="30" as="geometry" />
        </mxCell>
        <mxCell id="c3mjCf5Rib2vs3XdOX3i-56" value="&lt;font style=&quot;font-size: 14px;&quot; face=&quot;Times New Roman&quot;&gt;False&lt;/font&gt;" style="text;html=1;align=center;verticalAlign=middle;resizable=0;points=[];autosize=1;strokeColor=none;fillColor=none;" parent="1" vertex="1">
          <mxGeometry x="410" y="930" width="50" height="30" as="geometry" />
        </mxCell>
        <mxCell id="c3mjCf5Rib2vs3XdOX3i-57" value="&lt;font style=&quot;font-size: 14px;&quot; face=&quot;Times New Roman&quot;&gt;1&lt;/font&gt;" style="ellipse;whiteSpace=wrap;html=1;aspect=fixed;" parent="1" vertex="1">
          <mxGeometry x="320" y="1100" width="40" height="40" as="geometry" />
        </mxCell>
        <mxCell id="c3mjCf5Rib2vs3XdOX3i-58" value="&lt;font style=&quot;font-size: 14px;&quot; face=&quot;Times New Roman&quot;&gt;1&lt;/font&gt;" style="ellipse;whiteSpace=wrap;html=1;aspect=fixed;" parent="1" vertex="1">
          <mxGeometry x="320" y="1200" width="40" height="40" as="geometry" />
        </mxCell>
        <mxCell id="c3mjCf5Rib2vs3XdOX3i-59" value="" style="endArrow=classic;html=1;rounded=0;" parent="1" edge="1">
          <mxGeometry width="50" height="50" relative="1" as="geometry">
            <mxPoint x="340" y="1240" as="sourcePoint" />
            <mxPoint x="340" y="1260" as="targetPoint" />
          </mxGeometry>
        </mxCell>
        <mxCell id="c3mjCf5Rib2vs3XdOX3i-60" value="&lt;div&gt;&lt;font face=&quot;Times New Roman&quot;&gt;&lt;span style=&quot;font-size: 14px;&quot;&gt;Console.CursorLeft = Console.WindowWidth / 2 - menuPositions[i].Length /2;&lt;/span&gt;&lt;br&gt;&lt;/font&gt;&lt;/div&gt;&lt;div&gt;&lt;font face=&quot;Times New Roman&quot;&gt;&lt;span style=&quot;font-size: 14px;&quot;&gt;Console.CursorTop = Console.WindowHeight / 2 - menuPositions.Length + i * 2;&lt;/span&gt;&lt;br&gt;&lt;/font&gt;&lt;/div&gt;&lt;div&gt;&lt;font face=&quot;Times New Roman&quot;&gt;&lt;span style=&quot;font-size: 14px;&quot;&gt;&lt;br&gt;&lt;/span&gt;&lt;/font&gt;&lt;/div&gt;" style="rounded=0;whiteSpace=wrap;html=1;" parent="1" vertex="1">
          <mxGeometry x="240" y="1260" width="200" height="120" as="geometry" />
        </mxCell>
        <mxCell id="c3mjCf5Rib2vs3XdOX3i-61" value="" style="endArrow=classic;html=1;rounded=0;" parent="1" edge="1">
          <mxGeometry width="50" height="50" relative="1" as="geometry">
            <mxPoint x="339.71" y="1380" as="sourcePoint" />
            <mxPoint x="339.71" y="1400" as="targetPoint" />
          </mxGeometry>
        </mxCell>
        <mxCell id="c3mjCf5Rib2vs3XdOX3i-62" value="&lt;font face=&quot;Times New Roman&quot;&gt;&lt;span style=&quot;font-size: 14px;&quot;&gt;menuPositions[i]&lt;/span&gt;&lt;/font&gt;" style="shape=document;whiteSpace=wrap;html=1;boundedLbl=1;" parent="1" vertex="1">
          <mxGeometry x="240" y="1400" width="200" height="40" as="geometry" />
        </mxCell>
        <mxCell id="c3mjCf5Rib2vs3XdOX3i-63" value="" style="endArrow=classic;html=1;rounded=0;exitX=0.498;exitY=0.843;exitDx=0;exitDy=0;exitPerimeter=0;" parent="1" source="c3mjCf5Rib2vs3XdOX3i-62" edge="1">
          <mxGeometry width="50" height="50" relative="1" as="geometry">
            <mxPoint x="339.79999999999995" y="1440" as="sourcePoint" />
            <mxPoint x="339.79999999999995" y="1460" as="targetPoint" />
          </mxGeometry>
        </mxCell>
        <mxCell id="c3mjCf5Rib2vs3XdOX3i-64" value="&lt;div&gt;&lt;font face=&quot;Times New Roman&quot;&gt;&lt;span style=&quot;font-size: 14px;&quot;&gt;Console.BackgroundColor = ConsoleColor.Black;&lt;/span&gt;&lt;/font&gt;&lt;br&gt;&lt;/div&gt;&lt;div&gt;&lt;font face=&quot;Times New Roman&quot;&gt;&lt;span style=&quot;font-size: 14px;&quot;&gt;Console.ForegroundColor = ConsoleColor.White;&lt;/span&gt;&lt;br&gt;&lt;/font&gt;&lt;/div&gt;" style="rounded=0;whiteSpace=wrap;html=1;" parent="1" vertex="1">
          <mxGeometry x="240" y="1460" width="200" height="60" as="geometry" />
        </mxCell>
        <mxCell id="c3mjCf5Rib2vs3XdOX3i-65" value="" style="endArrow=none;html=1;rounded=0;" parent="1" edge="1">
          <mxGeometry width="50" height="50" relative="1" as="geometry">
            <mxPoint x="339.8" y="1540" as="sourcePoint" />
            <mxPoint x="339.8" y="1520" as="targetPoint" />
          </mxGeometry>
        </mxCell>
        <mxCell id="c3mjCf5Rib2vs3XdOX3i-66" value="" style="endArrow=none;html=1;rounded=0;" parent="1" edge="1">
          <mxGeometry width="50" height="50" relative="1" as="geometry">
            <mxPoint x="220" y="1540" as="sourcePoint" />
            <mxPoint x="340" y="1540" as="targetPoint" />
          </mxGeometry>
        </mxCell>
        <mxCell id="c3mjCf5Rib2vs3XdOX3i-68" value="&lt;font style=&quot;font-size: 14px;&quot; face=&quot;Times New Roman&quot;&gt;2&lt;/font&gt;" style="ellipse;whiteSpace=wrap;html=1;aspect=fixed;" parent="1" vertex="1">
          <mxGeometry x="200" y="1200" width="40" height="40" as="geometry" />
        </mxCell>
        <mxCell id="c3mjCf5Rib2vs3XdOX3i-69" value="" style="endArrow=classic;html=1;rounded=0;entryX=0.5;entryY=1;entryDx=0;entryDy=0;" parent="1" target="c3mjCf5Rib2vs3XdOX3i-68" edge="1">
          <mxGeometry width="50" height="50" relative="1" as="geometry">
            <mxPoint x="220" y="1540" as="sourcePoint" />
            <mxPoint x="220" y="1250" as="targetPoint" />
          </mxGeometry>
        </mxCell>
        <mxCell id="c3mjCf5Rib2vs3XdOX3i-70" value="&lt;font style=&quot;font-size: 14px;&quot; face=&quot;Times New Roman&quot;&gt;2&lt;/font&gt;" style="ellipse;whiteSpace=wrap;html=1;aspect=fixed;" parent="1" vertex="1">
          <mxGeometry x="200" y="1100" width="40" height="40" as="geometry" />
        </mxCell>
        <mxCell id="c3mjCf5Rib2vs3XdOX3i-71" value="" style="endArrow=none;html=1;rounded=0;" parent="1" edge="1">
          <mxGeometry width="50" height="50" relative="1" as="geometry">
            <mxPoint x="220" y="1100" as="sourcePoint" />
            <mxPoint x="220" y="900" as="targetPoint" />
          </mxGeometry>
        </mxCell>
        <mxCell id="c3mjCf5Rib2vs3XdOX3i-72" value="" style="endArrow=classic;html=1;rounded=0;entryX=0;entryY=0.5;entryDx=0;entryDy=0;" parent="1" target="c3mjCf5Rib2vs3XdOX3i-46" edge="1">
          <mxGeometry width="50" height="50" relative="1" as="geometry">
            <mxPoint x="220" y="900" as="sourcePoint" />
            <mxPoint x="270" y="850" as="targetPoint" />
          </mxGeometry>
        </mxCell>
        <mxCell id="c3mjCf5Rib2vs3XdOX3i-73" value="&lt;font style=&quot;font-size: 14px;&quot; face=&quot;Times New Roman&quot;&gt;3&lt;/font&gt;" style="ellipse;whiteSpace=wrap;html=1;aspect=fixed;" parent="1" vertex="1">
          <mxGeometry x="440" y="1100" width="40" height="40" as="geometry" />
        </mxCell>
        <mxCell id="c3mjCf5Rib2vs3XdOX3i-74" value="" style="endArrow=none;html=1;rounded=0;" parent="1" edge="1">
          <mxGeometry width="50" height="50" relative="1" as="geometry">
            <mxPoint x="440" y="900" as="sourcePoint" />
            <mxPoint x="460" y="900" as="targetPoint" />
          </mxGeometry>
        </mxCell>
        <mxCell id="c3mjCf5Rib2vs3XdOX3i-76" value="" style="endArrow=classic;html=1;rounded=0;entryX=0.5;entryY=0;entryDx=0;entryDy=0;" parent="1" target="c3mjCf5Rib2vs3XdOX3i-73" edge="1">
          <mxGeometry width="50" height="50" relative="1" as="geometry">
            <mxPoint x="460" y="900" as="sourcePoint" />
            <mxPoint x="510" y="850" as="targetPoint" />
          </mxGeometry>
        </mxCell>
        <mxCell id="c3mjCf5Rib2vs3XdOX3i-77" value="&lt;font style=&quot;font-size: 14px;&quot; face=&quot;Times New Roman&quot;&gt;3&lt;/font&gt;" style="ellipse;whiteSpace=wrap;html=1;aspect=fixed;" parent="1" vertex="1">
          <mxGeometry x="440" y="1200" width="40" height="40" as="geometry" />
        </mxCell>
        <mxCell id="c3mjCf5Rib2vs3XdOX3i-78" value="" style="endArrow=none;html=1;rounded=0;" parent="1" edge="1">
          <mxGeometry width="50" height="50" relative="1" as="geometry">
            <mxPoint x="460" y="1550" as="sourcePoint" />
            <mxPoint x="460" y="1240" as="targetPoint" />
          </mxGeometry>
        </mxCell>
        <mxCell id="c3mjCf5Rib2vs3XdOX3i-79" value="" style="endArrow=none;html=1;rounded=0;" parent="1" edge="1">
          <mxGeometry width="50" height="50" relative="1" as="geometry">
            <mxPoint x="340" y="1550" as="sourcePoint" />
            <mxPoint x="460" y="1550" as="targetPoint" />
          </mxGeometry>
        </mxCell>
        <mxCell id="c3mjCf5Rib2vs3XdOX3i-80" value="" style="endArrow=classic;html=1;rounded=0;" parent="1" edge="1">
          <mxGeometry width="50" height="50" relative="1" as="geometry">
            <mxPoint x="340" y="1550" as="sourcePoint" />
            <mxPoint x="340" y="1580" as="targetPoint" />
          </mxGeometry>
        </mxCell>
        <mxCell id="c3mjCf5Rib2vs3XdOX3i-81" value="&lt;div&gt;&lt;font face=&quot;Times New Roman&quot;&gt;&lt;span style=&quot;font-size: 14px;&quot;&gt;&amp;nbsp;key = Console.ReadKey(true);&lt;/span&gt;&lt;/font&gt;&lt;br&gt;&lt;/div&gt;" style="rounded=0;whiteSpace=wrap;html=1;" parent="1" vertex="1">
          <mxGeometry x="240" y="1580" width="200" height="20" as="geometry" />
        </mxCell>
        <mxCell id="c3mjCf5Rib2vs3XdOX3i-83" value="" style="endArrow=classic;html=1;rounded=0;" parent="1" edge="1">
          <mxGeometry width="50" height="50" relative="1" as="geometry">
            <mxPoint x="340" y="1600" as="sourcePoint" />
            <mxPoint x="340" y="1620" as="targetPoint" />
          </mxGeometry>
        </mxCell>
        <mxCell id="c3mjCf5Rib2vs3XdOX3i-84" value="&lt;font face=&quot;Times New Roman&quot;&gt;key.Key.Equals&lt;/font&gt;&lt;div&gt;&lt;font face=&quot;Times New Roman&quot;&gt;(ConsoleKey.DownArrow) &amp;amp;&amp;amp; SelectedIndex&amp;nbsp;&lt;/font&gt;&lt;/div&gt;&lt;div&gt;&lt;font face=&quot;Times New Roman&quot;&gt;!= menuPositions.&lt;/font&gt;&lt;/div&gt;&lt;div&gt;&lt;font face=&quot;Times New Roman&quot;&gt;Length - 1&lt;/font&gt;&lt;/div&gt;" style="rhombus;whiteSpace=wrap;html=1;" parent="1" vertex="1">
          <mxGeometry x="240" y="1620" width="200" height="100" as="geometry" />
        </mxCell>
        <mxCell id="c3mjCf5Rib2vs3XdOX3i-87" value="&lt;div&gt;&lt;font face=&quot;Times New Roman&quot;&gt;&lt;span style=&quot;font-size: 14px;&quot;&gt;SelectedIndex++;&lt;/span&gt;&lt;/font&gt;&lt;br&gt;&lt;/div&gt;" style="rounded=0;whiteSpace=wrap;html=1;" parent="1" vertex="1">
          <mxGeometry x="240" y="1740" width="200" height="20" as="geometry" />
        </mxCell>
        <mxCell id="c3mjCf5Rib2vs3XdOX3i-88" value="" style="endArrow=classic;html=1;rounded=0;" parent="1" edge="1">
          <mxGeometry width="50" height="50" relative="1" as="geometry">
            <mxPoint x="339.76" y="1720" as="sourcePoint" />
            <mxPoint x="339.76" y="1740" as="targetPoint" />
          </mxGeometry>
        </mxCell>
        <mxCell id="c3mjCf5Rib2vs3XdOX3i-89" value="" style="endArrow=classic;html=1;rounded=0;" parent="1" edge="1">
          <mxGeometry width="50" height="50" relative="1" as="geometry">
            <mxPoint x="339.76" y="1760" as="sourcePoint" />
            <mxPoint x="339.76" y="1780" as="targetPoint" />
          </mxGeometry>
        </mxCell>
        <mxCell id="c3mjCf5Rib2vs3XdOX3i-90" value="" style="endArrow=none;html=1;rounded=0;" parent="1" edge="1">
          <mxGeometry width="50" height="50" relative="1" as="geometry">
            <mxPoint x="440" y="1670" as="sourcePoint" />
            <mxPoint x="450" y="1670" as="targetPoint" />
          </mxGeometry>
        </mxCell>
        <mxCell id="c3mjCf5Rib2vs3XdOX3i-91" value="" style="endArrow=none;html=1;rounded=0;" parent="1" edge="1">
          <mxGeometry width="50" height="50" relative="1" as="geometry">
            <mxPoint x="450" y="1670" as="sourcePoint" />
            <mxPoint x="450" y="1770" as="targetPoint" />
          </mxGeometry>
        </mxCell>
        <mxCell id="c3mjCf5Rib2vs3XdOX3i-92" value="" style="endArrow=classic;html=1;rounded=0;" parent="1" edge="1">
          <mxGeometry width="50" height="50" relative="1" as="geometry">
            <mxPoint x="450" y="1770" as="sourcePoint" />
            <mxPoint x="340" y="1770" as="targetPoint" />
          </mxGeometry>
        </mxCell>
        <mxCell id="c3mjCf5Rib2vs3XdOX3i-93" value="&lt;font style=&quot;font-size: 14px;&quot; face=&quot;Times New Roman&quot;&gt;True&lt;/font&gt;" style="text;html=1;align=center;verticalAlign=middle;resizable=0;points=[];autosize=1;strokeColor=none;fillColor=none;" parent="1" vertex="1">
          <mxGeometry x="334" y="1710" width="50" height="30" as="geometry" />
        </mxCell>
        <mxCell id="c3mjCf5Rib2vs3XdOX3i-94" value="&lt;font style=&quot;font-size: 14px;&quot; face=&quot;Times New Roman&quot;&gt;False&lt;/font&gt;" style="text;html=1;align=center;verticalAlign=middle;resizable=0;points=[];autosize=1;strokeColor=none;fillColor=none;" parent="1" vertex="1">
          <mxGeometry x="420" y="1640" width="50" height="30" as="geometry" />
        </mxCell>
        <mxCell id="c3mjCf5Rib2vs3XdOX3i-95" value="&lt;font face=&quot;Times New Roman&quot;&gt;key.Key.Equals&lt;/font&gt;&lt;div&gt;&lt;font face=&quot;Times New Roman&quot;&gt;(ConsoleKey.UpArrow) &amp;amp;&amp;amp; SelectedIndex != 0&lt;/font&gt;&lt;/div&gt;" style="rhombus;whiteSpace=wrap;html=1;" parent="1" vertex="1">
          <mxGeometry x="240" y="1780" width="200" height="100" as="geometry" />
        </mxCell>
        <mxCell id="c3mjCf5Rib2vs3XdOX3i-96" value="&lt;div&gt;&lt;font face=&quot;Times New Roman&quot;&gt;&lt;span style=&quot;font-size: 14px;&quot;&gt;SelectedIndex++;&lt;/span&gt;&lt;/font&gt;&lt;br&gt;&lt;/div&gt;" style="rounded=0;whiteSpace=wrap;html=1;" parent="1" vertex="1">
          <mxGeometry x="240" y="1900" width="200" height="20" as="geometry" />
        </mxCell>
        <mxCell id="c3mjCf5Rib2vs3XdOX3i-97" value="" style="endArrow=classic;html=1;rounded=0;" parent="1" edge="1">
          <mxGeometry width="50" height="50" relative="1" as="geometry">
            <mxPoint x="339.76" y="1920" as="sourcePoint" />
            <mxPoint x="339.76" y="1940" as="targetPoint" />
          </mxGeometry>
        </mxCell>
        <mxCell id="c3mjCf5Rib2vs3XdOX3i-98" value="" style="endArrow=none;html=1;rounded=0;" parent="1" edge="1">
          <mxGeometry width="50" height="50" relative="1" as="geometry">
            <mxPoint x="450" y="1830" as="sourcePoint" />
            <mxPoint x="450" y="1930" as="targetPoint" />
          </mxGeometry>
        </mxCell>
        <mxCell id="c3mjCf5Rib2vs3XdOX3i-99" value="" style="endArrow=classic;html=1;rounded=0;" parent="1" edge="1">
          <mxGeometry width="50" height="50" relative="1" as="geometry">
            <mxPoint x="450" y="1930" as="sourcePoint" />
            <mxPoint x="340" y="1930" as="targetPoint" />
          </mxGeometry>
        </mxCell>
        <mxCell id="c3mjCf5Rib2vs3XdOX3i-100" value="&lt;font style=&quot;font-size: 14px;&quot; face=&quot;Times New Roman&quot;&gt;True&lt;/font&gt;" style="text;html=1;align=center;verticalAlign=middle;resizable=0;points=[];autosize=1;strokeColor=none;fillColor=none;" parent="1" vertex="1">
          <mxGeometry x="334" y="1870" width="50" height="30" as="geometry" />
        </mxCell>
        <mxCell id="c3mjCf5Rib2vs3XdOX3i-101" value="&lt;font style=&quot;font-size: 14px;&quot; face=&quot;Times New Roman&quot;&gt;False&lt;/font&gt;" style="text;html=1;align=center;verticalAlign=middle;resizable=0;points=[];autosize=1;strokeColor=none;fillColor=none;" parent="1" vertex="1">
          <mxGeometry x="420" y="1800" width="50" height="30" as="geometry" />
        </mxCell>
        <mxCell id="c3mjCf5Rib2vs3XdOX3i-102" value="" style="endArrow=none;html=1;rounded=0;entryX=0.602;entryY=1.019;entryDx=0;entryDy=0;entryPerimeter=0;" parent="1" target="c3mjCf5Rib2vs3XdOX3i-101" edge="1">
          <mxGeometry width="50" height="50" relative="1" as="geometry">
            <mxPoint x="440" y="1830" as="sourcePoint" />
            <mxPoint x="490" y="1780" as="targetPoint" />
          </mxGeometry>
        </mxCell>
        <mxCell id="c3mjCf5Rib2vs3XdOX3i-103" value="" style="endArrow=classic;html=1;rounded=0;" parent="1" edge="1">
          <mxGeometry width="50" height="50" relative="1" as="geometry">
            <mxPoint x="339.8" y="1880" as="sourcePoint" />
            <mxPoint x="339.8" y="1900" as="targetPoint" />
          </mxGeometry>
        </mxCell>
        <mxCell id="c3mjCf5Rib2vs3XdOX3i-104" value="&lt;font face=&quot;Times New Roman&quot;&gt;key.Key.Equals&lt;/font&gt;&lt;div&gt;&lt;font face=&quot;Times New Roman&quot;&gt;(ConsoleKey.Enter)&lt;/font&gt;&lt;/div&gt;" style="rhombus;whiteSpace=wrap;html=1;" parent="1" vertex="1">
          <mxGeometry x="240" y="1940" width="200" height="40" as="geometry" />
        </mxCell>
        <mxCell id="c3mjCf5Rib2vs3XdOX3i-105" value="" style="endArrow=classic;html=1;rounded=0;" parent="1" edge="1">
          <mxGeometry width="50" height="50" relative="1" as="geometry">
            <mxPoint x="340" y="1980" as="sourcePoint" />
            <mxPoint x="340" y="2000" as="targetPoint" />
          </mxGeometry>
        </mxCell>
        <mxCell id="c3mjCf5Rib2vs3XdOX3i-106" value="&lt;div&gt;&lt;font face=&quot;Times New Roman&quot;&gt;&lt;span style=&quot;font-size: 14px;&quot;&gt;flgMenu = true;&lt;/span&gt;&lt;/font&gt;&lt;br&gt;&lt;/div&gt;" style="rounded=0;whiteSpace=wrap;html=1;" parent="1" vertex="1">
          <mxGeometry x="240" y="2000" width="200" height="20" as="geometry" />
        </mxCell>
        <mxCell id="c3mjCf5Rib2vs3XdOX3i-108" value="" style="endArrow=none;html=1;rounded=0;" parent="1" edge="1">
          <mxGeometry width="50" height="50" relative="1" as="geometry">
            <mxPoint x="440" y="1960" as="sourcePoint" />
            <mxPoint x="450" y="1960" as="targetPoint" />
          </mxGeometry>
        </mxCell>
        <mxCell id="c3mjCf5Rib2vs3XdOX3i-109" value="" style="endArrow=classic;html=1;rounded=0;" parent="1" edge="1">
          <mxGeometry width="50" height="50" relative="1" as="geometry">
            <mxPoint x="450" y="2030" as="sourcePoint" />
            <mxPoint x="340" y="2030" as="targetPoint" />
          </mxGeometry>
        </mxCell>
        <mxCell id="c3mjCf5Rib2vs3XdOX3i-110" value="" style="endArrow=none;html=1;rounded=0;" parent="1" edge="1">
          <mxGeometry width="50" height="50" relative="1" as="geometry">
            <mxPoint x="450" y="1960" as="sourcePoint" />
            <mxPoint x="450" y="2030" as="targetPoint" />
          </mxGeometry>
        </mxCell>
        <mxCell id="c3mjCf5Rib2vs3XdOX3i-111" value="&lt;font style=&quot;font-size: 14px;&quot; face=&quot;Times New Roman&quot;&gt;True&lt;/font&gt;" style="text;html=1;align=center;verticalAlign=middle;resizable=0;points=[];autosize=1;strokeColor=none;fillColor=none;" parent="1" vertex="1">
          <mxGeometry x="334" y="1970" width="50" height="30" as="geometry" />
        </mxCell>
        <mxCell id="c3mjCf5Rib2vs3XdOX3i-112" value="&lt;font style=&quot;font-size: 14px;&quot; face=&quot;Times New Roman&quot;&gt;False&lt;/font&gt;" style="text;html=1;align=center;verticalAlign=middle;resizable=0;points=[];autosize=1;strokeColor=none;fillColor=none;" parent="1" vertex="1">
          <mxGeometry x="420" y="1930" width="50" height="30" as="geometry" />
        </mxCell>
        <mxCell id="c3mjCf5Rib2vs3XdOX3i-113" value="" style="endArrow=none;html=1;rounded=0;" parent="1" edge="1">
          <mxGeometry width="50" height="50" relative="1" as="geometry">
            <mxPoint x="340" y="2040" as="sourcePoint" />
            <mxPoint x="340" y="2020" as="targetPoint" />
          </mxGeometry>
        </mxCell>
        <mxCell id="c3mjCf5Rib2vs3XdOX3i-114" value="" style="endArrow=none;html=1;rounded=0;" parent="1" edge="1">
          <mxGeometry width="50" height="50" relative="1" as="geometry">
            <mxPoint x="180" y="2040" as="sourcePoint" />
            <mxPoint x="340" y="2040" as="targetPoint" />
          </mxGeometry>
        </mxCell>
        <mxCell id="c3mjCf5Rib2vs3XdOX3i-115" value="" style="endArrow=classic;html=1;rounded=0;" parent="1" edge="1">
          <mxGeometry width="50" height="50" relative="1" as="geometry">
            <mxPoint x="180" y="2040" as="sourcePoint" />
            <mxPoint x="180" y="1240" as="targetPoint" />
          </mxGeometry>
        </mxCell>
        <mxCell id="c3mjCf5Rib2vs3XdOX3i-116" value="&lt;font style=&quot;font-size: 14px;&quot; face=&quot;Times New Roman&quot;&gt;4&lt;/font&gt;" style="ellipse;whiteSpace=wrap;html=1;aspect=fixed;" parent="1" vertex="1">
          <mxGeometry x="160" y="1200" width="40" height="40" as="geometry" />
        </mxCell>
        <mxCell id="c3mjCf5Rib2vs3XdOX3i-117" value="&lt;font style=&quot;font-size: 14px;&quot; face=&quot;Times New Roman&quot;&gt;4&lt;/font&gt;" style="ellipse;whiteSpace=wrap;html=1;aspect=fixed;" parent="1" vertex="1">
          <mxGeometry x="160" y="1100" width="40" height="40" as="geometry" />
        </mxCell>
        <mxCell id="c3mjCf5Rib2vs3XdOX3i-118" value="" style="endArrow=none;html=1;rounded=0;" parent="1" edge="1">
          <mxGeometry width="50" height="50" relative="1" as="geometry">
            <mxPoint x="180" y="1100" as="sourcePoint" />
            <mxPoint x="180" y="800" as="targetPoint" />
          </mxGeometry>
        </mxCell>
        <mxCell id="c3mjCf5Rib2vs3XdOX3i-120" value="" style="endArrow=classic;html=1;rounded=0;entryX=0;entryY=0.5;entryDx=0;entryDy=0;" parent="1" target="c3mjCf5Rib2vs3XdOX3i-42" edge="1">
          <mxGeometry width="50" height="50" relative="1" as="geometry">
            <mxPoint x="180" y="800" as="sourcePoint" />
            <mxPoint x="230" y="750" as="targetPoint" />
          </mxGeometry>
        </mxCell>
        <mxCell id="c3mjCf5Rib2vs3XdOX3i-121" value="" style="endArrow=none;html=1;rounded=0;" parent="1" edge="1">
          <mxGeometry width="50" height="50" relative="1" as="geometry">
            <mxPoint x="440" y="800" as="sourcePoint" />
            <mxPoint x="500" y="800" as="targetPoint" />
          </mxGeometry>
        </mxCell>
        <mxCell id="c3mjCf5Rib2vs3XdOX3i-122" value="&lt;font style=&quot;font-size: 14px;&quot; face=&quot;Times New Roman&quot;&gt;5&lt;/font&gt;" style="ellipse;whiteSpace=wrap;html=1;aspect=fixed;" parent="1" vertex="1">
          <mxGeometry x="480" y="1100" width="40" height="40" as="geometry" />
        </mxCell>
        <mxCell id="c3mjCf5Rib2vs3XdOX3i-123" value="&lt;font style=&quot;font-size: 14px;&quot; face=&quot;Times New Roman&quot;&gt;5&lt;/font&gt;" style="ellipse;whiteSpace=wrap;html=1;aspect=fixed;" parent="1" vertex="1">
          <mxGeometry x="480" y="1200" width="40" height="40" as="geometry" />
        </mxCell>
        <mxCell id="c3mjCf5Rib2vs3XdOX3i-124" value="" style="endArrow=classic;html=1;rounded=0;" parent="1" edge="1">
          <mxGeometry width="50" height="50" relative="1" as="geometry">
            <mxPoint x="500" y="800" as="sourcePoint" />
            <mxPoint x="500" y="1100" as="targetPoint" />
          </mxGeometry>
        </mxCell>
        <mxCell id="c3mjCf5Rib2vs3XdOX3i-125" value="" style="endArrow=none;html=1;rounded=0;" parent="1" edge="1">
          <mxGeometry width="50" height="50" relative="1" as="geometry">
            <mxPoint x="500" y="1240" as="sourcePoint" />
            <mxPoint x="500" y="2050" as="targetPoint" />
          </mxGeometry>
        </mxCell>
        <mxCell id="c3mjCf5Rib2vs3XdOX3i-126" value="" style="endArrow=none;html=1;rounded=0;" parent="1" edge="1">
          <mxGeometry width="50" height="50" relative="1" as="geometry">
            <mxPoint x="340" y="2050" as="sourcePoint" />
            <mxPoint x="500" y="2050" as="targetPoint" />
          </mxGeometry>
        </mxCell>
        <mxCell id="c3mjCf5Rib2vs3XdOX3i-127" value="" style="endArrow=classic;html=1;rounded=0;" parent="1" edge="1">
          <mxGeometry width="50" height="50" relative="1" as="geometry">
            <mxPoint x="340" y="2050" as="sourcePoint" />
            <mxPoint x="340" y="2080" as="targetPoint" />
          </mxGeometry>
        </mxCell>
        <mxCell id="c3mjCf5Rib2vs3XdOX3i-128" value="&lt;font style=&quot;font-size: 14px;&quot; face=&quot;Times New Roman&quot;&gt;True&lt;/font&gt;" style="text;html=1;align=center;verticalAlign=middle;resizable=0;points=[];autosize=1;strokeColor=none;fillColor=none;" parent="1" vertex="1">
          <mxGeometry x="334" y="810" width="50" height="30" as="geometry" />
        </mxCell>
        <mxCell id="c3mjCf5Rib2vs3XdOX3i-129" value="&lt;font style=&quot;font-size: 14px;&quot; face=&quot;Times New Roman&quot;&gt;False&lt;/font&gt;" style="text;html=1;align=center;verticalAlign=middle;resizable=0;points=[];autosize=1;strokeColor=none;fillColor=none;" parent="1" vertex="1">
          <mxGeometry x="430" y="770" width="50" height="30" as="geometry" />
        </mxCell>
        <mxCell id="c3mjCf5Rib2vs3XdOX3i-130" value="&lt;div&gt;&lt;font face=&quot;Times New Roman&quot;&gt;&lt;span style=&quot;font-size: 14px;&quot;&gt;Console.Clear();&lt;/span&gt;&lt;/font&gt;&lt;br&gt;&lt;/div&gt;" style="rounded=0;whiteSpace=wrap;html=1;" parent="1" vertex="1">
          <mxGeometry x="240" y="2080" width="200" height="20" as="geometry" />
        </mxCell>
        <mxCell id="c3mjCf5Rib2vs3XdOX3i-131" value="" style="endArrow=classic;html=1;rounded=0;" parent="1" edge="1">
          <mxGeometry width="50" height="50" relative="1" as="geometry">
            <mxPoint x="340" y="2100" as="sourcePoint" />
            <mxPoint x="340" y="2120" as="targetPoint" />
          </mxGeometry>
        </mxCell>
        <mxCell id="c3mjCf5Rib2vs3XdOX3i-132" value="&lt;font face=&quot;Times New Roman&quot;&gt;SelectedIndex?&lt;/font&gt;" style="rhombus;whiteSpace=wrap;html=1;" parent="1" vertex="1">
          <mxGeometry x="240" y="2120" width="200" height="40" as="geometry" />
        </mxCell>
        <mxCell id="c3mjCf5Rib2vs3XdOX3i-133" value="" style="endArrow=classic;html=1;rounded=0;" parent="1" edge="1">
          <mxGeometry width="50" height="50" relative="1" as="geometry">
            <mxPoint x="339.83" y="2160" as="sourcePoint" />
            <mxPoint x="339.83" y="2180" as="targetPoint" />
          </mxGeometry>
        </mxCell>
        <mxCell id="c3mjCf5Rib2vs3XdOX3i-134" value="" style="endArrow=none;html=1;rounded=0;" parent="1" edge="1">
          <mxGeometry width="50" height="50" relative="1" as="geometry">
            <mxPoint x="130" y="2180" as="sourcePoint" />
            <mxPoint x="660" y="2180" as="targetPoint" />
          </mxGeometry>
        </mxCell>
        <mxCell id="c3mjCf5Rib2vs3XdOX3i-135" value="" style="endArrow=classic;html=1;rounded=0;" parent="1" edge="1">
          <mxGeometry width="50" height="50" relative="1" as="geometry">
            <mxPoint x="339.65999999999997" y="2180" as="sourcePoint" />
            <mxPoint x="339.65999999999997" y="2200" as="targetPoint" />
          </mxGeometry>
        </mxCell>
        <mxCell id="c3mjCf5Rib2vs3XdOX3i-136" value="&lt;font face=&quot;Times New Roman&quot;&gt;&lt;span style=&quot;font-size: 14px;&quot;&gt;Отображение работы метода&amp;nbsp;filtByRate&lt;/span&gt;&lt;/font&gt;" style="shape=document;whiteSpace=wrap;html=1;boundedLbl=1;" parent="1" vertex="1">
          <mxGeometry x="240" y="2200" width="200" height="40" as="geometry" />
        </mxCell>
        <mxCell id="c3mjCf5Rib2vs3XdOX3i-137" value="&lt;span style=&quot;font-family: &amp;quot;Times New Roman&amp;quot;; font-size: 14px;&quot;&gt;Отображение работы метода&amp;nbsp;&lt;/span&gt;&lt;font face=&quot;Times New Roman&quot;&gt;&lt;span style=&quot;font-size: 14px;&quot;&gt;filtByCuisine&lt;/span&gt;&lt;/font&gt;" style="shape=document;whiteSpace=wrap;html=1;boundedLbl=1;" parent="1" vertex="1">
          <mxGeometry x="450" y="2200" width="200" height="40" as="geometry" />
        </mxCell>
        <mxCell id="c3mjCf5Rib2vs3XdOX3i-138" value="&lt;font face=&quot;Times New Roman&quot;&gt;&lt;span style=&quot;font-size: 14px;&quot;&gt;Отображение работы метода&amp;nbsp;&lt;/span&gt;&lt;/font&gt;&lt;div&gt;&lt;font face=&quot;Times New Roman&quot;&gt;&lt;span style=&quot;font-size: 14px;&quot;&gt;filtByCityName&lt;/span&gt;&lt;br&gt;&lt;/font&gt;&lt;/div&gt;" style="shape=document;whiteSpace=wrap;html=1;boundedLbl=1;" parent="1" vertex="1">
          <mxGeometry x="30" y="2200" width="200" height="40" as="geometry" />
        </mxCell>
        <mxCell id="c3mjCf5Rib2vs3XdOX3i-139" value="" style="endArrow=classic;html=1;rounded=0;entryX=0.5;entryY=0;entryDx=0;entryDy=0;" parent="1" target="c3mjCf5Rib2vs3XdOX3i-138" edge="1">
          <mxGeometry width="50" height="50" relative="1" as="geometry">
            <mxPoint x="130" y="2180" as="sourcePoint" />
            <mxPoint x="180" y="2130" as="targetPoint" />
          </mxGeometry>
        </mxCell>
        <mxCell id="c3mjCf5Rib2vs3XdOX3i-140" value="&lt;font style=&quot;font-size: 14px;&quot; face=&quot;Times New Roman&quot;&gt;6&lt;/font&gt;" style="ellipse;whiteSpace=wrap;html=1;aspect=fixed;" parent="1" vertex="1">
          <mxGeometry x="660" y="2160" width="40" height="40" as="geometry" />
        </mxCell>
        <mxCell id="c3mjCf5Rib2vs3XdOX3i-141" value="&lt;font style=&quot;font-size: 14px;&quot; face=&quot;Times New Roman&quot;&gt;7&lt;/font&gt;" style="ellipse;whiteSpace=wrap;html=1;aspect=fixed;" parent="1" vertex="1">
          <mxGeometry x="660" y="2240" width="40" height="40" as="geometry" />
        </mxCell>
        <mxCell id="c3mjCf5Rib2vs3XdOX3i-143" value="" style="endArrow=classic;html=1;rounded=0;exitX=0.5;exitY=0.854;exitDx=0;exitDy=0;exitPerimeter=0;" parent="1" source="c3mjCf5Rib2vs3XdOX3i-138" edge="1">
          <mxGeometry width="50" height="50" relative="1" as="geometry">
            <mxPoint x="80" y="2310" as="sourcePoint" />
            <mxPoint x="130" y="2260" as="targetPoint" />
          </mxGeometry>
        </mxCell>
        <mxCell id="c3mjCf5Rib2vs3XdOX3i-144" value="" style="endArrow=classic;html=1;rounded=0;exitX=0.499;exitY=0.83;exitDx=0;exitDy=0;exitPerimeter=0;" parent="1" source="c3mjCf5Rib2vs3XdOX3i-136" edge="1">
          <mxGeometry width="50" height="50" relative="1" as="geometry">
            <mxPoint x="290" y="2310" as="sourcePoint" />
            <mxPoint x="340" y="2260" as="targetPoint" />
          </mxGeometry>
        </mxCell>
        <mxCell id="c3mjCf5Rib2vs3XdOX3i-145" value="" style="endArrow=classic;html=1;rounded=0;" parent="1" edge="1">
          <mxGeometry width="50" height="50" relative="1" as="geometry">
            <mxPoint x="550" y="2180" as="sourcePoint" />
            <mxPoint x="550" y="2200" as="targetPoint" />
          </mxGeometry>
        </mxCell>
        <mxCell id="c3mjCf5Rib2vs3XdOX3i-146" value="" style="endArrow=classic;html=1;rounded=0;exitX=0.5;exitY=0.854;exitDx=0;exitDy=0;exitPerimeter=0;" parent="1" source="c3mjCf5Rib2vs3XdOX3i-137" edge="1">
          <mxGeometry width="50" height="50" relative="1" as="geometry">
            <mxPoint x="500" y="2310" as="sourcePoint" />
            <mxPoint x="550" y="2260" as="targetPoint" />
          </mxGeometry>
        </mxCell>
        <mxCell id="c3mjCf5Rib2vs3XdOX3i-148" value="" style="endArrow=none;html=1;rounded=0;entryX=0;entryY=0.5;entryDx=0;entryDy=0;" parent="1" target="c3mjCf5Rib2vs3XdOX3i-141" edge="1">
          <mxGeometry width="50" height="50" relative="1" as="geometry">
            <mxPoint x="130" y="2260" as="sourcePoint" />
            <mxPoint x="180" y="2210" as="targetPoint" />
          </mxGeometry>
        </mxCell>
        <mxCell id="c3mjCf5Rib2vs3XdOX3i-149" value="" style="endArrow=classic;html=1;rounded=0;" parent="1" edge="1">
          <mxGeometry width="50" height="50" relative="1" as="geometry">
            <mxPoint x="340" y="2260" as="sourcePoint" />
            <mxPoint x="340" y="2280" as="targetPoint" />
          </mxGeometry>
        </mxCell>
        <mxCell id="c3mjCf5Rib2vs3XdOX3i-150" value="&lt;font style=&quot;font-size: 14px;&quot; face=&quot;Times New Roman&quot;&gt;8&lt;/font&gt;" style="ellipse;whiteSpace=wrap;html=1;aspect=fixed;" parent="1" vertex="1">
          <mxGeometry x="320" y="2280" width="40" height="40" as="geometry" />
        </mxCell>
        <mxCell id="c3mjCf5Rib2vs3XdOX3i-151" value="&lt;font style=&quot;font-size: 14px;&quot; face=&quot;Times New Roman&quot;&gt;8&lt;/font&gt;" style="ellipse;whiteSpace=wrap;html=1;aspect=fixed;" parent="1" vertex="1">
          <mxGeometry x="320" y="2360" width="40" height="40" as="geometry" />
        </mxCell>
        <mxCell id="c3mjCf5Rib2vs3XdOX3i-152" value="" style="endArrow=classic;html=1;rounded=0;" parent="1" edge="1">
          <mxGeometry width="50" height="50" relative="1" as="geometry">
            <mxPoint x="340" y="2400" as="sourcePoint" />
            <mxPoint x="340" y="2420" as="targetPoint" />
          </mxGeometry>
        </mxCell>
        <mxCell id="c3mjCf5Rib2vs3XdOX3i-153" value="&lt;font face=&quot;Times New Roman&quot;&gt;flgRepeat&lt;/font&gt;" style="rhombus;whiteSpace=wrap;html=1;" parent="1" vertex="1">
          <mxGeometry x="240" y="2420" width="200" height="40" as="geometry" />
        </mxCell>
        <mxCell id="c3mjCf5Rib2vs3XdOX3i-154" value="" style="endArrow=classic;html=1;rounded=0;" parent="1" edge="1">
          <mxGeometry width="50" height="50" relative="1" as="geometry">
            <mxPoint x="339.63" y="2460" as="sourcePoint" />
            <mxPoint x="339.63" y="2480" as="targetPoint" />
          </mxGeometry>
        </mxCell>
        <mxCell id="c3mjCf5Rib2vs3XdOX3i-155" value="&lt;div&gt;&lt;font face=&quot;Times New Roman&quot;&gt;&lt;span style=&quot;font-size: 14px;&quot;&gt;key = Console.ReadKey(true);&lt;/span&gt;&lt;/font&gt;&lt;br&gt;&lt;/div&gt;" style="rounded=0;whiteSpace=wrap;html=1;" parent="1" vertex="1">
          <mxGeometry x="240" y="2480" width="200" height="20" as="geometry" />
        </mxCell>
        <mxCell id="c3mjCf5Rib2vs3XdOX3i-156" value="" style="endArrow=classic;html=1;rounded=0;" parent="1" edge="1">
          <mxGeometry width="50" height="50" relative="1" as="geometry">
            <mxPoint x="339.79" y="2500" as="sourcePoint" />
            <mxPoint x="339.79" y="2520" as="targetPoint" />
          </mxGeometry>
        </mxCell>
        <mxCell id="c3mjCf5Rib2vs3XdOX3i-157" value="&lt;font face=&quot;Times New Roman&quot;&gt;key.KeyChar.Equals(&#39;q&#39;)&lt;/font&gt;" style="rhombus;whiteSpace=wrap;html=1;" parent="1" vertex="1">
          <mxGeometry x="240" y="2520" width="200" height="40" as="geometry" />
        </mxCell>
        <mxCell id="c3mjCf5Rib2vs3XdOX3i-158" value="" style="endArrow=classic;html=1;rounded=0;" parent="1" edge="1">
          <mxGeometry width="50" height="50" relative="1" as="geometry">
            <mxPoint x="339.79" y="2560" as="sourcePoint" />
            <mxPoint x="339.79" y="2580" as="targetPoint" />
          </mxGeometry>
        </mxCell>
        <mxCell id="c3mjCf5Rib2vs3XdOX3i-159" value="&lt;div&gt;&lt;font face=&quot;Times New Roman&quot;&gt;&lt;span style=&quot;font-size: 14px;&quot;&gt;flgRepeat = false;&lt;/span&gt;&lt;/font&gt;&lt;br&gt;&lt;/div&gt;" style="rounded=0;whiteSpace=wrap;html=1;" parent="1" vertex="1">
          <mxGeometry x="240" y="2580" width="200" height="20" as="geometry" />
        </mxCell>
        <mxCell id="c3mjCf5Rib2vs3XdOX3i-162" value="" style="endArrow=none;html=1;rounded=0;" parent="1" edge="1">
          <mxGeometry width="50" height="50" relative="1" as="geometry">
            <mxPoint x="440" y="2540" as="sourcePoint" />
            <mxPoint x="450" y="2540" as="targetPoint" />
          </mxGeometry>
        </mxCell>
        <mxCell id="c3mjCf5Rib2vs3XdOX3i-163" value="" style="endArrow=none;html=1;rounded=0;" parent="1" edge="1">
          <mxGeometry width="50" height="50" relative="1" as="geometry">
            <mxPoint x="450" y="2540" as="sourcePoint" />
            <mxPoint x="450" y="2610" as="targetPoint" />
          </mxGeometry>
        </mxCell>
        <mxCell id="c3mjCf5Rib2vs3XdOX3i-164" value="" style="endArrow=classic;html=1;rounded=0;" parent="1" edge="1">
          <mxGeometry width="50" height="50" relative="1" as="geometry">
            <mxPoint x="450" y="2610" as="sourcePoint" />
            <mxPoint x="340" y="2610" as="targetPoint" />
          </mxGeometry>
        </mxCell>
        <mxCell id="c3mjCf5Rib2vs3XdOX3i-165" value="&lt;font style=&quot;font-size: 14px;&quot; face=&quot;Times New Roman&quot;&gt;True&lt;/font&gt;" style="text;html=1;align=center;verticalAlign=middle;resizable=0;points=[];autosize=1;strokeColor=none;fillColor=none;" parent="1" vertex="1">
          <mxGeometry x="334" y="2550" width="50" height="30" as="geometry" />
        </mxCell>
        <mxCell id="c3mjCf5Rib2vs3XdOX3i-166" value="&lt;font style=&quot;font-size: 14px;&quot; face=&quot;Times New Roman&quot;&gt;False&lt;/font&gt;" style="text;html=1;align=center;verticalAlign=middle;resizable=0;points=[];autosize=1;strokeColor=none;fillColor=none;" parent="1" vertex="1">
          <mxGeometry x="420" y="2510" width="50" height="30" as="geometry" />
        </mxCell>
        <mxCell id="c3mjCf5Rib2vs3XdOX3i-167" value="&lt;font style=&quot;font-size: 14px;&quot; face=&quot;Times New Roman&quot;&gt;True&lt;/font&gt;" style="text;html=1;align=center;verticalAlign=middle;resizable=0;points=[];autosize=1;strokeColor=none;fillColor=none;" parent="1" vertex="1">
          <mxGeometry x="334" y="2450" width="50" height="30" as="geometry" />
        </mxCell>
        <mxCell id="c3mjCf5Rib2vs3XdOX3i-168" value="&lt;font style=&quot;font-size: 14px;&quot; face=&quot;Times New Roman&quot;&gt;False&lt;/font&gt;" style="text;html=1;align=center;verticalAlign=middle;resizable=0;points=[];autosize=1;strokeColor=none;fillColor=none;" parent="1" vertex="1">
          <mxGeometry x="420" y="2410" width="50" height="30" as="geometry" />
        </mxCell>
        <mxCell id="c3mjCf5Rib2vs3XdOX3i-169" value="" style="endArrow=none;html=1;rounded=0;" parent="1" edge="1">
          <mxGeometry width="50" height="50" relative="1" as="geometry">
            <mxPoint x="440" y="2440" as="sourcePoint" />
            <mxPoint x="470" y="2440" as="targetPoint" />
          </mxGeometry>
        </mxCell>
        <mxCell id="c3mjCf5Rib2vs3XdOX3i-170" value="" style="endArrow=none;html=1;rounded=0;" parent="1" edge="1">
          <mxGeometry width="50" height="50" relative="1" as="geometry">
            <mxPoint x="470" y="2440" as="sourcePoint" />
            <mxPoint x="470" y="2620" as="targetPoint" />
          </mxGeometry>
        </mxCell>
        <mxCell id="c3mjCf5Rib2vs3XdOX3i-171" value="" style="endArrow=classic;html=1;rounded=0;" parent="1" edge="1">
          <mxGeometry width="50" height="50" relative="1" as="geometry">
            <mxPoint x="470" y="2620" as="sourcePoint" />
            <mxPoint x="340" y="2620" as="targetPoint" />
          </mxGeometry>
        </mxCell>
        <mxCell id="c3mjCf5Rib2vs3XdOX3i-172" value="" style="endArrow=none;html=1;rounded=0;" parent="1" edge="1">
          <mxGeometry width="50" height="50" relative="1" as="geometry">
            <mxPoint x="340" y="2640" as="sourcePoint" />
            <mxPoint x="340" y="2600" as="targetPoint" />
          </mxGeometry>
        </mxCell>
        <mxCell id="c3mjCf5Rib2vs3XdOX3i-173" value="" style="endArrow=none;html=1;rounded=0;" parent="1" edge="1">
          <mxGeometry width="50" height="50" relative="1" as="geometry">
            <mxPoint x="20" y="2640" as="sourcePoint" />
            <mxPoint x="340" y="2640" as="targetPoint" />
          </mxGeometry>
        </mxCell>
        <mxCell id="c3mjCf5Rib2vs3XdOX3i-174" value="" style="endArrow=classic;html=1;rounded=0;" parent="1" edge="1">
          <mxGeometry width="50" height="50" relative="1" as="geometry">
            <mxPoint x="20" y="2640" as="sourcePoint" />
            <mxPoint x="20" y="2400" as="targetPoint" />
          </mxGeometry>
        </mxCell>
        <mxCell id="c3mjCf5Rib2vs3XdOX3i-175" value="&lt;font style=&quot;font-size: 14px;&quot; face=&quot;Times New Roman&quot;&gt;9&lt;/font&gt;" style="ellipse;whiteSpace=wrap;html=1;aspect=fixed;" parent="1" vertex="1">
          <mxGeometry y="2360" width="40" height="40" as="geometry" />
        </mxCell>
        <mxCell id="c3mjCf5Rib2vs3XdOX3i-176" value="&lt;font style=&quot;font-size: 14px;&quot; face=&quot;Times New Roman&quot;&gt;9&lt;/font&gt;" style="ellipse;whiteSpace=wrap;html=1;aspect=fixed;" parent="1" vertex="1">
          <mxGeometry y="2280" width="40" height="40" as="geometry" />
        </mxCell>
        <mxCell id="c3mjCf5Rib2vs3XdOX3i-177" value="" style="endArrow=classic;html=1;rounded=0;" parent="1" edge="1">
          <mxGeometry width="50" height="50" relative="1" as="geometry">
            <mxPoint x="20" y="2280" as="sourcePoint" />
            <mxPoint x="20" y="1240" as="targetPoint" />
          </mxGeometry>
        </mxCell>
        <mxCell id="c3mjCf5Rib2vs3XdOX3i-178" value="&lt;font style=&quot;font-size: 14px;&quot; face=&quot;Times New Roman&quot;&gt;10&lt;/font&gt;" style="ellipse;whiteSpace=wrap;html=1;aspect=fixed;" parent="1" vertex="1">
          <mxGeometry y="1200" width="40" height="40" as="geometry" />
        </mxCell>
        <mxCell id="c3mjCf5Rib2vs3XdOX3i-179" value="&lt;font style=&quot;font-size: 14px;&quot; face=&quot;Times New Roman&quot;&gt;10&lt;/font&gt;" style="ellipse;whiteSpace=wrap;html=1;aspect=fixed;" parent="1" vertex="1">
          <mxGeometry y="1100" width="40" height="40" as="geometry" />
        </mxCell>
        <mxCell id="c3mjCf5Rib2vs3XdOX3i-180" value="" style="endArrow=none;html=1;rounded=0;" parent="1" edge="1">
          <mxGeometry width="50" height="50" relative="1" as="geometry">
            <mxPoint x="20" y="1100" as="sourcePoint" />
            <mxPoint x="20" y="740" as="targetPoint" />
          </mxGeometry>
        </mxCell>
        <mxCell id="c3mjCf5Rib2vs3XdOX3i-181" value="" style="endArrow=classic;html=1;rounded=0;entryX=0;entryY=0.5;entryDx=0;entryDy=0;" parent="1" target="c3mjCf5Rib2vs3XdOX3i-40" edge="1">
          <mxGeometry width="50" height="50" relative="1" as="geometry">
            <mxPoint x="20" y="740" as="sourcePoint" />
            <mxPoint x="70" y="690" as="targetPoint" />
          </mxGeometry>
        </mxCell>
        <mxCell id="c3mjCf5Rib2vs3XdOX3i-182" value="&lt;font style=&quot;font-size: 14px;&quot; face=&quot;Times New Roman&quot;&gt;True&lt;/font&gt;" style="text;html=1;align=center;verticalAlign=middle;resizable=0;points=[];autosize=1;strokeColor=none;fillColor=none;" parent="1" vertex="1">
          <mxGeometry x="340" y="750" width="50" height="30" as="geometry" />
        </mxCell>
        <mxCell id="c3mjCf5Rib2vs3XdOX3i-183" value="" style="endArrow=none;html=1;rounded=0;" parent="1" edge="1">
          <mxGeometry width="50" height="50" relative="1" as="geometry">
            <mxPoint x="440" y="740" as="sourcePoint" />
            <mxPoint x="720" y="740" as="targetPoint" />
          </mxGeometry>
        </mxCell>
        <mxCell id="c3mjCf5Rib2vs3XdOX3i-184" value="&lt;font style=&quot;font-size: 14px;&quot; face=&quot;Times New Roman&quot;&gt;False&lt;/font&gt;" style="text;html=1;align=center;verticalAlign=middle;resizable=0;points=[];autosize=1;strokeColor=none;fillColor=none;" parent="1" vertex="1">
          <mxGeometry x="430" y="710" width="50" height="30" as="geometry" />
        </mxCell>
        <mxCell id="c3mjCf5Rib2vs3XdOX3i-185" value="&lt;font style=&quot;font-size: 14px;&quot; face=&quot;Times New Roman&quot;&gt;11&lt;/font&gt;" style="ellipse;whiteSpace=wrap;html=1;aspect=fixed;" parent="1" vertex="1">
          <mxGeometry x="700" y="1080" width="40" height="40" as="geometry" />
        </mxCell>
        <mxCell id="c3mjCf5Rib2vs3XdOX3i-186" value="" style="endArrow=classic;html=1;rounded=0;" parent="1" edge="1">
          <mxGeometry width="50" height="50" relative="1" as="geometry">
            <mxPoint x="720" y="740" as="sourcePoint" />
            <mxPoint x="720" y="1080" as="targetPoint" />
          </mxGeometry>
        </mxCell>
        <mxCell id="c3mjCf5Rib2vs3XdOX3i-187" value="&lt;font style=&quot;font-size: 14px;&quot; face=&quot;Times New Roman&quot;&gt;11&lt;/font&gt;" style="ellipse;whiteSpace=wrap;html=1;aspect=fixed;" parent="1" vertex="1">
          <mxGeometry x="700" y="1200" width="40" height="40" as="geometry" />
        </mxCell>
        <mxCell id="c3mjCf5Rib2vs3XdOX3i-188" value="" style="endArrow=classic;html=1;rounded=0;" parent="1" edge="1">
          <mxGeometry width="50" height="50" relative="1" as="geometry">
            <mxPoint x="720" y="1240" as="sourcePoint" />
            <mxPoint x="720" y="2281" as="targetPoint" />
          </mxGeometry>
        </mxCell>
        <mxCell id="c3mjCf5Rib2vs3XdOX3i-189" value="&lt;font style=&quot;font-size: 14px;&quot; face=&quot;Times New Roman&quot;&gt;12&lt;/font&gt;" style="ellipse;whiteSpace=wrap;html=1;aspect=fixed;" parent="1" vertex="1">
          <mxGeometry x="700" y="2280" width="40" height="40" as="geometry" />
        </mxCell>
        <mxCell id="c3mjCf5Rib2vs3XdOX3i-190" value="&lt;font style=&quot;font-size: 14px;&quot; face=&quot;Times New Roman&quot;&gt;12&lt;/font&gt;" style="ellipse;whiteSpace=wrap;html=1;aspect=fixed;" parent="1" vertex="1">
          <mxGeometry x="700" y="2360" width="40" height="40" as="geometry" />
        </mxCell>
        <mxCell id="c3mjCf5Rib2vs3XdOX3i-191" value="" style="endArrow=none;html=1;rounded=0;" parent="1" edge="1">
          <mxGeometry width="50" height="50" relative="1" as="geometry">
            <mxPoint x="720" y="2660" as="sourcePoint" />
            <mxPoint x="720" y="2400" as="targetPoint" />
          </mxGeometry>
        </mxCell>
        <mxCell id="c3mjCf5Rib2vs3XdOX3i-192" value="" style="endArrow=none;html=1;rounded=0;" parent="1" edge="1">
          <mxGeometry width="50" height="50" relative="1" as="geometry">
            <mxPoint x="340" y="2660" as="sourcePoint" />
            <mxPoint x="720" y="2660" as="targetPoint" />
          </mxGeometry>
        </mxCell>
        <mxCell id="c3mjCf5Rib2vs3XdOX3i-193" value="" style="endArrow=classic;html=1;rounded=0;" parent="1" edge="1">
          <mxGeometry width="50" height="50" relative="1" as="geometry">
            <mxPoint x="340" y="2660" as="sourcePoint" />
            <mxPoint x="340" y="2680" as="targetPoint" />
          </mxGeometry>
        </mxCell>
        <mxCell id="c3mjCf5Rib2vs3XdOX3i-194" value="&lt;font style=&quot;font-size: 14px;&quot; face=&quot;Times New Roman&quot;&gt;Конец&lt;/font&gt;" style="ellipse;whiteSpace=wrap;html=1;" parent="1" vertex="1">
          <mxGeometry x="240" y="2680" width="200" height="40" as="geometry" />
        </mxCell>
        <mxCell id="c3mjCf5Rib2vs3XdOX3i-196" value="" style="endArrow=none;html=1;rounded=0;" parent="1" edge="1">
          <mxGeometry width="50" height="50" relative="1" as="geometry">
            <mxPoint x="120" y="2841" as="sourcePoint" />
            <mxPoint x="770" y="2841" as="targetPoint" />
          </mxGeometry>
        </mxCell>
        <mxCell id="c3mjCf5Rib2vs3XdOX3i-197" value="" style="endArrow=classic;html=1;rounded=0;" parent="1" edge="1">
          <mxGeometry width="50" height="50" relative="1" as="geometry">
            <mxPoint x="449.65999999999997" y="2841" as="sourcePoint" />
            <mxPoint x="449.65999999999997" y="2861" as="targetPoint" />
          </mxGeometry>
        </mxCell>
        <mxCell id="c3mjCf5Rib2vs3XdOX3i-198" value="&lt;font face=&quot;Times New Roman&quot;&gt;&lt;span style=&quot;font-size: 14px;&quot;&gt;Отображение работы метода&amp;nbsp;countWorkHours&lt;/span&gt;&lt;/font&gt;" style="shape=document;whiteSpace=wrap;html=1;boundedLbl=1;" parent="1" vertex="1">
          <mxGeometry x="350" y="2861" width="200" height="40" as="geometry" />
        </mxCell>
        <mxCell id="c3mjCf5Rib2vs3XdOX3i-199" value="&lt;span style=&quot;font-family: &amp;quot;Times New Roman&amp;quot;; font-size: 14px;&quot;&gt;Отображение работы метода&amp;nbsp;&lt;/span&gt;&lt;font face=&quot;Times New Roman&quot;&gt;&lt;span style=&quot;font-size: 14px;&quot;&gt;printAddress&lt;/span&gt;&lt;/font&gt;" style="shape=document;whiteSpace=wrap;html=1;boundedLbl=1;" parent="1" vertex="1">
          <mxGeometry x="560" y="2861" width="200" height="40" as="geometry" />
        </mxCell>
        <mxCell id="c3mjCf5Rib2vs3XdOX3i-200" value="&lt;font face=&quot;Times New Roman&quot;&gt;&lt;span style=&quot;font-size: 14px;&quot;&gt;Отображение работы метода&amp;nbsp;&lt;/span&gt;&lt;/font&gt;&lt;div&gt;&lt;font face=&quot;Times New Roman&quot;&gt;&lt;span style=&quot;font-size: 14px;&quot;&gt;forceRateValue&lt;/span&gt;&lt;br&gt;&lt;/font&gt;&lt;/div&gt;" style="shape=document;whiteSpace=wrap;html=1;boundedLbl=1;" parent="1" vertex="1">
          <mxGeometry x="140" y="2861" width="200" height="40" as="geometry" />
        </mxCell>
        <mxCell id="c3mjCf5Rib2vs3XdOX3i-201" value="" style="endArrow=classic;html=1;rounded=0;entryX=0.5;entryY=0;entryDx=0;entryDy=0;" parent="1" target="c3mjCf5Rib2vs3XdOX3i-200" edge="1">
          <mxGeometry width="50" height="50" relative="1" as="geometry">
            <mxPoint x="240" y="2841" as="sourcePoint" />
            <mxPoint x="290" y="2791" as="targetPoint" />
          </mxGeometry>
        </mxCell>
        <mxCell id="c3mjCf5Rib2vs3XdOX3i-202" value="" style="endArrow=classic;html=1;rounded=0;exitX=0.5;exitY=0.854;exitDx=0;exitDy=0;exitPerimeter=0;" parent="1" source="c3mjCf5Rib2vs3XdOX3i-200" edge="1">
          <mxGeometry width="50" height="50" relative="1" as="geometry">
            <mxPoint x="190" y="2971" as="sourcePoint" />
            <mxPoint x="240" y="2921" as="targetPoint" />
          </mxGeometry>
        </mxCell>
        <mxCell id="c3mjCf5Rib2vs3XdOX3i-203" value="" style="endArrow=classic;html=1;rounded=0;exitX=0.499;exitY=0.83;exitDx=0;exitDy=0;exitPerimeter=0;" parent="1" source="c3mjCf5Rib2vs3XdOX3i-198" edge="1">
          <mxGeometry width="50" height="50" relative="1" as="geometry">
            <mxPoint x="400" y="2971" as="sourcePoint" />
            <mxPoint x="450" y="2921" as="targetPoint" />
          </mxGeometry>
        </mxCell>
        <mxCell id="c3mjCf5Rib2vs3XdOX3i-204" value="" style="endArrow=classic;html=1;rounded=0;" parent="1" edge="1">
          <mxGeometry width="50" height="50" relative="1" as="geometry">
            <mxPoint x="660" y="2841" as="sourcePoint" />
            <mxPoint x="660" y="2861" as="targetPoint" />
          </mxGeometry>
        </mxCell>
        <mxCell id="c3mjCf5Rib2vs3XdOX3i-205" value="" style="endArrow=classic;html=1;rounded=0;exitX=0.5;exitY=0.854;exitDx=0;exitDy=0;exitPerimeter=0;" parent="1" source="c3mjCf5Rib2vs3XdOX3i-199" edge="1">
          <mxGeometry width="50" height="50" relative="1" as="geometry">
            <mxPoint x="610" y="2971" as="sourcePoint" />
            <mxPoint x="660" y="2921" as="targetPoint" />
          </mxGeometry>
        </mxCell>
        <mxCell id="c3mjCf5Rib2vs3XdOX3i-206" value="" style="endArrow=none;html=1;rounded=0;entryX=0;entryY=0.5;entryDx=0;entryDy=0;" parent="1" edge="1">
          <mxGeometry width="50" height="50" relative="1" as="geometry">
            <mxPoint x="120" y="2921" as="sourcePoint" />
            <mxPoint x="770" y="2921" as="targetPoint" />
          </mxGeometry>
        </mxCell>
        <mxCell id="c3mjCf5Rib2vs3XdOX3i-207" value="&lt;font style=&quot;font-size: 14px;&quot; face=&quot;Times New Roman&quot;&gt;6&lt;/font&gt;" style="ellipse;whiteSpace=wrap;html=1;aspect=fixed;" parent="1" vertex="1">
          <mxGeometry x="80" y="2821" width="40" height="40" as="geometry" />
        </mxCell>
        <mxCell id="c3mjCf5Rib2vs3XdOX3i-208" value="&lt;font style=&quot;font-size: 14px;&quot; face=&quot;Times New Roman&quot;&gt;7&lt;/font&gt;" style="ellipse;whiteSpace=wrap;html=1;aspect=fixed;" parent="1" vertex="1">
          <mxGeometry x="80" y="2901" width="40" height="40" as="geometry" />
        </mxCell>
        <mxCell id="c3mjCf5Rib2vs3XdOX3i-209" value="&lt;font style=&quot;font-size: 14px;&quot; face=&quot;Times New Roman&quot;&gt;13&lt;/font&gt;" style="ellipse;whiteSpace=wrap;html=1;aspect=fixed;" parent="1" vertex="1">
          <mxGeometry x="770" y="2821" width="40" height="40" as="geometry" />
        </mxCell>
        <mxCell id="c3mjCf5Rib2vs3XdOX3i-210" value="&lt;font style=&quot;font-size: 14px;&quot; face=&quot;Times New Roman&quot;&gt;14&lt;/font&gt;" style="ellipse;whiteSpace=wrap;html=1;aspect=fixed;" parent="1" vertex="1">
          <mxGeometry x="770" y="2901" width="40" height="40" as="geometry" />
        </mxCell>
        <mxCell id="c3mjCf5Rib2vs3XdOX3i-211" value="" style="endArrow=none;html=1;rounded=0;" parent="1" edge="1">
          <mxGeometry width="50" height="50" relative="1" as="geometry">
            <mxPoint x="120" y="2980" as="sourcePoint" />
            <mxPoint x="660" y="2980" as="targetPoint" />
          </mxGeometry>
        </mxCell>
        <mxCell id="c3mjCf5Rib2vs3XdOX3i-212" value="" style="endArrow=classic;html=1;rounded=0;" parent="1" edge="1">
          <mxGeometry width="50" height="50" relative="1" as="geometry">
            <mxPoint x="449.65999999999997" y="2980" as="sourcePoint" />
            <mxPoint x="449.65999999999997" y="3000" as="targetPoint" />
          </mxGeometry>
        </mxCell>
        <mxCell id="c3mjCf5Rib2vs3XdOX3i-213" value="&lt;font face=&quot;Times New Roman&quot;&gt;&lt;span style=&quot;font-size: 14px;&quot;&gt;Отображение работы метода&amp;nbsp;printTimeString&lt;/span&gt;&lt;/font&gt;" style="shape=document;whiteSpace=wrap;html=1;boundedLbl=1;" parent="1" vertex="1">
          <mxGeometry x="350" y="3000" width="200" height="40" as="geometry" />
        </mxCell>
        <mxCell id="c3mjCf5Rib2vs3XdOX3i-215" value="&lt;font face=&quot;Times New Roman&quot;&gt;&lt;span style=&quot;font-size: 14px;&quot;&gt;Отображение работы метода&amp;nbsp;&lt;/span&gt;&lt;/font&gt;&lt;div&gt;&lt;span style=&quot;background-color: initial; font-size: 14px;&quot;&gt;&lt;font face=&quot;Times New Roman&quot;&gt;sortByRate&lt;/font&gt;&lt;/span&gt;&lt;font face=&quot;Times New Roman&quot;&gt;&lt;br&gt;&lt;/font&gt;&lt;/div&gt;" style="shape=document;whiteSpace=wrap;html=1;boundedLbl=1;" parent="1" vertex="1">
          <mxGeometry x="140" y="3000" width="200" height="40" as="geometry" />
        </mxCell>
        <mxCell id="c3mjCf5Rib2vs3XdOX3i-216" value="" style="endArrow=classic;html=1;rounded=0;entryX=0.5;entryY=0;entryDx=0;entryDy=0;" parent="1" target="c3mjCf5Rib2vs3XdOX3i-215" edge="1">
          <mxGeometry width="50" height="50" relative="1" as="geometry">
            <mxPoint x="240" y="2980" as="sourcePoint" />
            <mxPoint x="290" y="2930" as="targetPoint" />
          </mxGeometry>
        </mxCell>
        <mxCell id="c3mjCf5Rib2vs3XdOX3i-217" value="" style="endArrow=classic;html=1;rounded=0;exitX=0.5;exitY=0.854;exitDx=0;exitDy=0;exitPerimeter=0;" parent="1" source="c3mjCf5Rib2vs3XdOX3i-215" edge="1">
          <mxGeometry width="50" height="50" relative="1" as="geometry">
            <mxPoint x="190" y="3110" as="sourcePoint" />
            <mxPoint x="240" y="3060" as="targetPoint" />
          </mxGeometry>
        </mxCell>
        <mxCell id="c3mjCf5Rib2vs3XdOX3i-218" value="" style="endArrow=classic;html=1;rounded=0;exitX=0.499;exitY=0.83;exitDx=0;exitDy=0;exitPerimeter=0;" parent="1" source="c3mjCf5Rib2vs3XdOX3i-213" edge="1">
          <mxGeometry width="50" height="50" relative="1" as="geometry">
            <mxPoint x="400" y="3110" as="sourcePoint" />
            <mxPoint x="450" y="3060" as="targetPoint" />
          </mxGeometry>
        </mxCell>
        <mxCell id="c3mjCf5Rib2vs3XdOX3i-219" value="" style="endArrow=classic;html=1;rounded=0;" parent="1" edge="1">
          <mxGeometry width="50" height="50" relative="1" as="geometry">
            <mxPoint x="660" y="2980" as="sourcePoint" />
            <mxPoint x="660" y="3000" as="targetPoint" />
          </mxGeometry>
        </mxCell>
        <mxCell id="c3mjCf5Rib2vs3XdOX3i-220" value="" style="endArrow=classic;html=1;rounded=0;exitX=0.5;exitY=0.854;exitDx=0;exitDy=0;exitPerimeter=0;" parent="1" edge="1">
          <mxGeometry width="50" height="50" relative="1" as="geometry">
            <mxPoint x="660" y="3034.16" as="sourcePoint" />
            <mxPoint x="660" y="3060" as="targetPoint" />
          </mxGeometry>
        </mxCell>
        <mxCell id="c3mjCf5Rib2vs3XdOX3i-221" value="" style="endArrow=none;html=1;rounded=0;" parent="1" edge="1">
          <mxGeometry width="50" height="50" relative="1" as="geometry">
            <mxPoint x="120" y="3060" as="sourcePoint" />
            <mxPoint x="660" y="3060" as="targetPoint" />
          </mxGeometry>
        </mxCell>
        <mxCell id="c3mjCf5Rib2vs3XdOX3i-222" value="&lt;font style=&quot;font-size: 14px;&quot; face=&quot;Times New Roman&quot;&gt;13&lt;/font&gt;" style="ellipse;whiteSpace=wrap;html=1;aspect=fixed;" parent="1" vertex="1">
          <mxGeometry x="80" y="2960" width="40" height="40" as="geometry" />
        </mxCell>
        <mxCell id="c3mjCf5Rib2vs3XdOX3i-223" value="&lt;font style=&quot;font-size: 14px;&quot; face=&quot;Times New Roman&quot;&gt;14&lt;/font&gt;" style="ellipse;whiteSpace=wrap;html=1;aspect=fixed;" parent="1" vertex="1">
          <mxGeometry x="80" y="3040" width="40" height="40" as="geometry" />
        </mxCell>
        <mxCell id="c3mjCf5Rib2vs3XdOX3i-226" value="&lt;div&gt;&lt;font face=&quot;Times New Roman&quot;&gt;&lt;span style=&quot;font-size: 14px;&quot;&gt;flgRepeat = false;&lt;/span&gt;&lt;/font&gt;&lt;br&gt;&lt;/div&gt;" style="rounded=0;whiteSpace=wrap;html=1;" parent="1" vertex="1">
          <mxGeometry x="560" y="3000" width="200" height="40" as="geometry" />
        </mxCell>
        <mxCell id="c3mjCf5Rib2vs3XdOX3i-227" value="&lt;font style=&quot;font-size: 14px;&quot; face=&quot;Times New Roman&quot;&gt;0&lt;/font&gt;" style="text;html=1;align=center;verticalAlign=middle;resizable=0;points=[];autosize=1;strokeColor=none;fillColor=none;" parent="1" vertex="1">
          <mxGeometry x="115" y="2150" width="30" height="30" as="geometry" />
        </mxCell>
        <mxCell id="c3mjCf5Rib2vs3XdOX3i-228" value="&lt;font style=&quot;font-size: 14px;&quot; face=&quot;Times New Roman&quot;&gt;1&lt;/font&gt;" style="text;html=1;align=center;verticalAlign=middle;resizable=0;points=[];autosize=1;strokeColor=none;fillColor=none;" parent="1" vertex="1">
          <mxGeometry x="310" y="2150" width="30" height="30" as="geometry" />
        </mxCell>
        <mxCell id="c3mjCf5Rib2vs3XdOX3i-229" value="&lt;font style=&quot;font-size: 14px;&quot; face=&quot;Times New Roman&quot;&gt;2&lt;/font&gt;" style="text;html=1;align=center;verticalAlign=middle;resizable=0;points=[];autosize=1;strokeColor=none;fillColor=none;" parent="1" vertex="1">
          <mxGeometry x="535" y="2150" width="30" height="30" as="geometry" />
        </mxCell>
        <mxCell id="c3mjCf5Rib2vs3XdOX3i-230" value="&lt;font style=&quot;font-size: 14px;&quot; face=&quot;Times New Roman&quot;&gt;3&lt;/font&gt;" style="text;html=1;align=center;verticalAlign=middle;resizable=0;points=[];autosize=1;strokeColor=none;fillColor=none;" parent="1" vertex="1">
          <mxGeometry x="225" y="2810" width="30" height="30" as="geometry" />
        </mxCell>
        <mxCell id="c3mjCf5Rib2vs3XdOX3i-231" value="&lt;font style=&quot;font-size: 14px;&quot; face=&quot;Times New Roman&quot;&gt;4&lt;/font&gt;" style="text;html=1;align=center;verticalAlign=middle;resizable=0;points=[];autosize=1;strokeColor=none;fillColor=none;" parent="1" vertex="1">
          <mxGeometry x="435" y="2810" width="30" height="30" as="geometry" />
        </mxCell>
        <mxCell id="c3mjCf5Rib2vs3XdOX3i-232" value="&lt;font style=&quot;font-size: 14px;&quot; face=&quot;Times New Roman&quot;&gt;5&lt;/font&gt;" style="text;html=1;align=center;verticalAlign=middle;resizable=0;points=[];autosize=1;strokeColor=none;fillColor=none;" parent="1" vertex="1">
          <mxGeometry x="645" y="2810" width="30" height="30" as="geometry" />
        </mxCell>
        <mxCell id="c3mjCf5Rib2vs3XdOX3i-233" value="&lt;font style=&quot;font-size: 14px;&quot; face=&quot;Times New Roman&quot;&gt;6&lt;/font&gt;" style="text;html=1;align=center;verticalAlign=middle;resizable=0;points=[];autosize=1;strokeColor=none;fillColor=none;" parent="1" vertex="1">
          <mxGeometry x="225" y="2950" width="30" height="30" as="geometry" />
        </mxCell>
        <mxCell id="c3mjCf5Rib2vs3XdOX3i-234" value="&lt;font style=&quot;font-size: 14px;&quot; face=&quot;Times New Roman&quot;&gt;7&lt;/font&gt;" style="text;html=1;align=center;verticalAlign=middle;resizable=0;points=[];autosize=1;strokeColor=none;fillColor=none;" parent="1" vertex="1">
          <mxGeometry x="435" y="2950" width="30" height="30" as="geometry" />
        </mxCell>
        <mxCell id="c3mjCf5Rib2vs3XdOX3i-235" value="&lt;font style=&quot;font-size: 14px;&quot; face=&quot;Times New Roman&quot;&gt;8&lt;/font&gt;" style="text;html=1;align=center;verticalAlign=middle;resizable=0;points=[];autosize=1;strokeColor=none;fillColor=none;" parent="1" vertex="1">
          <mxGeometry x="645" y="2950" width="30" height="30" as="geometry" />
        </mxCell>
        <mxCell id="c3mjCf5Rib2vs3XdOX3i-236" value="&lt;font style=&quot;font-size: 14px;&quot; face=&quot;Times New Roman&quot;&gt;1&lt;/font&gt;" style="text;html=1;align=center;verticalAlign=middle;resizable=0;points=[];autosize=1;strokeColor=none;fillColor=none;" parent="1" vertex="1">
          <mxGeometry x="200" y="50" width="30" height="30" as="geometry" />
        </mxCell>
        <mxCell id="c3mjCf5Rib2vs3XdOX3i-237" value="&lt;font style=&quot;font-size: 14px;&quot; face=&quot;Times New Roman&quot;&gt;2&lt;/font&gt;" style="text;html=1;align=center;verticalAlign=middle;resizable=0;points=[];autosize=1;strokeColor=none;fillColor=none;" parent="1" vertex="1">
          <mxGeometry x="200" y="130" width="30" height="30" as="geometry" />
        </mxCell>
        <mxCell id="c3mjCf5Rib2vs3XdOX3i-238" value="&lt;font style=&quot;font-size: 14px;&quot; face=&quot;Times New Roman&quot;&gt;3&lt;/font&gt;" style="text;html=1;align=center;verticalAlign=middle;resizable=0;points=[];autosize=1;strokeColor=none;fillColor=none;" parent="1" vertex="1">
          <mxGeometry x="200" y="210" width="30" height="30" as="geometry" />
        </mxCell>
        <mxCell id="c3mjCf5Rib2vs3XdOX3i-239" value="&lt;font style=&quot;font-size: 14px;&quot; face=&quot;Times New Roman&quot;&gt;4&lt;/font&gt;" style="text;html=1;align=center;verticalAlign=middle;resizable=0;points=[];autosize=1;strokeColor=none;fillColor=none;" parent="1" vertex="1">
          <mxGeometry x="200" y="330" width="30" height="30" as="geometry" />
        </mxCell>
        <mxCell id="c3mjCf5Rib2vs3XdOX3i-240" value="&lt;font style=&quot;font-size: 14px;&quot; face=&quot;Times New Roman&quot;&gt;5&lt;/font&gt;" style="text;html=1;align=center;verticalAlign=middle;resizable=0;points=[];autosize=1;strokeColor=none;fillColor=none;" parent="1" vertex="1">
          <mxGeometry x="450" y="280" width="30" height="30" as="geometry" />
        </mxCell>
        <mxCell id="c3mjCf5Rib2vs3XdOX3i-241" value="&lt;font style=&quot;font-size: 14px;&quot; face=&quot;Times New Roman&quot;&gt;6&lt;/font&gt;" style="text;html=1;align=center;verticalAlign=middle;resizable=0;points=[];autosize=1;strokeColor=none;fillColor=none;" parent="1" vertex="1">
          <mxGeometry x="200" y="410" width="30" height="30" as="geometry" />
        </mxCell>
        <mxCell id="c3mjCf5Rib2vs3XdOX3i-242" value="&lt;font style=&quot;font-size: 14px;&quot; face=&quot;Times New Roman&quot;&gt;7&lt;/font&gt;" style="text;html=1;align=center;verticalAlign=middle;resizable=0;points=[];autosize=1;strokeColor=none;fillColor=none;" parent="1" vertex="1">
          <mxGeometry x="200" y="470" width="30" height="30" as="geometry" />
        </mxCell>
        <mxCell id="c3mjCf5Rib2vs3XdOX3i-243" value="&lt;font style=&quot;font-size: 14px;&quot; face=&quot;Times New Roman&quot;&gt;8&lt;/font&gt;" style="text;html=1;align=center;verticalAlign=middle;resizable=0;points=[];autosize=1;strokeColor=none;fillColor=none;" parent="1" vertex="1">
          <mxGeometry x="200" y="550" width="30" height="30" as="geometry" />
        </mxCell>
        <mxCell id="c3mjCf5Rib2vs3XdOX3i-244" value="&lt;font style=&quot;font-size: 14px;&quot; face=&quot;Times New Roman&quot;&gt;9&lt;/font&gt;" style="text;html=1;align=center;verticalAlign=middle;resizable=0;points=[];autosize=1;strokeColor=none;fillColor=none;" parent="1" vertex="1">
          <mxGeometry x="200" y="590" width="30" height="30" as="geometry" />
        </mxCell>
        <mxCell id="c3mjCf5Rib2vs3XdOX3i-245" value="&lt;font style=&quot;font-size: 14px;&quot; face=&quot;Times New Roman&quot;&gt;10&lt;/font&gt;" style="text;html=1;align=center;verticalAlign=middle;resizable=0;points=[];autosize=1;strokeColor=none;fillColor=none;" parent="1" vertex="1">
          <mxGeometry x="195" y="670" width="40" height="30" as="geometry" />
        </mxCell>
        <mxCell id="c3mjCf5Rib2vs3XdOX3i-246" value="&lt;font style=&quot;font-size: 14px;&quot; face=&quot;Times New Roman&quot;&gt;11&lt;/font&gt;" style="text;html=1;align=center;verticalAlign=middle;resizable=0;points=[];autosize=1;strokeColor=none;fillColor=none;" parent="1" vertex="1">
          <mxGeometry x="195" y="730" width="40" height="30" as="geometry" />
        </mxCell>
        <mxCell id="c3mjCf5Rib2vs3XdOX3i-247" value="&lt;font style=&quot;font-size: 14px;&quot; face=&quot;Times New Roman&quot;&gt;12&lt;/font&gt;" style="text;html=1;align=center;verticalAlign=middle;resizable=0;points=[];autosize=1;strokeColor=none;fillColor=none;" parent="1" vertex="1">
          <mxGeometry x="195" y="790" width="40" height="30" as="geometry" />
        </mxCell>
        <mxCell id="c3mjCf5Rib2vs3XdOX3i-248" value="&lt;font style=&quot;font-size: 14px;&quot; face=&quot;Times New Roman&quot;&gt;13&lt;/font&gt;" style="text;html=1;align=center;verticalAlign=middle;resizable=0;points=[];autosize=1;strokeColor=none;fillColor=none;" parent="1" vertex="1">
          <mxGeometry x="195" y="835" width="40" height="30" as="geometry" />
        </mxCell>
        <mxCell id="c3mjCf5Rib2vs3XdOX3i-249" value="&lt;font style=&quot;font-size: 14px;&quot; face=&quot;Times New Roman&quot;&gt;14&lt;/font&gt;" style="text;html=1;align=center;verticalAlign=middle;resizable=0;points=[];autosize=1;strokeColor=none;fillColor=none;" parent="1" vertex="1">
          <mxGeometry x="185" y="890" width="40" height="30" as="geometry" />
        </mxCell>
        <mxCell id="c3mjCf5Rib2vs3XdOX3i-250" value="&lt;font style=&quot;font-size: 14px;&quot; face=&quot;Times New Roman&quot;&gt;15&lt;/font&gt;" style="text;html=1;align=center;verticalAlign=middle;resizable=0;points=[];autosize=1;strokeColor=none;fillColor=none;" parent="1" vertex="1">
          <mxGeometry x="185" y="950" width="40" height="30" as="geometry" />
        </mxCell>
        <mxCell id="c3mjCf5Rib2vs3XdOX3i-252" value="&lt;font style=&quot;font-size: 14px;&quot; face=&quot;Times New Roman&quot;&gt;16&lt;/font&gt;" style="text;html=1;align=center;verticalAlign=middle;resizable=0;points=[];autosize=1;strokeColor=none;fillColor=none;" parent="1" vertex="1">
          <mxGeometry x="185" y="1050" width="40" height="30" as="geometry" />
        </mxCell>
        <mxCell id="c3mjCf5Rib2vs3XdOX3i-254" value="&lt;font style=&quot;font-size: 14px;&quot; face=&quot;Times New Roman&quot;&gt;17&lt;/font&gt;" style="text;html=1;align=center;verticalAlign=middle;resizable=0;points=[];autosize=1;strokeColor=none;fillColor=none;" parent="1" vertex="1">
          <mxGeometry x="180" y="1350" width="40" height="30" as="geometry" />
        </mxCell>
        <mxCell id="c3mjCf5Rib2vs3XdOX3i-255" value="&lt;font style=&quot;font-size: 14px;&quot; face=&quot;Times New Roman&quot;&gt;18&lt;/font&gt;" style="text;html=1;align=center;verticalAlign=middle;resizable=0;points=[];autosize=1;strokeColor=none;fillColor=none;" parent="1" vertex="1">
          <mxGeometry x="180" y="1410" width="40" height="30" as="geometry" />
        </mxCell>
        <mxCell id="c3mjCf5Rib2vs3XdOX3i-256" value="&lt;font style=&quot;font-size: 14px;&quot; face=&quot;Times New Roman&quot;&gt;19&lt;/font&gt;" style="text;html=1;align=center;verticalAlign=middle;resizable=0;points=[];autosize=1;strokeColor=none;fillColor=none;" parent="1" vertex="1">
          <mxGeometry x="180" y="1490" width="40" height="30" as="geometry" />
        </mxCell>
        <mxCell id="c3mjCf5Rib2vs3XdOX3i-257" value="&lt;font style=&quot;font-size: 14px;&quot; face=&quot;Times New Roman&quot;&gt;20&lt;/font&gt;" style="text;html=1;align=center;verticalAlign=middle;resizable=0;points=[];autosize=1;strokeColor=none;fillColor=none;" parent="1" vertex="1">
          <mxGeometry x="180" y="1570" width="40" height="30" as="geometry" />
        </mxCell>
        <mxCell id="c3mjCf5Rib2vs3XdOX3i-258" value="&lt;font style=&quot;font-size: 14px;&quot; face=&quot;Times New Roman&quot;&gt;21&lt;/font&gt;" style="text;html=1;align=center;verticalAlign=middle;resizable=0;points=[];autosize=1;strokeColor=none;fillColor=none;" parent="1" vertex="1">
          <mxGeometry x="180" y="1650" width="40" height="30" as="geometry" />
        </mxCell>
        <mxCell id="c3mjCf5Rib2vs3XdOX3i-259" value="&lt;font style=&quot;font-size: 14px;&quot; face=&quot;Times New Roman&quot;&gt;22&lt;/font&gt;" style="text;html=1;align=center;verticalAlign=middle;resizable=0;points=[];autosize=1;strokeColor=none;fillColor=none;" parent="1" vertex="1">
          <mxGeometry x="180" y="1735" width="40" height="30" as="geometry" />
        </mxCell>
        <mxCell id="c3mjCf5Rib2vs3XdOX3i-260" value="&lt;font style=&quot;font-size: 14px;&quot; face=&quot;Times New Roman&quot;&gt;23&lt;/font&gt;" style="text;html=1;align=center;verticalAlign=middle;resizable=0;points=[];autosize=1;strokeColor=none;fillColor=none;" parent="1" vertex="1">
          <mxGeometry x="180" y="1850" width="40" height="30" as="geometry" />
        </mxCell>
        <mxCell id="c3mjCf5Rib2vs3XdOX3i-261" value="&lt;font style=&quot;font-size: 14px;&quot; face=&quot;Times New Roman&quot;&gt;24&lt;/font&gt;" style="text;html=1;align=center;verticalAlign=middle;resizable=0;points=[];autosize=1;strokeColor=none;fillColor=none;" parent="1" vertex="1">
          <mxGeometry x="180" y="1890" width="40" height="30" as="geometry" />
        </mxCell>
        <mxCell id="c3mjCf5Rib2vs3XdOX3i-262" value="&lt;font style=&quot;font-size: 14px;&quot; face=&quot;Times New Roman&quot;&gt;25&lt;/font&gt;" style="text;html=1;align=center;verticalAlign=middle;resizable=0;points=[];autosize=1;strokeColor=none;fillColor=none;" parent="1" vertex="1">
          <mxGeometry x="180" y="1950" width="40" height="30" as="geometry" />
        </mxCell>
        <mxCell id="c3mjCf5Rib2vs3XdOX3i-263" value="&lt;font style=&quot;font-size: 14px;&quot; face=&quot;Times New Roman&quot;&gt;26&lt;/font&gt;" style="text;html=1;align=center;verticalAlign=middle;resizable=0;points=[];autosize=1;strokeColor=none;fillColor=none;" parent="1" vertex="1">
          <mxGeometry x="180" y="1995" width="40" height="30" as="geometry" />
        </mxCell>
        <mxCell id="c3mjCf5Rib2vs3XdOX3i-264" value="&lt;font style=&quot;font-size: 14px;&quot; face=&quot;Times New Roman&quot;&gt;27&lt;/font&gt;" style="text;html=1;align=center;verticalAlign=middle;resizable=0;points=[];autosize=1;strokeColor=none;fillColor=none;" parent="1" vertex="1">
          <mxGeometry x="180" y="2070" width="40" height="30" as="geometry" />
        </mxCell>
        <mxCell id="c3mjCf5Rib2vs3XdOX3i-265" value="&lt;font style=&quot;font-size: 14px;&quot; face=&quot;Times New Roman&quot;&gt;28&lt;/font&gt;" style="text;html=1;align=center;verticalAlign=middle;resizable=0;points=[];autosize=1;strokeColor=none;fillColor=none;" parent="1" vertex="1">
          <mxGeometry x="180" y="2130" width="40" height="30" as="geometry" />
        </mxCell>
        <mxCell id="c3mjCf5Rib2vs3XdOX3i-266" value="&lt;font face=&quot;Times New Roman&quot;&gt;&lt;span style=&quot;font-size: 14px;&quot;&gt;29&lt;/span&gt;&lt;/font&gt;" style="text;html=1;align=center;verticalAlign=middle;resizable=0;points=[];autosize=1;strokeColor=none;fillColor=none;" parent="1" vertex="1">
          <mxGeometry x="20" y="2180" width="40" height="30" as="geometry" />
        </mxCell>
        <mxCell id="c3mjCf5Rib2vs3XdOX3i-267" value="&lt;font face=&quot;Times New Roman&quot;&gt;&lt;span style=&quot;font-size: 14px;&quot;&gt;30&lt;/span&gt;&lt;/font&gt;" style="text;html=1;align=center;verticalAlign=middle;resizable=0;points=[];autosize=1;strokeColor=none;fillColor=none;" parent="1" vertex="1">
          <mxGeometry x="235" y="2180" width="40" height="30" as="geometry" />
        </mxCell>
        <mxCell id="c3mjCf5Rib2vs3XdOX3i-268" value="&lt;font face=&quot;Times New Roman&quot;&gt;&lt;span style=&quot;font-size: 14px;&quot;&gt;31&lt;/span&gt;&lt;/font&gt;" style="text;html=1;align=center;verticalAlign=middle;resizable=0;points=[];autosize=1;strokeColor=none;fillColor=none;" parent="1" vertex="1">
          <mxGeometry x="445" y="2180" width="40" height="30" as="geometry" />
        </mxCell>
        <mxCell id="c3mjCf5Rib2vs3XdOX3i-269" value="&lt;font face=&quot;Times New Roman&quot;&gt;&lt;span style=&quot;font-size: 14px;&quot;&gt;32&lt;/span&gt;&lt;/font&gt;" style="text;html=1;align=center;verticalAlign=middle;resizable=0;points=[];autosize=1;strokeColor=none;fillColor=none;" parent="1" vertex="1">
          <mxGeometry x="130" y="2840" width="40" height="30" as="geometry" />
        </mxCell>
        <mxCell id="c3mjCf5Rib2vs3XdOX3i-270" value="&lt;font face=&quot;Times New Roman&quot;&gt;&lt;span style=&quot;font-size: 14px;&quot;&gt;33&lt;/span&gt;&lt;/font&gt;" style="text;html=1;align=center;verticalAlign=middle;resizable=0;points=[];autosize=1;strokeColor=none;fillColor=none;" parent="1" vertex="1">
          <mxGeometry x="340" y="2840" width="40" height="30" as="geometry" />
        </mxCell>
        <mxCell id="c3mjCf5Rib2vs3XdOX3i-271" value="&lt;font face=&quot;Times New Roman&quot;&gt;&lt;span style=&quot;font-size: 14px;&quot;&gt;34&lt;/span&gt;&lt;/font&gt;" style="text;html=1;align=center;verticalAlign=middle;resizable=0;points=[];autosize=1;strokeColor=none;fillColor=none;" parent="1" vertex="1">
          <mxGeometry x="550" y="2840" width="40" height="30" as="geometry" />
        </mxCell>
        <mxCell id="c3mjCf5Rib2vs3XdOX3i-272" value="&lt;font face=&quot;Times New Roman&quot;&gt;&lt;span style=&quot;font-size: 14px;&quot;&gt;35&lt;/span&gt;&lt;/font&gt;" style="text;html=1;align=center;verticalAlign=middle;resizable=0;points=[];autosize=1;strokeColor=none;fillColor=none;" parent="1" vertex="1">
          <mxGeometry x="130" y="2980" width="40" height="30" as="geometry" />
        </mxCell>
        <mxCell id="c3mjCf5Rib2vs3XdOX3i-273" value="&lt;font face=&quot;Times New Roman&quot;&gt;&lt;span style=&quot;font-size: 14px;&quot;&gt;36&lt;/span&gt;&lt;/font&gt;" style="text;html=1;align=center;verticalAlign=middle;resizable=0;points=[];autosize=1;strokeColor=none;fillColor=none;" parent="1" vertex="1">
          <mxGeometry x="340" y="2980" width="40" height="30" as="geometry" />
        </mxCell>
        <mxCell id="c3mjCf5Rib2vs3XdOX3i-274" value="&lt;font face=&quot;Times New Roman&quot;&gt;&lt;span style=&quot;font-size: 14px;&quot;&gt;37&lt;/span&gt;&lt;/font&gt;" style="text;html=1;align=center;verticalAlign=middle;resizable=0;points=[];autosize=1;strokeColor=none;fillColor=none;" parent="1" vertex="1">
          <mxGeometry x="550" y="2980" width="40" height="30" as="geometry" />
        </mxCell>
        <mxCell id="c3mjCf5Rib2vs3XdOX3i-275" value="&lt;font face=&quot;Times New Roman&quot;&gt;&lt;span style=&quot;font-size: 14px;&quot;&gt;38&lt;/span&gt;&lt;/font&gt;" style="text;html=1;align=center;verticalAlign=middle;resizable=0;points=[];autosize=1;strokeColor=none;fillColor=none;" parent="1" vertex="1">
          <mxGeometry x="180" y="2430" width="40" height="30" as="geometry" />
        </mxCell>
        <mxCell id="c3mjCf5Rib2vs3XdOX3i-276" value="&lt;font face=&quot;Times New Roman&quot;&gt;&lt;span style=&quot;font-size: 14px;&quot;&gt;39&lt;/span&gt;&lt;/font&gt;" style="text;html=1;align=center;verticalAlign=middle;resizable=0;points=[];autosize=1;strokeColor=none;fillColor=none;" parent="1" vertex="1">
          <mxGeometry x="180" y="2470" width="40" height="30" as="geometry" />
        </mxCell>
        <mxCell id="c3mjCf5Rib2vs3XdOX3i-277" value="&lt;font face=&quot;Times New Roman&quot;&gt;&lt;span style=&quot;font-size: 14px;&quot;&gt;40&lt;/span&gt;&lt;/font&gt;" style="text;html=1;align=center;verticalAlign=middle;resizable=0;points=[];autosize=1;strokeColor=none;fillColor=none;" parent="1" vertex="1">
          <mxGeometry x="180" y="2530" width="40" height="30" as="geometry" />
        </mxCell>
        <mxCell id="c3mjCf5Rib2vs3XdOX3i-278" value="&lt;font face=&quot;Times New Roman&quot;&gt;&lt;span style=&quot;font-size: 14px;&quot;&gt;41&lt;/span&gt;&lt;/font&gt;" style="text;html=1;align=center;verticalAlign=middle;resizable=0;points=[];autosize=1;strokeColor=none;fillColor=none;" parent="1" vertex="1">
          <mxGeometry x="180" y="2575" width="40" height="30" as="geometry" />
        </mxCell>
        <mxCell id="c3mjCf5Rib2vs3XdOX3i-279" value="&lt;font face=&quot;Times New Roman&quot;&gt;&lt;span style=&quot;font-size: 14px;&quot;&gt;42&lt;/span&gt;&lt;/font&gt;" style="text;html=1;align=center;verticalAlign=middle;resizable=0;points=[];autosize=1;strokeColor=none;fillColor=none;" parent="1" vertex="1">
          <mxGeometry x="180" y="2690" width="40" height="30" as="geometry" />
        </mxCell>
        <mxCell id="c3mjCf5Rib2vs3XdOX3i-280" value="&lt;font style=&quot;font-size: 14px;&quot; face=&quot;Times New Roman&quot;&gt;Начало&lt;/font&gt;" style="ellipse;whiteSpace=wrap;html=1;" parent="1" vertex="1">
          <mxGeometry x="120" y="3120" width="200" height="40" as="geometry" />
        </mxCell>
        <mxCell id="c3mjCf5Rib2vs3XdOX3i-281" value="&lt;font style=&quot;font-size: 14px;&quot; face=&quot;Times New Roman&quot;&gt;метод&amp;nbsp;filtByCityName класса clsRestaraunt&lt;/font&gt;" style="text;html=1;align=center;verticalAlign=middle;resizable=0;points=[];autosize=1;strokeColor=none;fillColor=none;" parent="1" vertex="1">
          <mxGeometry x="85" y="3090" width="270" height="30" as="geometry" />
        </mxCell>
        <mxCell id="c3mjCf5Rib2vs3XdOX3i-282" value="" style="endArrow=classic;html=1;rounded=0;" parent="1" edge="1">
          <mxGeometry width="50" height="50" relative="1" as="geometry">
            <mxPoint x="220" y="3160" as="sourcePoint" />
            <mxPoint x="220" y="3180" as="targetPoint" />
          </mxGeometry>
        </mxCell>
        <mxCell id="c3mjCf5Rib2vs3XdOX3i-283" value="&lt;div&gt;&lt;font face=&quot;Times New Roman&quot;&gt;&lt;span style=&quot;font-size: 14px;&quot;&gt;List&amp;lt;clsRestaraunt&amp;gt; result = new List&amp;lt;clsRestaraunt&amp;gt;();&lt;/span&gt;&lt;/font&gt;&lt;br&gt;&lt;/div&gt;" style="rounded=0;whiteSpace=wrap;html=1;" parent="1" vertex="1">
          <mxGeometry x="120" y="3180" width="200" height="40" as="geometry" />
        </mxCell>
        <mxCell id="c3mjCf5Rib2vs3XdOX3i-284" value="" style="endArrow=classic;html=1;rounded=0;" parent="1" edge="1">
          <mxGeometry width="50" height="50" relative="1" as="geometry">
            <mxPoint x="220" y="3220" as="sourcePoint" />
            <mxPoint x="220" y="3240" as="targetPoint" />
          </mxGeometry>
        </mxCell>
        <mxCell id="c3mjCf5Rib2vs3XdOX3i-285" value="&lt;font face=&quot;Times New Roman&quot;&gt;&lt;span style=&quot;font-size: 14px;&quot;&gt;var r in restaurants&lt;/span&gt;&lt;/font&gt;" style="shape=hexagon;perimeter=hexagonPerimeter2;whiteSpace=wrap;html=1;fixedSize=1;" parent="1" vertex="1">
          <mxGeometry x="120" y="3240" width="200" height="40" as="geometry" />
        </mxCell>
        <mxCell id="c3mjCf5Rib2vs3XdOX3i-286" value="" style="endArrow=classic;html=1;rounded=0;" parent="1" edge="1">
          <mxGeometry width="50" height="50" relative="1" as="geometry">
            <mxPoint x="220" y="3280" as="sourcePoint" />
            <mxPoint x="220" y="3300" as="targetPoint" />
          </mxGeometry>
        </mxCell>
        <mxCell id="c3mjCf5Rib2vs3XdOX3i-287" value="&lt;font face=&quot;Times New Roman&quot;&gt;r.City == city&lt;/font&gt;" style="rhombus;whiteSpace=wrap;html=1;" parent="1" vertex="1">
          <mxGeometry x="120" y="3300" width="200" height="40" as="geometry" />
        </mxCell>
        <mxCell id="c3mjCf5Rib2vs3XdOX3i-288" value="" style="endArrow=classic;html=1;rounded=0;" parent="1" edge="1">
          <mxGeometry width="50" height="50" relative="1" as="geometry">
            <mxPoint x="220" y="3340" as="sourcePoint" />
            <mxPoint x="220" y="3360" as="targetPoint" />
          </mxGeometry>
        </mxCell>
        <mxCell id="c3mjCf5Rib2vs3XdOX3i-289" value="&lt;div&gt;&lt;font face=&quot;Times New Roman&quot;&gt;&lt;span style=&quot;font-size: 14px;&quot;&gt;&amp;nbsp;result.Add(r);&lt;/span&gt;&lt;/font&gt;&lt;br&gt;&lt;/div&gt;" style="rounded=0;whiteSpace=wrap;html=1;" parent="1" vertex="1">
          <mxGeometry x="120" y="3360" width="200" height="40" as="geometry" />
        </mxCell>
        <mxCell id="c3mjCf5Rib2vs3XdOX3i-290" value="" style="endArrow=none;html=1;rounded=0;" parent="1" edge="1">
          <mxGeometry width="50" height="50" relative="1" as="geometry">
            <mxPoint x="220" y="3430" as="sourcePoint" />
            <mxPoint x="220" y="3400" as="targetPoint" />
          </mxGeometry>
        </mxCell>
        <mxCell id="c3mjCf5Rib2vs3XdOX3i-291" value="" style="endArrow=none;html=1;rounded=0;" parent="1" edge="1">
          <mxGeometry width="50" height="50" relative="1" as="geometry">
            <mxPoint x="320" y="3320" as="sourcePoint" />
            <mxPoint x="330" y="3320" as="targetPoint" />
          </mxGeometry>
        </mxCell>
        <mxCell id="c3mjCf5Rib2vs3XdOX3i-292" value="" style="endArrow=none;html=1;rounded=0;" parent="1" edge="1">
          <mxGeometry width="50" height="50" relative="1" as="geometry">
            <mxPoint x="330" y="3320" as="sourcePoint" />
            <mxPoint x="330" y="3420" as="targetPoint" />
          </mxGeometry>
        </mxCell>
        <mxCell id="c3mjCf5Rib2vs3XdOX3i-293" value="" style="endArrow=classic;html=1;rounded=0;" parent="1" edge="1">
          <mxGeometry width="50" height="50" relative="1" as="geometry">
            <mxPoint x="330" y="3420" as="sourcePoint" />
            <mxPoint x="220" y="3420" as="targetPoint" />
          </mxGeometry>
        </mxCell>
        <mxCell id="c3mjCf5Rib2vs3XdOX3i-294" value="" style="endArrow=none;html=1;rounded=0;" parent="1" edge="1">
          <mxGeometry width="50" height="50" relative="1" as="geometry">
            <mxPoint x="110" y="3430" as="sourcePoint" />
            <mxPoint x="220" y="3430" as="targetPoint" />
          </mxGeometry>
        </mxCell>
        <mxCell id="c3mjCf5Rib2vs3XdOX3i-295" value="" style="endArrow=none;html=1;rounded=0;" parent="1" edge="1">
          <mxGeometry width="50" height="50" relative="1" as="geometry">
            <mxPoint x="110" y="3430" as="sourcePoint" />
            <mxPoint x="110" y="3260" as="targetPoint" />
          </mxGeometry>
        </mxCell>
        <mxCell id="c3mjCf5Rib2vs3XdOX3i-296" value="" style="endArrow=classic;html=1;rounded=0;entryX=0;entryY=0.5;entryDx=0;entryDy=0;" parent="1" target="c3mjCf5Rib2vs3XdOX3i-285" edge="1">
          <mxGeometry width="50" height="50" relative="1" as="geometry">
            <mxPoint x="110" y="3260" as="sourcePoint" />
            <mxPoint x="160" y="3210" as="targetPoint" />
          </mxGeometry>
        </mxCell>
        <mxCell id="c3mjCf5Rib2vs3XdOX3i-297" value="" style="endArrow=none;html=1;rounded=0;" parent="1" edge="1">
          <mxGeometry width="50" height="50" relative="1" as="geometry">
            <mxPoint x="320" y="3260" as="sourcePoint" />
            <mxPoint x="340" y="3260" as="targetPoint" />
          </mxGeometry>
        </mxCell>
        <mxCell id="c3mjCf5Rib2vs3XdOX3i-298" value="" style="endArrow=none;html=1;rounded=0;" parent="1" edge="1">
          <mxGeometry width="50" height="50" relative="1" as="geometry">
            <mxPoint x="340" y="3260" as="sourcePoint" />
            <mxPoint x="340" y="3440" as="targetPoint" />
          </mxGeometry>
        </mxCell>
        <mxCell id="c3mjCf5Rib2vs3XdOX3i-299" value="" style="endArrow=none;html=1;rounded=0;" parent="1" edge="1">
          <mxGeometry width="50" height="50" relative="1" as="geometry">
            <mxPoint x="220" y="3440" as="sourcePoint" />
            <mxPoint x="340" y="3440" as="targetPoint" />
          </mxGeometry>
        </mxCell>
        <mxCell id="c3mjCf5Rib2vs3XdOX3i-300" value="" style="endArrow=classic;html=1;rounded=0;" parent="1" edge="1">
          <mxGeometry width="50" height="50" relative="1" as="geometry">
            <mxPoint x="220" y="3440" as="sourcePoint" />
            <mxPoint x="220" y="3460" as="targetPoint" />
          </mxGeometry>
        </mxCell>
        <mxCell id="c3mjCf5Rib2vs3XdOX3i-301" value="&lt;font style=&quot;font-size: 14px;&quot; face=&quot;Times New Roman&quot;&gt;True&lt;/font&gt;" style="text;html=1;align=center;verticalAlign=middle;resizable=0;points=[];autosize=1;strokeColor=none;fillColor=none;" parent="1" vertex="1">
          <mxGeometry x="215" y="3330" width="50" height="30" as="geometry" />
        </mxCell>
        <mxCell id="c3mjCf5Rib2vs3XdOX3i-302" value="&lt;font style=&quot;font-size: 14px;&quot; face=&quot;Times New Roman&quot;&gt;False&lt;/font&gt;" style="text;html=1;align=center;verticalAlign=middle;resizable=0;points=[];autosize=1;strokeColor=none;fillColor=none;" parent="1" vertex="1">
          <mxGeometry x="300" y="3290" width="50" height="30" as="geometry" />
        </mxCell>
        <mxCell id="c3mjCf5Rib2vs3XdOX3i-303" value="&lt;div&gt;&lt;font face=&quot;Times New Roman&quot;&gt;&lt;span style=&quot;font-size: 14px;&quot;&gt;return result;&lt;/span&gt;&lt;/font&gt;&lt;br&gt;&lt;/div&gt;" style="rounded=0;whiteSpace=wrap;html=1;" parent="1" vertex="1">
          <mxGeometry x="120" y="3460" width="200" height="20" as="geometry" />
        </mxCell>
        <mxCell id="c3mjCf5Rib2vs3XdOX3i-304" value="" style="endArrow=classic;html=1;rounded=0;" parent="1" edge="1">
          <mxGeometry width="50" height="50" relative="1" as="geometry">
            <mxPoint x="220" y="3480" as="sourcePoint" />
            <mxPoint x="220" y="3500" as="targetPoint" />
          </mxGeometry>
        </mxCell>
        <mxCell id="c3mjCf5Rib2vs3XdOX3i-305" value="&lt;font face=&quot;Times New Roman&quot;&gt;&lt;span style=&quot;font-size: 14px;&quot;&gt;Конец&lt;/span&gt;&lt;/font&gt;" style="ellipse;whiteSpace=wrap;html=1;" parent="1" vertex="1">
          <mxGeometry x="120" y="3500" width="200" height="40" as="geometry" />
        </mxCell>
        <mxCell id="c3mjCf5Rib2vs3XdOX3i-306" value="&lt;font face=&quot;Times New Roman&quot;&gt;&lt;span style=&quot;font-size: 14px;&quot;&gt;29.1&lt;/span&gt;&lt;/font&gt;" style="text;html=1;align=center;verticalAlign=middle;resizable=0;points=[];autosize=1;strokeColor=none;fillColor=none;" parent="1" vertex="1">
          <mxGeometry x="60" y="3130" width="50" height="30" as="geometry" />
        </mxCell>
        <mxCell id="c3mjCf5Rib2vs3XdOX3i-307" value="&lt;font face=&quot;Times New Roman&quot;&gt;&lt;span style=&quot;font-size: 14px;&quot;&gt;29.2&lt;/span&gt;&lt;/font&gt;" style="text;html=1;align=center;verticalAlign=middle;resizable=0;points=[];autosize=1;strokeColor=none;fillColor=none;" parent="1" vertex="1">
          <mxGeometry x="60" y="3190" width="50" height="30" as="geometry" />
        </mxCell>
        <mxCell id="c3mjCf5Rib2vs3XdOX3i-308" value="&lt;font face=&quot;Times New Roman&quot;&gt;&lt;span style=&quot;font-size: 14px;&quot;&gt;29.3&lt;/span&gt;&lt;/font&gt;" style="text;html=1;align=center;verticalAlign=middle;resizable=0;points=[];autosize=1;strokeColor=none;fillColor=none;" parent="1" vertex="1">
          <mxGeometry x="60" y="3250" width="50" height="30" as="geometry" />
        </mxCell>
        <mxCell id="c3mjCf5Rib2vs3XdOX3i-309" value="&lt;font face=&quot;Times New Roman&quot;&gt;&lt;span style=&quot;font-size: 14px;&quot;&gt;29.4&lt;/span&gt;&lt;/font&gt;" style="text;html=1;align=center;verticalAlign=middle;resizable=0;points=[];autosize=1;strokeColor=none;fillColor=none;" parent="1" vertex="1">
          <mxGeometry x="60" y="3310" width="50" height="30" as="geometry" />
        </mxCell>
        <mxCell id="c3mjCf5Rib2vs3XdOX3i-310" value="&lt;font face=&quot;Times New Roman&quot;&gt;&lt;span style=&quot;font-size: 14px;&quot;&gt;29.5&lt;/span&gt;&lt;/font&gt;" style="text;html=1;align=center;verticalAlign=middle;resizable=0;points=[];autosize=1;strokeColor=none;fillColor=none;" parent="1" vertex="1">
          <mxGeometry x="60" y="3370" width="50" height="30" as="geometry" />
        </mxCell>
        <mxCell id="c3mjCf5Rib2vs3XdOX3i-311" value="&lt;font face=&quot;Times New Roman&quot;&gt;&lt;span style=&quot;font-size: 14px;&quot;&gt;29.6&lt;/span&gt;&lt;/font&gt;" style="text;html=1;align=center;verticalAlign=middle;resizable=0;points=[];autosize=1;strokeColor=none;fillColor=none;" parent="1" vertex="1">
          <mxGeometry x="60" y="3450" width="50" height="30" as="geometry" />
        </mxCell>
        <mxCell id="c3mjCf5Rib2vs3XdOX3i-312" value="&lt;font face=&quot;Times New Roman&quot;&gt;&lt;span style=&quot;font-size: 14px;&quot;&gt;29.7&lt;/span&gt;&lt;/font&gt;" style="text;html=1;align=center;verticalAlign=middle;resizable=0;points=[];autosize=1;strokeColor=none;fillColor=none;" parent="1" vertex="1">
          <mxGeometry x="60" y="3510" width="50" height="30" as="geometry" />
        </mxCell>
        <mxCell id="c3mjCf5Rib2vs3XdOX3i-313" value="&lt;font style=&quot;&quot; face=&quot;Times New Roman&quot;&gt;&lt;span style=&quot;font-size: 14px;&quot;&gt;метод filtByRate&amp;nbsp;класса clsRestaraunt&lt;/span&gt;&lt;/font&gt;" style="text;html=1;align=center;verticalAlign=middle;resizable=0;points=[];autosize=1;strokeColor=none;fillColor=none;" parent="1" vertex="1">
          <mxGeometry x="460" y="3090" width="240" height="30" as="geometry" />
        </mxCell>
        <mxCell id="c3mjCf5Rib2vs3XdOX3i-314" value="&lt;font style=&quot;font-size: 14px;&quot; face=&quot;Times New Roman&quot;&gt;Начало&lt;/font&gt;" style="ellipse;whiteSpace=wrap;html=1;" parent="1" vertex="1">
          <mxGeometry x="480" y="3120" width="200" height="40" as="geometry" />
        </mxCell>
        <mxCell id="c3mjCf5Rib2vs3XdOX3i-315" value="" style="endArrow=classic;html=1;rounded=0;" parent="1" edge="1">
          <mxGeometry width="50" height="50" relative="1" as="geometry">
            <mxPoint x="579.5799999999999" y="3160" as="sourcePoint" />
            <mxPoint x="579.5799999999999" y="3180" as="targetPoint" />
          </mxGeometry>
        </mxCell>
        <mxCell id="c3mjCf5Rib2vs3XdOX3i-316" value="&lt;div&gt;&lt;font face=&quot;Times New Roman&quot;&gt;&lt;span style=&quot;font-size: 14px;&quot;&gt;List&amp;lt;clsRestaraunt&amp;gt; result = new List&amp;lt;clsRestaraunt&amp;gt;();&lt;/span&gt;&lt;/font&gt;&lt;br&gt;&lt;/div&gt;" style="rounded=0;whiteSpace=wrap;html=1;" parent="1" vertex="1">
          <mxGeometry x="480" y="3180" width="200" height="40" as="geometry" />
        </mxCell>
        <mxCell id="c3mjCf5Rib2vs3XdOX3i-317" value="" style="endArrow=classic;html=1;rounded=0;" parent="1" edge="1">
          <mxGeometry width="50" height="50" relative="1" as="geometry">
            <mxPoint x="579.4999999999999" y="3220" as="sourcePoint" />
            <mxPoint x="579.4999999999999" y="3240" as="targetPoint" />
          </mxGeometry>
        </mxCell>
        <mxCell id="c3mjCf5Rib2vs3XdOX3i-318" value="&lt;font face=&quot;Times New Roman&quot;&gt;&lt;span style=&quot;font-size: 14px;&quot;&gt;var r in restaurants&lt;/span&gt;&lt;/font&gt;" style="shape=hexagon;perimeter=hexagonPerimeter2;whiteSpace=wrap;html=1;fixedSize=1;" parent="1" vertex="1">
          <mxGeometry x="480" y="3240" width="200" height="40" as="geometry" />
        </mxCell>
        <mxCell id="c3mjCf5Rib2vs3XdOX3i-319" value="" style="endArrow=classic;html=1;rounded=0;" parent="1" edge="1">
          <mxGeometry width="50" height="50" relative="1" as="geometry">
            <mxPoint x="579.5799999999999" y="3280" as="sourcePoint" />
            <mxPoint x="579.5799999999999" y="3300" as="targetPoint" />
          </mxGeometry>
        </mxCell>
        <mxCell id="c3mjCf5Rib2vs3XdOX3i-321" value="&lt;font face=&quot;Times New Roman&quot;&gt;r.Rating == rate&lt;/font&gt;" style="rhombus;whiteSpace=wrap;html=1;" parent="1" vertex="1">
          <mxGeometry x="480" y="3300" width="200" height="40" as="geometry" />
        </mxCell>
        <mxCell id="c3mjCf5Rib2vs3XdOX3i-322" value="" style="endArrow=classic;html=1;rounded=0;" parent="1" edge="1">
          <mxGeometry width="50" height="50" relative="1" as="geometry">
            <mxPoint x="580" y="3340" as="sourcePoint" />
            <mxPoint x="580" y="3360" as="targetPoint" />
          </mxGeometry>
        </mxCell>
        <mxCell id="c3mjCf5Rib2vs3XdOX3i-323" value="&lt;div&gt;&lt;font face=&quot;Times New Roman&quot;&gt;&lt;span style=&quot;font-size: 14px;&quot;&gt;&amp;nbsp;result.Add(r);&lt;/span&gt;&lt;/font&gt;&lt;br&gt;&lt;/div&gt;" style="rounded=0;whiteSpace=wrap;html=1;" parent="1" vertex="1">
          <mxGeometry x="480" y="3360" width="200" height="40" as="geometry" />
        </mxCell>
        <mxCell id="c3mjCf5Rib2vs3XdOX3i-324" value="" style="endArrow=none;html=1;rounded=0;" parent="1" edge="1">
          <mxGeometry width="50" height="50" relative="1" as="geometry">
            <mxPoint x="580" y="3430" as="sourcePoint" />
            <mxPoint x="580" y="3400" as="targetPoint" />
          </mxGeometry>
        </mxCell>
        <mxCell id="c3mjCf5Rib2vs3XdOX3i-325" value="" style="endArrow=none;html=1;rounded=0;" parent="1" edge="1">
          <mxGeometry width="50" height="50" relative="1" as="geometry">
            <mxPoint x="690" y="3320" as="sourcePoint" />
            <mxPoint x="690" y="3420" as="targetPoint" />
          </mxGeometry>
        </mxCell>
        <mxCell id="c3mjCf5Rib2vs3XdOX3i-326" value="" style="endArrow=classic;html=1;rounded=0;" parent="1" edge="1">
          <mxGeometry width="50" height="50" relative="1" as="geometry">
            <mxPoint x="690" y="3420" as="sourcePoint" />
            <mxPoint x="580" y="3420" as="targetPoint" />
          </mxGeometry>
        </mxCell>
        <mxCell id="c3mjCf5Rib2vs3XdOX3i-327" value="&lt;font style=&quot;font-size: 14px;&quot; face=&quot;Times New Roman&quot;&gt;True&lt;/font&gt;" style="text;html=1;align=center;verticalAlign=middle;resizable=0;points=[];autosize=1;strokeColor=none;fillColor=none;" parent="1" vertex="1">
          <mxGeometry x="595" y="3330" width="50" height="30" as="geometry" />
        </mxCell>
        <mxCell id="c3mjCf5Rib2vs3XdOX3i-328" value="&lt;font style=&quot;font-size: 14px;&quot; face=&quot;Times New Roman&quot;&gt;False&lt;/font&gt;" style="text;html=1;align=center;verticalAlign=middle;resizable=0;points=[];autosize=1;strokeColor=none;fillColor=none;" parent="1" vertex="1">
          <mxGeometry x="645" y="3290" width="50" height="30" as="geometry" />
        </mxCell>
        <mxCell id="c3mjCf5Rib2vs3XdOX3i-329" value="" style="endArrow=none;html=1;rounded=0;entryX=0.925;entryY=0.99;entryDx=0;entryDy=0;entryPerimeter=0;" parent="1" target="c3mjCf5Rib2vs3XdOX3i-328" edge="1">
          <mxGeometry width="50" height="50" relative="1" as="geometry">
            <mxPoint x="680" y="3320" as="sourcePoint" />
            <mxPoint x="730" y="3270" as="targetPoint" />
          </mxGeometry>
        </mxCell>
        <mxCell id="c3mjCf5Rib2vs3XdOX3i-330" value="" style="endArrow=none;html=1;rounded=0;" parent="1" edge="1">
          <mxGeometry width="50" height="50" relative="1" as="geometry">
            <mxPoint x="470" y="3430" as="sourcePoint" />
            <mxPoint x="580" y="3430" as="targetPoint" />
          </mxGeometry>
        </mxCell>
        <mxCell id="c3mjCf5Rib2vs3XdOX3i-331" value="" style="endArrow=none;html=1;rounded=0;" parent="1" edge="1">
          <mxGeometry width="50" height="50" relative="1" as="geometry">
            <mxPoint x="470" y="3430" as="sourcePoint" />
            <mxPoint x="470" y="3260" as="targetPoint" />
          </mxGeometry>
        </mxCell>
        <mxCell id="c3mjCf5Rib2vs3XdOX3i-332" value="" style="endArrow=classic;html=1;rounded=0;entryX=0;entryY=0.5;entryDx=0;entryDy=0;" parent="1" target="c3mjCf5Rib2vs3XdOX3i-318" edge="1">
          <mxGeometry width="50" height="50" relative="1" as="geometry">
            <mxPoint x="470" y="3260" as="sourcePoint" />
            <mxPoint x="520" y="3210" as="targetPoint" />
          </mxGeometry>
        </mxCell>
        <mxCell id="c3mjCf5Rib2vs3XdOX3i-333" value="" style="endArrow=none;html=1;rounded=0;" parent="1" edge="1">
          <mxGeometry width="50" height="50" relative="1" as="geometry">
            <mxPoint x="680" y="3260" as="sourcePoint" />
            <mxPoint x="700" y="3260" as="targetPoint" />
          </mxGeometry>
        </mxCell>
        <mxCell id="c3mjCf5Rib2vs3XdOX3i-334" value="" style="endArrow=none;html=1;rounded=0;" parent="1" edge="1">
          <mxGeometry width="50" height="50" relative="1" as="geometry">
            <mxPoint x="700" y="3260" as="sourcePoint" />
            <mxPoint x="700" y="3440" as="targetPoint" />
          </mxGeometry>
        </mxCell>
        <mxCell id="c3mjCf5Rib2vs3XdOX3i-335" value="" style="endArrow=none;html=1;rounded=0;" parent="1" edge="1">
          <mxGeometry width="50" height="50" relative="1" as="geometry">
            <mxPoint x="580" y="3440" as="sourcePoint" />
            <mxPoint x="700" y="3440" as="targetPoint" />
          </mxGeometry>
        </mxCell>
        <mxCell id="c3mjCf5Rib2vs3XdOX3i-336" value="" style="endArrow=classic;html=1;rounded=0;" parent="1" edge="1">
          <mxGeometry width="50" height="50" relative="1" as="geometry">
            <mxPoint x="580" y="3440" as="sourcePoint" />
            <mxPoint x="580" y="3460" as="targetPoint" />
          </mxGeometry>
        </mxCell>
        <mxCell id="c3mjCf5Rib2vs3XdOX3i-337" value="&lt;div&gt;&lt;font face=&quot;Times New Roman&quot;&gt;&lt;span style=&quot;font-size: 14px;&quot;&gt;return result;&lt;/span&gt;&lt;/font&gt;&lt;br&gt;&lt;/div&gt;" style="rounded=0;whiteSpace=wrap;html=1;" parent="1" vertex="1">
          <mxGeometry x="480" y="3460" width="200" height="20" as="geometry" />
        </mxCell>
        <mxCell id="c3mjCf5Rib2vs3XdOX3i-338" value="" style="endArrow=classic;html=1;rounded=0;" parent="1" edge="1">
          <mxGeometry width="50" height="50" relative="1" as="geometry">
            <mxPoint x="579.66" y="3480" as="sourcePoint" />
            <mxPoint x="579.66" y="3500" as="targetPoint" />
          </mxGeometry>
        </mxCell>
        <mxCell id="c3mjCf5Rib2vs3XdOX3i-339" value="&lt;font face=&quot;Times New Roman&quot;&gt;&lt;span style=&quot;font-size: 14px;&quot;&gt;Конец&lt;/span&gt;&lt;/font&gt;" style="ellipse;whiteSpace=wrap;html=1;" parent="1" vertex="1">
          <mxGeometry x="480" y="3500" width="200" height="40" as="geometry" />
        </mxCell>
        <mxCell id="c3mjCf5Rib2vs3XdOX3i-340" value="&lt;font face=&quot;Times New Roman&quot;&gt;&lt;span style=&quot;font-size: 14px;&quot;&gt;30.1&lt;/span&gt;&lt;/font&gt;" style="text;html=1;align=center;verticalAlign=middle;resizable=0;points=[];autosize=1;strokeColor=none;fillColor=none;" parent="1" vertex="1">
          <mxGeometry x="414" y="3130" width="50" height="30" as="geometry" />
        </mxCell>
        <mxCell id="c3mjCf5Rib2vs3XdOX3i-341" value="&lt;font face=&quot;Times New Roman&quot;&gt;&lt;span style=&quot;font-size: 14px;&quot;&gt;30.2&lt;/span&gt;&lt;/font&gt;" style="text;html=1;align=center;verticalAlign=middle;resizable=0;points=[];autosize=1;strokeColor=none;fillColor=none;" parent="1" vertex="1">
          <mxGeometry x="414" y="3190" width="50" height="30" as="geometry" />
        </mxCell>
        <mxCell id="c3mjCf5Rib2vs3XdOX3i-342" value="&lt;font face=&quot;Times New Roman&quot;&gt;&lt;span style=&quot;font-size: 14px;&quot;&gt;30.3&lt;/span&gt;&lt;/font&gt;" style="text;html=1;align=center;verticalAlign=middle;resizable=0;points=[];autosize=1;strokeColor=none;fillColor=none;" parent="1" vertex="1">
          <mxGeometry x="414" y="3250" width="50" height="30" as="geometry" />
        </mxCell>
        <mxCell id="c3mjCf5Rib2vs3XdOX3i-343" value="&lt;font face=&quot;Times New Roman&quot;&gt;&lt;span style=&quot;font-size: 14px;&quot;&gt;30.4&lt;/span&gt;&lt;/font&gt;" style="text;html=1;align=center;verticalAlign=middle;resizable=0;points=[];autosize=1;strokeColor=none;fillColor=none;" parent="1" vertex="1">
          <mxGeometry x="414" y="3330" width="50" height="30" as="geometry" />
        </mxCell>
        <mxCell id="c3mjCf5Rib2vs3XdOX3i-344" value="&lt;font face=&quot;Times New Roman&quot;&gt;&lt;span style=&quot;font-size: 14px;&quot;&gt;30.5&lt;/span&gt;&lt;/font&gt;" style="text;html=1;align=center;verticalAlign=middle;resizable=0;points=[];autosize=1;strokeColor=none;fillColor=none;" parent="1" vertex="1">
          <mxGeometry x="414" y="3370" width="50" height="30" as="geometry" />
        </mxCell>
        <mxCell id="c3mjCf5Rib2vs3XdOX3i-345" value="&lt;font face=&quot;Times New Roman&quot;&gt;&lt;span style=&quot;font-size: 14px;&quot;&gt;30.6&lt;/span&gt;&lt;/font&gt;" style="text;html=1;align=center;verticalAlign=middle;resizable=0;points=[];autosize=1;strokeColor=none;fillColor=none;" parent="1" vertex="1">
          <mxGeometry x="414" y="3450" width="50" height="30" as="geometry" />
        </mxCell>
        <mxCell id="c3mjCf5Rib2vs3XdOX3i-346" value="&lt;font face=&quot;Times New Roman&quot;&gt;&lt;span style=&quot;font-size: 14px;&quot;&gt;30.7&lt;/span&gt;&lt;/font&gt;" style="text;html=1;align=center;verticalAlign=middle;resizable=0;points=[];autosize=1;strokeColor=none;fillColor=none;" parent="1" vertex="1">
          <mxGeometry x="414" y="3510" width="50" height="30" as="geometry" />
        </mxCell>
        <mxCell id="c3mjCf5Rib2vs3XdOX3i-347" value="&lt;font style=&quot;&quot; face=&quot;Times New Roman&quot;&gt;&lt;span style=&quot;font-size: 14px;&quot;&gt;метод filtByCuisine&amp;nbsp;класса clsRestaraunt&lt;/span&gt;&lt;/font&gt;" style="text;html=1;align=center;verticalAlign=middle;resizable=0;points=[];autosize=1;strokeColor=none;fillColor=none;" parent="1" vertex="1">
          <mxGeometry x="112.57999999999998" y="3600" width="260" height="30" as="geometry" />
        </mxCell>
        <mxCell id="c3mjCf5Rib2vs3XdOX3i-348" value="&lt;font style=&quot;font-size: 14px;&quot; face=&quot;Times New Roman&quot;&gt;Начало&lt;/font&gt;" style="ellipse;whiteSpace=wrap;html=1;" parent="1" vertex="1">
          <mxGeometry x="142.57999999999998" y="3630" width="200" height="40" as="geometry" />
        </mxCell>
        <mxCell id="c3mjCf5Rib2vs3XdOX3i-349" value="" style="endArrow=classic;html=1;rounded=0;" parent="1" edge="1">
          <mxGeometry width="50" height="50" relative="1" as="geometry">
            <mxPoint x="242.1599999999999" y="3670" as="sourcePoint" />
            <mxPoint x="242.1599999999999" y="3690" as="targetPoint" />
          </mxGeometry>
        </mxCell>
        <mxCell id="c3mjCf5Rib2vs3XdOX3i-350" value="&lt;div&gt;&lt;font face=&quot;Times New Roman&quot;&gt;&lt;span style=&quot;font-size: 14px;&quot;&gt;List&amp;lt;clsRestaraunt&amp;gt; result = new List&amp;lt;clsRestaraunt&amp;gt;();&lt;/span&gt;&lt;/font&gt;&lt;br&gt;&lt;/div&gt;" style="rounded=0;whiteSpace=wrap;html=1;" parent="1" vertex="1">
          <mxGeometry x="142.57999999999998" y="3690" width="200" height="40" as="geometry" />
        </mxCell>
        <mxCell id="c3mjCf5Rib2vs3XdOX3i-351" value="" style="endArrow=classic;html=1;rounded=0;" parent="1" edge="1">
          <mxGeometry width="50" height="50" relative="1" as="geometry">
            <mxPoint x="242.07999999999987" y="3730" as="sourcePoint" />
            <mxPoint x="242.07999999999987" y="3750" as="targetPoint" />
          </mxGeometry>
        </mxCell>
        <mxCell id="c3mjCf5Rib2vs3XdOX3i-352" value="&lt;font face=&quot;Times New Roman&quot;&gt;&lt;span style=&quot;font-size: 14px;&quot;&gt;var r in restaurants&lt;/span&gt;&lt;/font&gt;" style="shape=hexagon;perimeter=hexagonPerimeter2;whiteSpace=wrap;html=1;fixedSize=1;" parent="1" vertex="1">
          <mxGeometry x="142.57999999999998" y="3750" width="200" height="40" as="geometry" />
        </mxCell>
        <mxCell id="c3mjCf5Rib2vs3XdOX3i-353" value="" style="endArrow=classic;html=1;rounded=0;" parent="1" edge="1">
          <mxGeometry width="50" height="50" relative="1" as="geometry">
            <mxPoint x="242.1599999999999" y="3790" as="sourcePoint" />
            <mxPoint x="242.1599999999999" y="3810" as="targetPoint" />
          </mxGeometry>
        </mxCell>
        <mxCell id="c3mjCf5Rib2vs3XdOX3i-354" value="&lt;font face=&quot;Times New Roman&quot;&gt;r.Cuisine == cuisine&lt;/font&gt;" style="rhombus;whiteSpace=wrap;html=1;" parent="1" vertex="1">
          <mxGeometry x="142.57999999999998" y="3810" width="200" height="40" as="geometry" />
        </mxCell>
        <mxCell id="c3mjCf5Rib2vs3XdOX3i-355" value="" style="endArrow=classic;html=1;rounded=0;" parent="1" edge="1">
          <mxGeometry width="50" height="50" relative="1" as="geometry">
            <mxPoint x="242.57999999999998" y="3850" as="sourcePoint" />
            <mxPoint x="242.57999999999998" y="3870" as="targetPoint" />
          </mxGeometry>
        </mxCell>
        <mxCell id="c3mjCf5Rib2vs3XdOX3i-356" value="&lt;div&gt;&lt;font face=&quot;Times New Roman&quot;&gt;&lt;span style=&quot;font-size: 14px;&quot;&gt;&amp;nbsp;result.Add(r);&lt;/span&gt;&lt;/font&gt;&lt;br&gt;&lt;/div&gt;" style="rounded=0;whiteSpace=wrap;html=1;" parent="1" vertex="1">
          <mxGeometry x="142.57999999999998" y="3870" width="200" height="40" as="geometry" />
        </mxCell>
        <mxCell id="c3mjCf5Rib2vs3XdOX3i-357" value="" style="endArrow=none;html=1;rounded=0;" parent="1" edge="1">
          <mxGeometry width="50" height="50" relative="1" as="geometry">
            <mxPoint x="242.57999999999998" y="3940" as="sourcePoint" />
            <mxPoint x="242.57999999999998" y="3910" as="targetPoint" />
          </mxGeometry>
        </mxCell>
        <mxCell id="c3mjCf5Rib2vs3XdOX3i-358" value="" style="endArrow=none;html=1;rounded=0;" parent="1" edge="1">
          <mxGeometry width="50" height="50" relative="1" as="geometry">
            <mxPoint x="352.58" y="3830" as="sourcePoint" />
            <mxPoint x="352.58" y="3930" as="targetPoint" />
          </mxGeometry>
        </mxCell>
        <mxCell id="c3mjCf5Rib2vs3XdOX3i-359" value="" style="endArrow=classic;html=1;rounded=0;" parent="1" edge="1">
          <mxGeometry width="50" height="50" relative="1" as="geometry">
            <mxPoint x="352.58" y="3930" as="sourcePoint" />
            <mxPoint x="242.57999999999998" y="3930" as="targetPoint" />
          </mxGeometry>
        </mxCell>
        <mxCell id="c3mjCf5Rib2vs3XdOX3i-360" value="&lt;font style=&quot;font-size: 14px;&quot; face=&quot;Times New Roman&quot;&gt;True&lt;/font&gt;" style="text;html=1;align=center;verticalAlign=middle;resizable=0;points=[];autosize=1;strokeColor=none;fillColor=none;" parent="1" vertex="1">
          <mxGeometry x="257.58" y="3840" width="50" height="30" as="geometry" />
        </mxCell>
        <mxCell id="c3mjCf5Rib2vs3XdOX3i-361" value="&lt;font style=&quot;font-size: 14px;&quot; face=&quot;Times New Roman&quot;&gt;False&lt;/font&gt;" style="text;html=1;align=center;verticalAlign=middle;resizable=0;points=[];autosize=1;strokeColor=none;fillColor=none;" parent="1" vertex="1">
          <mxGeometry x="307.58" y="3800" width="50" height="30" as="geometry" />
        </mxCell>
        <mxCell id="c3mjCf5Rib2vs3XdOX3i-362" value="" style="endArrow=none;html=1;rounded=0;entryX=0.925;entryY=0.99;entryDx=0;entryDy=0;entryPerimeter=0;" parent="1" target="c3mjCf5Rib2vs3XdOX3i-361" edge="1">
          <mxGeometry width="50" height="50" relative="1" as="geometry">
            <mxPoint x="342.58" y="3830" as="sourcePoint" />
            <mxPoint x="392.58" y="3780" as="targetPoint" />
          </mxGeometry>
        </mxCell>
        <mxCell id="c3mjCf5Rib2vs3XdOX3i-363" value="" style="endArrow=none;html=1;rounded=0;" parent="1" edge="1">
          <mxGeometry width="50" height="50" relative="1" as="geometry">
            <mxPoint x="132.57999999999998" y="3940" as="sourcePoint" />
            <mxPoint x="242.57999999999998" y="3940" as="targetPoint" />
          </mxGeometry>
        </mxCell>
        <mxCell id="c3mjCf5Rib2vs3XdOX3i-364" value="" style="endArrow=none;html=1;rounded=0;" parent="1" edge="1">
          <mxGeometry width="50" height="50" relative="1" as="geometry">
            <mxPoint x="132.57999999999998" y="3940" as="sourcePoint" />
            <mxPoint x="132.57999999999998" y="3770" as="targetPoint" />
          </mxGeometry>
        </mxCell>
        <mxCell id="c3mjCf5Rib2vs3XdOX3i-365" value="" style="endArrow=classic;html=1;rounded=0;entryX=0;entryY=0.5;entryDx=0;entryDy=0;" parent="1" target="c3mjCf5Rib2vs3XdOX3i-352" edge="1">
          <mxGeometry width="50" height="50" relative="1" as="geometry">
            <mxPoint x="132.57999999999998" y="3770" as="sourcePoint" />
            <mxPoint x="182.57999999999998" y="3720" as="targetPoint" />
          </mxGeometry>
        </mxCell>
        <mxCell id="c3mjCf5Rib2vs3XdOX3i-366" value="" style="endArrow=none;html=1;rounded=0;" parent="1" edge="1">
          <mxGeometry width="50" height="50" relative="1" as="geometry">
            <mxPoint x="342.58" y="3770" as="sourcePoint" />
            <mxPoint x="362.58" y="3770" as="targetPoint" />
          </mxGeometry>
        </mxCell>
        <mxCell id="c3mjCf5Rib2vs3XdOX3i-367" value="" style="endArrow=none;html=1;rounded=0;" parent="1" edge="1">
          <mxGeometry width="50" height="50" relative="1" as="geometry">
            <mxPoint x="362.58" y="3770" as="sourcePoint" />
            <mxPoint x="362.58" y="3950" as="targetPoint" />
          </mxGeometry>
        </mxCell>
        <mxCell id="c3mjCf5Rib2vs3XdOX3i-368" value="" style="endArrow=none;html=1;rounded=0;" parent="1" edge="1">
          <mxGeometry width="50" height="50" relative="1" as="geometry">
            <mxPoint x="242.57999999999998" y="3950" as="sourcePoint" />
            <mxPoint x="362.58" y="3950" as="targetPoint" />
          </mxGeometry>
        </mxCell>
        <mxCell id="c3mjCf5Rib2vs3XdOX3i-369" value="" style="endArrow=classic;html=1;rounded=0;" parent="1" edge="1">
          <mxGeometry width="50" height="50" relative="1" as="geometry">
            <mxPoint x="242.57999999999998" y="3950" as="sourcePoint" />
            <mxPoint x="242.57999999999998" y="3970" as="targetPoint" />
          </mxGeometry>
        </mxCell>
        <mxCell id="c3mjCf5Rib2vs3XdOX3i-370" value="&lt;div&gt;&lt;font face=&quot;Times New Roman&quot;&gt;&lt;span style=&quot;font-size: 14px;&quot;&gt;return result;&lt;/span&gt;&lt;/font&gt;&lt;br&gt;&lt;/div&gt;" style="rounded=0;whiteSpace=wrap;html=1;" parent="1" vertex="1">
          <mxGeometry x="142.57999999999998" y="3970" width="200" height="20" as="geometry" />
        </mxCell>
        <mxCell id="c3mjCf5Rib2vs3XdOX3i-371" value="" style="endArrow=classic;html=1;rounded=0;" parent="1" edge="1">
          <mxGeometry width="50" height="50" relative="1" as="geometry">
            <mxPoint x="242.23999999999995" y="3990" as="sourcePoint" />
            <mxPoint x="242.23999999999995" y="4010" as="targetPoint" />
          </mxGeometry>
        </mxCell>
        <mxCell id="c3mjCf5Rib2vs3XdOX3i-372" value="&lt;font face=&quot;Times New Roman&quot;&gt;&lt;span style=&quot;font-size: 14px;&quot;&gt;Конец&lt;/span&gt;&lt;/font&gt;" style="ellipse;whiteSpace=wrap;html=1;" parent="1" vertex="1">
          <mxGeometry x="142.57999999999998" y="4010" width="200" height="40" as="geometry" />
        </mxCell>
        <mxCell id="c3mjCf5Rib2vs3XdOX3i-373" value="&lt;font face=&quot;Times New Roman&quot;&gt;&lt;span style=&quot;font-size: 14px;&quot;&gt;31.1&lt;/span&gt;&lt;/font&gt;" style="text;html=1;align=center;verticalAlign=middle;resizable=0;points=[];autosize=1;strokeColor=none;fillColor=none;" parent="1" vertex="1">
          <mxGeometry x="76.57999999999998" y="3640" width="50" height="30" as="geometry" />
        </mxCell>
        <mxCell id="c3mjCf5Rib2vs3XdOX3i-374" value="&lt;font face=&quot;Times New Roman&quot;&gt;&lt;span style=&quot;font-size: 14px;&quot;&gt;31.2&lt;/span&gt;&lt;/font&gt;" style="text;html=1;align=center;verticalAlign=middle;resizable=0;points=[];autosize=1;strokeColor=none;fillColor=none;" parent="1" vertex="1">
          <mxGeometry x="76.57999999999998" y="3700" width="50" height="30" as="geometry" />
        </mxCell>
        <mxCell id="c3mjCf5Rib2vs3XdOX3i-375" value="&lt;font face=&quot;Times New Roman&quot;&gt;&lt;span style=&quot;font-size: 14px;&quot;&gt;31.3&lt;/span&gt;&lt;/font&gt;" style="text;html=1;align=center;verticalAlign=middle;resizable=0;points=[];autosize=1;strokeColor=none;fillColor=none;" parent="1" vertex="1">
          <mxGeometry x="76.57999999999998" y="3760" width="50" height="30" as="geometry" />
        </mxCell>
        <mxCell id="c3mjCf5Rib2vs3XdOX3i-376" value="&lt;font face=&quot;Times New Roman&quot;&gt;&lt;span style=&quot;font-size: 14px;&quot;&gt;31.4&lt;/span&gt;&lt;/font&gt;" style="text;html=1;align=center;verticalAlign=middle;resizable=0;points=[];autosize=1;strokeColor=none;fillColor=none;" parent="1" vertex="1">
          <mxGeometry x="76.57999999999998" y="3840" width="50" height="30" as="geometry" />
        </mxCell>
        <mxCell id="c3mjCf5Rib2vs3XdOX3i-377" value="&lt;font face=&quot;Times New Roman&quot;&gt;&lt;span style=&quot;font-size: 14px;&quot;&gt;31.5&lt;/span&gt;&lt;/font&gt;" style="text;html=1;align=center;verticalAlign=middle;resizable=0;points=[];autosize=1;strokeColor=none;fillColor=none;" parent="1" vertex="1">
          <mxGeometry x="76.57999999999998" y="3880" width="50" height="30" as="geometry" />
        </mxCell>
        <mxCell id="c3mjCf5Rib2vs3XdOX3i-378" value="&lt;font face=&quot;Times New Roman&quot;&gt;&lt;span style=&quot;font-size: 14px;&quot;&gt;31.6&lt;/span&gt;&lt;/font&gt;" style="text;html=1;align=center;verticalAlign=middle;resizable=0;points=[];autosize=1;strokeColor=none;fillColor=none;" parent="1" vertex="1">
          <mxGeometry x="76.57999999999998" y="3960" width="50" height="30" as="geometry" />
        </mxCell>
        <mxCell id="c3mjCf5Rib2vs3XdOX3i-379" value="&lt;font face=&quot;Times New Roman&quot;&gt;&lt;span style=&quot;font-size: 14px;&quot;&gt;31.7&lt;/span&gt;&lt;/font&gt;" style="text;html=1;align=center;verticalAlign=middle;resizable=0;points=[];autosize=1;strokeColor=none;fillColor=none;" parent="1" vertex="1">
          <mxGeometry x="76.57999999999998" y="4020" width="50" height="30" as="geometry" />
        </mxCell>
        <mxCell id="c3mjCf5Rib2vs3XdOX3i-380" value="&lt;font style=&quot;&quot; face=&quot;Times New Roman&quot;&gt;&lt;span style=&quot;font-size: 14px;&quot;&gt;метод forceRateValue класса clsRestaraunt&lt;/span&gt;&lt;/font&gt;" style="text;html=1;align=center;verticalAlign=middle;resizable=0;points=[];autosize=1;strokeColor=none;fillColor=none;" parent="1" vertex="1">
          <mxGeometry x="475" y="3605" width="270" height="30" as="geometry" />
        </mxCell>
        <mxCell id="c3mjCf5Rib2vs3XdOX3i-381" value="&lt;font style=&quot;font-size: 14px;&quot; face=&quot;Times New Roman&quot;&gt;Начало&lt;/font&gt;" style="ellipse;whiteSpace=wrap;html=1;" parent="1" vertex="1">
          <mxGeometry x="510" y="3635" width="200" height="40" as="geometry" />
        </mxCell>
        <mxCell id="c3mjCf5Rib2vs3XdOX3i-382" value="" style="endArrow=classic;html=1;rounded=0;entryX=0.5;entryY=0;entryDx=0;entryDy=0;" parent="1" target="c3mjCf5Rib2vs3XdOX3i-387" edge="1">
          <mxGeometry width="50" height="50" relative="1" as="geometry">
            <mxPoint x="609.5799999999999" y="3675" as="sourcePoint" />
            <mxPoint x="609.5799999999999" y="3695" as="targetPoint" />
          </mxGeometry>
        </mxCell>
        <mxCell id="c3mjCf5Rib2vs3XdOX3i-387" value="&lt;font face=&quot;Times New Roman&quot;&gt;newRating &amp;gt;= 1 &amp;amp;&amp;amp; newRating &amp;lt;= 5&lt;/font&gt;" style="rhombus;whiteSpace=wrap;html=1;" parent="1" vertex="1">
          <mxGeometry x="510" y="3700" width="200" height="40" as="geometry" />
        </mxCell>
        <mxCell id="c3mjCf5Rib2vs3XdOX3i-388" value="" style="endArrow=classic;html=1;rounded=0;" parent="1" edge="1">
          <mxGeometry width="50" height="50" relative="1" as="geometry">
            <mxPoint x="610" y="3740" as="sourcePoint" />
            <mxPoint x="610" y="3760" as="targetPoint" />
          </mxGeometry>
        </mxCell>
        <mxCell id="c3mjCf5Rib2vs3XdOX3i-389" value="&lt;div&gt;&lt;font face=&quot;Times New Roman&quot;&gt;&lt;span style=&quot;font-size: 14px;&quot;&gt;Rating = newRating;&lt;/span&gt;&lt;/font&gt;&lt;br&gt;&lt;/div&gt;" style="rounded=0;whiteSpace=wrap;html=1;" parent="1" vertex="1">
          <mxGeometry x="510" y="3760" width="200" height="40" as="geometry" />
        </mxCell>
        <mxCell id="c3mjCf5Rib2vs3XdOX3i-391" value="" style="endArrow=none;html=1;rounded=0;" parent="1" edge="1">
          <mxGeometry width="50" height="50" relative="1" as="geometry">
            <mxPoint x="720" y="3720" as="sourcePoint" />
            <mxPoint x="720" y="3820" as="targetPoint" />
          </mxGeometry>
        </mxCell>
        <mxCell id="c3mjCf5Rib2vs3XdOX3i-392" value="" style="endArrow=classic;html=1;rounded=0;" parent="1" edge="1">
          <mxGeometry width="50" height="50" relative="1" as="geometry">
            <mxPoint x="720" y="3820" as="sourcePoint" />
            <mxPoint x="610" y="3820" as="targetPoint" />
          </mxGeometry>
        </mxCell>
        <mxCell id="c3mjCf5Rib2vs3XdOX3i-393" value="&lt;font style=&quot;font-size: 14px;&quot; face=&quot;Times New Roman&quot;&gt;True&lt;/font&gt;" style="text;html=1;align=center;verticalAlign=middle;resizable=0;points=[];autosize=1;strokeColor=none;fillColor=none;" parent="1" vertex="1">
          <mxGeometry x="625" y="3730" width="50" height="30" as="geometry" />
        </mxCell>
        <mxCell id="c3mjCf5Rib2vs3XdOX3i-395" value="" style="endArrow=none;html=1;rounded=0;entryX=0.925;entryY=0.99;entryDx=0;entryDy=0;entryPerimeter=0;" parent="1" edge="1">
          <mxGeometry width="50" height="50" relative="1" as="geometry">
            <mxPoint x="710" y="3720" as="sourcePoint" />
            <mxPoint x="721.25" y="3719.7" as="targetPoint" />
          </mxGeometry>
        </mxCell>
        <mxCell id="c3mjCf5Rib2vs3XdOX3i-406" value="&lt;font face=&quot;Times New Roman&quot;&gt;&lt;span style=&quot;font-size: 14px;&quot;&gt;32.1&lt;/span&gt;&lt;/font&gt;" style="text;html=1;align=center;verticalAlign=middle;resizable=0;points=[];autosize=1;strokeColor=none;fillColor=none;" parent="1" vertex="1">
          <mxGeometry x="444" y="3645" width="50" height="30" as="geometry" />
        </mxCell>
        <mxCell id="c3mjCf5Rib2vs3XdOX3i-407" value="&lt;font face=&quot;Times New Roman&quot;&gt;&lt;span style=&quot;font-size: 14px;&quot;&gt;32.2&lt;/span&gt;&lt;/font&gt;" style="text;html=1;align=center;verticalAlign=middle;resizable=0;points=[];autosize=1;strokeColor=none;fillColor=none;" parent="1" vertex="1">
          <mxGeometry x="444" y="3705" width="50" height="30" as="geometry" />
        </mxCell>
        <mxCell id="c3mjCf5Rib2vs3XdOX3i-408" value="&lt;font face=&quot;Times New Roman&quot;&gt;&lt;span style=&quot;font-size: 14px;&quot;&gt;32.3&lt;/span&gt;&lt;/font&gt;" style="text;html=1;align=center;verticalAlign=middle;resizable=0;points=[];autosize=1;strokeColor=none;fillColor=none;" parent="1" vertex="1">
          <mxGeometry x="444" y="3765" width="50" height="30" as="geometry" />
        </mxCell>
        <mxCell id="c3mjCf5Rib2vs3XdOX3i-409" value="&lt;font face=&quot;Times New Roman&quot;&gt;&lt;span style=&quot;font-size: 14px;&quot;&gt;32.4&lt;/span&gt;&lt;/font&gt;" style="text;html=1;align=center;verticalAlign=middle;resizable=0;points=[];autosize=1;strokeColor=none;fillColor=none;" parent="1" vertex="1">
          <mxGeometry x="444" y="3845" width="50" height="30" as="geometry" />
        </mxCell>
        <mxCell id="c3mjCf5Rib2vs3XdOX3i-413" value="&lt;font style=&quot;font-size: 14px;&quot; face=&quot;Times New Roman&quot;&gt;False&lt;/font&gt;" style="text;html=1;align=center;verticalAlign=middle;resizable=0;points=[];autosize=1;strokeColor=none;fillColor=none;" parent="1" vertex="1">
          <mxGeometry x="695" y="3690" width="50" height="30" as="geometry" />
        </mxCell>
        <mxCell id="c3mjCf5Rib2vs3XdOX3i-414" value="" style="endArrow=classic;html=1;rounded=0;exitX=0.5;exitY=1;exitDx=0;exitDy=0;" parent="1" source="c3mjCf5Rib2vs3XdOX3i-389" edge="1">
          <mxGeometry width="50" height="50" relative="1" as="geometry">
            <mxPoint x="560" y="3890" as="sourcePoint" />
            <mxPoint x="610" y="3840" as="targetPoint" />
          </mxGeometry>
        </mxCell>
        <mxCell id="c3mjCf5Rib2vs3XdOX3i-415" value="&lt;font face=&quot;Times New Roman&quot;&gt;&lt;span style=&quot;font-size: 14px;&quot;&gt;Конец&lt;/span&gt;&lt;/font&gt;" style="ellipse;whiteSpace=wrap;html=1;" parent="1" vertex="1">
          <mxGeometry x="510" y="3840" width="200" height="40" as="geometry" />
        </mxCell>
        <mxCell id="c3mjCf5Rib2vs3XdOX3i-416" value="&lt;font style=&quot;&quot; face=&quot;Times New Roman&quot;&gt;&lt;span style=&quot;font-size: 14px;&quot;&gt;метод countWorkHours&amp;nbsp;класса clsRestaraunt&lt;/span&gt;&lt;/font&gt;" style="text;html=1;align=center;verticalAlign=middle;resizable=0;points=[];autosize=1;strokeColor=none;fillColor=none;" parent="1" vertex="1">
          <mxGeometry x="106" y="4080" width="280" height="30" as="geometry" />
        </mxCell>
        <mxCell id="c3mjCf5Rib2vs3XdOX3i-417" value="&lt;font style=&quot;font-size: 14px;&quot; face=&quot;Times New Roman&quot;&gt;Начало&lt;/font&gt;" style="ellipse;whiteSpace=wrap;html=1;" parent="1" vertex="1">
          <mxGeometry x="146" y="4110" width="200" height="40" as="geometry" />
        </mxCell>
        <mxCell id="c3mjCf5Rib2vs3XdOX3i-418" value="" style="endArrow=classic;html=1;rounded=0;entryX=0.5;entryY=0;entryDx=0;entryDy=0;" parent="1" target="c3mjCf5Rib2vs3XdOX3i-419" edge="1">
          <mxGeometry width="50" height="50" relative="1" as="geometry">
            <mxPoint x="245.57999999999993" y="4150" as="sourcePoint" />
            <mxPoint x="245.57999999999993" y="4170" as="targetPoint" />
          </mxGeometry>
        </mxCell>
        <mxCell id="c3mjCf5Rib2vs3XdOX3i-419" value="&lt;font face=&quot;Times New Roman&quot;&gt;CloseHour &amp;gt;= OpenHour&lt;/font&gt;" style="rhombus;whiteSpace=wrap;html=1;" parent="1" vertex="1">
          <mxGeometry x="146" y="4175" width="200" height="40" as="geometry" />
        </mxCell>
        <mxCell id="c3mjCf5Rib2vs3XdOX3i-420" value="" style="endArrow=classic;html=1;rounded=0;" parent="1" edge="1">
          <mxGeometry width="50" height="50" relative="1" as="geometry">
            <mxPoint x="246" y="4215" as="sourcePoint" />
            <mxPoint x="246" y="4235" as="targetPoint" />
          </mxGeometry>
        </mxCell>
        <mxCell id="c3mjCf5Rib2vs3XdOX3i-421" value="&lt;div&gt;&lt;font face=&quot;Times New Roman&quot;&gt;&lt;span style=&quot;font-size: 14px;&quot;&gt;return CloseHour - OpenHour;&lt;/span&gt;&lt;/font&gt;&lt;br&gt;&lt;/div&gt;" style="rounded=0;whiteSpace=wrap;html=1;" parent="1" vertex="1">
          <mxGeometry x="146" y="4235" width="200" height="40" as="geometry" />
        </mxCell>
        <mxCell id="c3mjCf5Rib2vs3XdOX3i-423" value="" style="endArrow=classic;html=1;rounded=0;" parent="1" edge="1">
          <mxGeometry width="50" height="50" relative="1" as="geometry">
            <mxPoint x="570" y="4295" as="sourcePoint" />
            <mxPoint x="246" y="4295" as="targetPoint" />
          </mxGeometry>
        </mxCell>
        <mxCell id="c3mjCf5Rib2vs3XdOX3i-424" value="&lt;font style=&quot;font-size: 14px;&quot; face=&quot;Times New Roman&quot;&gt;True&lt;/font&gt;" style="text;html=1;align=center;verticalAlign=middle;resizable=0;points=[];autosize=1;strokeColor=none;fillColor=none;" parent="1" vertex="1">
          <mxGeometry x="261" y="4205" width="50" height="30" as="geometry" />
        </mxCell>
        <mxCell id="c3mjCf5Rib2vs3XdOX3i-426" value="&lt;font face=&quot;Times New Roman&quot;&gt;&lt;span style=&quot;font-size: 14px;&quot;&gt;33.1&lt;/span&gt;&lt;/font&gt;" style="text;html=1;align=center;verticalAlign=middle;resizable=0;points=[];autosize=1;strokeColor=none;fillColor=none;" parent="1" vertex="1">
          <mxGeometry x="80" y="4120" width="50" height="30" as="geometry" />
        </mxCell>
        <mxCell id="c3mjCf5Rib2vs3XdOX3i-427" value="&lt;font face=&quot;Times New Roman&quot;&gt;&lt;span style=&quot;font-size: 14px;&quot;&gt;33.2&lt;/span&gt;&lt;/font&gt;" style="text;html=1;align=center;verticalAlign=middle;resizable=0;points=[];autosize=1;strokeColor=none;fillColor=none;" parent="1" vertex="1">
          <mxGeometry x="80" y="4180" width="50" height="30" as="geometry" />
        </mxCell>
        <mxCell id="c3mjCf5Rib2vs3XdOX3i-428" value="&lt;font face=&quot;Times New Roman&quot;&gt;&lt;span style=&quot;font-size: 14px;&quot;&gt;33.3&lt;/span&gt;&lt;/font&gt;" style="text;html=1;align=center;verticalAlign=middle;resizable=0;points=[];autosize=1;strokeColor=none;fillColor=none;" parent="1" vertex="1">
          <mxGeometry x="80" y="4240" width="50" height="30" as="geometry" />
        </mxCell>
        <mxCell id="c3mjCf5Rib2vs3XdOX3i-429" value="&lt;font face=&quot;Times New Roman&quot;&gt;&lt;span style=&quot;font-size: 14px;&quot;&gt;33.4&lt;/span&gt;&lt;/font&gt;" style="text;html=1;align=center;verticalAlign=middle;resizable=0;points=[];autosize=1;strokeColor=none;fillColor=none;" parent="1" vertex="1">
          <mxGeometry x="80" y="4320" width="50" height="30" as="geometry" />
        </mxCell>
        <mxCell id="c3mjCf5Rib2vs3XdOX3i-430" value="&lt;font style=&quot;font-size: 14px;&quot; face=&quot;Times New Roman&quot;&gt;False&lt;/font&gt;" style="text;html=1;align=center;verticalAlign=middle;resizable=0;points=[];autosize=1;strokeColor=none;fillColor=none;" parent="1" vertex="1">
          <mxGeometry x="340" y="4166" width="50" height="30" as="geometry" />
        </mxCell>
        <mxCell id="c3mjCf5Rib2vs3XdOX3i-431" value="" style="endArrow=classic;html=1;rounded=0;exitX=0.5;exitY=1;exitDx=0;exitDy=0;" parent="1" source="c3mjCf5Rib2vs3XdOX3i-421" edge="1">
          <mxGeometry width="50" height="50" relative="1" as="geometry">
            <mxPoint x="196" y="4365" as="sourcePoint" />
            <mxPoint x="246" y="4315" as="targetPoint" />
          </mxGeometry>
        </mxCell>
        <mxCell id="c3mjCf5Rib2vs3XdOX3i-432" value="&lt;font face=&quot;Times New Roman&quot;&gt;&lt;span style=&quot;font-size: 14px;&quot;&gt;Конец&lt;/span&gt;&lt;/font&gt;" style="ellipse;whiteSpace=wrap;html=1;" parent="1" vertex="1">
          <mxGeometry x="146" y="4315" width="200" height="40" as="geometry" />
        </mxCell>
        <mxCell id="c3mjCf5Rib2vs3XdOX3i-433" value="&lt;div&gt;&lt;font face=&quot;Times New Roman&quot;&gt;&lt;span style=&quot;font-size: 14px;&quot;&gt;return CloseHour - OpenHour;&lt;/span&gt;&lt;/font&gt;&lt;br&gt;&lt;/div&gt;" style="rounded=0;whiteSpace=wrap;html=1;" parent="1" vertex="1">
          <mxGeometry x="360" y="4235" width="200" height="40" as="geometry" />
        </mxCell>
        <mxCell id="c3mjCf5Rib2vs3XdOX3i-435" value="" style="endArrow=none;html=1;rounded=0;exitX=1;exitY=0.5;exitDx=0;exitDy=0;" parent="1" source="c3mjCf5Rib2vs3XdOX3i-419" edge="1">
          <mxGeometry width="50" height="50" relative="1" as="geometry">
            <mxPoint x="340" y="4200" as="sourcePoint" />
            <mxPoint x="570" y="4195" as="targetPoint" />
          </mxGeometry>
        </mxCell>
        <mxCell id="c3mjCf5Rib2vs3XdOX3i-436" value="" style="endArrow=none;html=1;rounded=0;" parent="1" edge="1">
          <mxGeometry width="50" height="50" relative="1" as="geometry">
            <mxPoint x="570" y="4195" as="sourcePoint" />
            <mxPoint x="570" y="4297" as="targetPoint" />
          </mxGeometry>
        </mxCell>
        <mxCell id="c3mjCf5Rib2vs3XdOX3i-437" value="&lt;font style=&quot;font-size: 14px;&quot; face=&quot;Times New Roman&quot;&gt;Начало&lt;/font&gt;" style="ellipse;whiteSpace=wrap;html=1;" parent="1" vertex="1">
          <mxGeometry x="120" y="4400" width="200" height="40" as="geometry" />
        </mxCell>
        <mxCell id="c3mjCf5Rib2vs3XdOX3i-438" value="" style="endArrow=classic;html=1;rounded=0;" parent="1" edge="1">
          <mxGeometry width="50" height="50" relative="1" as="geometry">
            <mxPoint x="220" y="4440" as="sourcePoint" />
            <mxPoint x="220" y="4460" as="targetPoint" />
          </mxGeometry>
        </mxCell>
        <mxCell id="c3mjCf5Rib2vs3XdOX3i-439" value="&lt;div&gt;&lt;font face=&quot;Times New Roman&quot;&gt;&lt;span style=&quot;font-size: 14px;&quot;&gt;return $&quot;г. {City}, {Address} ({LocationNote})&quot;;&lt;/span&gt;&lt;/font&gt;&lt;br&gt;&lt;/div&gt;" style="rounded=0;whiteSpace=wrap;html=1;" parent="1" vertex="1">
          <mxGeometry x="120" y="4460" width="200" height="40" as="geometry" />
        </mxCell>
        <mxCell id="c3mjCf5Rib2vs3XdOX3i-440" value="" style="endArrow=classic;html=1;rounded=0;" parent="1" edge="1">
          <mxGeometry width="50" height="50" relative="1" as="geometry">
            <mxPoint x="220" y="4500" as="sourcePoint" />
            <mxPoint x="220" y="4520" as="targetPoint" />
          </mxGeometry>
        </mxCell>
        <mxCell id="c3mjCf5Rib2vs3XdOX3i-441" value="&lt;font face=&quot;Times New Roman&quot;&gt;&lt;span style=&quot;font-size: 14px;&quot;&gt;34.1&lt;/span&gt;&lt;/font&gt;" style="text;html=1;align=center;verticalAlign=middle;resizable=0;points=[];autosize=1;strokeColor=none;fillColor=none;" parent="1" vertex="1">
          <mxGeometry x="70" y="4410" width="50" height="30" as="geometry" />
        </mxCell>
        <mxCell id="c3mjCf5Rib2vs3XdOX3i-442" value="&lt;font face=&quot;Times New Roman&quot;&gt;&lt;span style=&quot;font-size: 14px;&quot;&gt;Конец&lt;/span&gt;&lt;/font&gt;" style="ellipse;whiteSpace=wrap;html=1;" parent="1" vertex="1">
          <mxGeometry x="120" y="4520" width="200" height="40" as="geometry" />
        </mxCell>
        <mxCell id="c3mjCf5Rib2vs3XdOX3i-443" value="&lt;font face=&quot;Times New Roman&quot;&gt;&lt;span style=&quot;font-size: 14px;&quot;&gt;34.2&lt;/span&gt;&lt;/font&gt;" style="text;html=1;align=center;verticalAlign=middle;resizable=0;points=[];autosize=1;strokeColor=none;fillColor=none;" parent="1" vertex="1">
          <mxGeometry x="70" y="4470" width="50" height="30" as="geometry" />
        </mxCell>
        <mxCell id="c3mjCf5Rib2vs3XdOX3i-444" value="&lt;font face=&quot;Times New Roman&quot;&gt;&lt;span style=&quot;font-size: 14px;&quot;&gt;34.3&lt;/span&gt;&lt;/font&gt;" style="text;html=1;align=center;verticalAlign=middle;resizable=0;points=[];autosize=1;strokeColor=none;fillColor=none;" parent="1" vertex="1">
          <mxGeometry x="70" y="4530" width="50" height="30" as="geometry" />
        </mxCell>
        <mxCell id="c3mjCf5Rib2vs3XdOX3i-445" value="&lt;font style=&quot;&quot; face=&quot;Times New Roman&quot;&gt;&lt;span style=&quot;font-size: 14px;&quot;&gt;метод printAddress&amp;nbsp;класса clsRestaraunt&lt;/span&gt;&lt;/font&gt;" style="text;html=1;align=center;verticalAlign=middle;resizable=0;points=[];autosize=1;strokeColor=none;fillColor=none;" parent="1" vertex="1">
          <mxGeometry x="95" y="4370" width="260" height="30" as="geometry" />
        </mxCell>
        <mxCell id="c3mjCf5Rib2vs3XdOX3i-446" value="&lt;font style=&quot;&quot; face=&quot;Times New Roman&quot;&gt;&lt;span style=&quot;font-size: 14px;&quot;&gt;метод sortByRate&amp;nbsp;класса clsRestaraunt&lt;/span&gt;&lt;/font&gt;" style="text;html=1;align=center;verticalAlign=middle;resizable=0;points=[];autosize=1;strokeColor=none;fillColor=none;" parent="1" vertex="1">
          <mxGeometry x="510" y="4370" width="250" height="30" as="geometry" />
        </mxCell>
        <mxCell id="c3mjCf5Rib2vs3XdOX3i-447" value="&lt;font style=&quot;font-size: 14px;&quot; face=&quot;Times New Roman&quot;&gt;Начало&lt;/font&gt;" style="ellipse;whiteSpace=wrap;html=1;" parent="1" vertex="1">
          <mxGeometry x="520" y="4400" width="200" height="40" as="geometry" />
        </mxCell>
        <mxCell id="c3mjCf5Rib2vs3XdOX3i-448" value="" style="endArrow=classic;html=1;rounded=0;" parent="1" edge="1">
          <mxGeometry width="50" height="50" relative="1" as="geometry">
            <mxPoint x="620" y="4440" as="sourcePoint" />
            <mxPoint x="620" y="4460" as="targetPoint" />
          </mxGeometry>
        </mxCell>
        <mxCell id="c3mjCf5Rib2vs3XdOX3i-449" value="&lt;div&gt;&lt;font face=&quot;Times New Roman&quot;&gt;&lt;span style=&quot;font-size: 14px;&quot;&gt;List&amp;lt;clsRestaraunt&amp;gt; sorted = new List&amp;lt;clsRestaraunt&amp;gt;(restaurants);&lt;/span&gt;&lt;/font&gt;&lt;br&gt;&lt;/div&gt;" style="rounded=0;whiteSpace=wrap;html=1;" parent="1" vertex="1">
          <mxGeometry x="520" y="4460" width="200" height="40" as="geometry" />
        </mxCell>
        <mxCell id="c3mjCf5Rib2vs3XdOX3i-450" value="" style="endArrow=classic;html=1;rounded=0;" parent="1" edge="1">
          <mxGeometry width="50" height="50" relative="1" as="geometry">
            <mxPoint x="619.66" y="4500" as="sourcePoint" />
            <mxPoint x="619.66" y="4520" as="targetPoint" />
          </mxGeometry>
        </mxCell>
        <mxCell id="c3mjCf5Rib2vs3XdOX3i-451" value="&lt;font face=&quot;Times New Roman&quot;&gt;&lt;span style=&quot;font-size: 14px;&quot;&gt;int i = 0; i &amp;lt; sorted.Count - 1; i++&lt;/span&gt;&lt;/font&gt;" style="shape=hexagon;perimeter=hexagonPerimeter2;whiteSpace=wrap;html=1;fixedSize=1;" parent="1" vertex="1">
          <mxGeometry x="520" y="4520" width="200" height="40" as="geometry" />
        </mxCell>
        <mxCell id="c3mjCf5Rib2vs3XdOX3i-452" value="" style="endArrow=classic;html=1;rounded=0;" parent="1" edge="1">
          <mxGeometry width="50" height="50" relative="1" as="geometry">
            <mxPoint x="619.76" y="4560" as="sourcePoint" />
            <mxPoint x="619.76" y="4580" as="targetPoint" />
          </mxGeometry>
        </mxCell>
        <mxCell id="c3mjCf5Rib2vs3XdOX3i-453" value="&lt;font face=&quot;Times New Roman&quot;&gt;&lt;span style=&quot;font-size: 14px;&quot;&gt;int j = i + 1; j &amp;lt; sorted.Count; j++&lt;/span&gt;&lt;/font&gt;" style="shape=hexagon;perimeter=hexagonPerimeter2;whiteSpace=wrap;html=1;fixedSize=1;" parent="1" vertex="1">
          <mxGeometry x="520" y="4580" width="200" height="40" as="geometry" />
        </mxCell>
        <mxCell id="c3mjCf5Rib2vs3XdOX3i-454" value="" style="endArrow=classic;html=1;rounded=0;" parent="1" edge="1">
          <mxGeometry width="50" height="50" relative="1" as="geometry">
            <mxPoint x="619.76" y="4620" as="sourcePoint" />
            <mxPoint x="619.76" y="4640" as="targetPoint" />
          </mxGeometry>
        </mxCell>
        <mxCell id="c3mjCf5Rib2vs3XdOX3i-455" value="&lt;font face=&quot;Times New Roman&quot;&gt;sorted[j].Rating &amp;gt; sorted[i].Rating&lt;/font&gt;" style="rhombus;whiteSpace=wrap;html=1;" parent="1" vertex="1">
          <mxGeometry x="520" y="4640" width="200" height="40" as="geometry" />
        </mxCell>
        <mxCell id="c3mjCf5Rib2vs3XdOX3i-456" value="" style="endArrow=classic;html=1;rounded=0;" parent="1" edge="1">
          <mxGeometry width="50" height="50" relative="1" as="geometry">
            <mxPoint x="619.76" y="4680" as="sourcePoint" />
            <mxPoint x="619.76" y="4700" as="targetPoint" />
          </mxGeometry>
        </mxCell>
        <mxCell id="c3mjCf5Rib2vs3XdOX3i-457" value="&lt;div&gt;&lt;div&gt;&lt;font face=&quot;Times New Roman&quot;&gt;&lt;span style=&quot;font-size: 14px;&quot;&gt;var temp = sorted[i];&lt;/span&gt;&lt;/font&gt;&lt;/div&gt;&lt;div&gt;&lt;font face=&quot;Times New Roman&quot;&gt;&lt;span style=&quot;font-size: 14px;&quot;&gt;sorted[i] = sorted[j];&lt;/span&gt;&lt;/font&gt;&lt;/div&gt;&lt;div&gt;&lt;font face=&quot;Times New Roman&quot;&gt;&lt;span style=&quot;font-size: 14px;&quot;&gt;sorted[j] = temp;&lt;/span&gt;&lt;/font&gt;&lt;/div&gt;&lt;/div&gt;" style="rounded=0;whiteSpace=wrap;html=1;" parent="1" vertex="1">
          <mxGeometry x="520" y="4700" width="200" height="60" as="geometry" />
        </mxCell>
        <mxCell id="c3mjCf5Rib2vs3XdOX3i-459" value="" style="endArrow=none;html=1;rounded=0;" parent="1" edge="1">
          <mxGeometry width="50" height="50" relative="1" as="geometry">
            <mxPoint x="620" y="4780" as="sourcePoint" />
            <mxPoint x="620" y="4760" as="targetPoint" />
          </mxGeometry>
        </mxCell>
        <mxCell id="c3mjCf5Rib2vs3XdOX3i-460" value="" style="endArrow=none;html=1;rounded=0;" parent="1" edge="1">
          <mxGeometry width="50" height="50" relative="1" as="geometry">
            <mxPoint x="720" y="4660" as="sourcePoint" />
            <mxPoint x="730" y="4660" as="targetPoint" />
          </mxGeometry>
        </mxCell>
        <mxCell id="c3mjCf5Rib2vs3XdOX3i-461" value="" style="endArrow=none;html=1;rounded=0;" parent="1" edge="1">
          <mxGeometry width="50" height="50" relative="1" as="geometry">
            <mxPoint x="730" y="4660" as="sourcePoint" />
            <mxPoint x="730" y="4770" as="targetPoint" />
          </mxGeometry>
        </mxCell>
        <mxCell id="c3mjCf5Rib2vs3XdOX3i-462" value="" style="endArrow=classic;html=1;rounded=0;" parent="1" edge="1">
          <mxGeometry width="50" height="50" relative="1" as="geometry">
            <mxPoint x="730" y="4770" as="sourcePoint" />
            <mxPoint x="620" y="4770" as="targetPoint" />
          </mxGeometry>
        </mxCell>
        <mxCell id="c3mjCf5Rib2vs3XdOX3i-463" value="&lt;font style=&quot;font-size: 14px;&quot; face=&quot;Times New Roman&quot;&gt;True&lt;/font&gt;" style="text;html=1;align=center;verticalAlign=middle;resizable=0;points=[];autosize=1;strokeColor=none;fillColor=none;" parent="1" vertex="1">
          <mxGeometry x="611" y="4670" width="50" height="30" as="geometry" />
        </mxCell>
        <mxCell id="c3mjCf5Rib2vs3XdOX3i-464" value="&lt;font style=&quot;font-size: 14px;&quot; face=&quot;Times New Roman&quot;&gt;False&lt;/font&gt;" style="text;html=1;align=center;verticalAlign=middle;resizable=0;points=[];autosize=1;strokeColor=none;fillColor=none;" parent="1" vertex="1">
          <mxGeometry x="690" y="4631" width="50" height="30" as="geometry" />
        </mxCell>
        <mxCell id="c3mjCf5Rib2vs3XdOX3i-465" value="" style="endArrow=none;html=1;rounded=0;" parent="1" edge="1">
          <mxGeometry width="50" height="50" relative="1" as="geometry">
            <mxPoint x="510" y="4780" as="sourcePoint" />
            <mxPoint x="620" y="4780" as="targetPoint" />
          </mxGeometry>
        </mxCell>
        <mxCell id="c3mjCf5Rib2vs3XdOX3i-466" value="" style="endArrow=none;html=1;rounded=0;" parent="1" edge="1">
          <mxGeometry width="50" height="50" relative="1" as="geometry">
            <mxPoint x="510" y="4780" as="sourcePoint" />
            <mxPoint x="510" y="4600" as="targetPoint" />
          </mxGeometry>
        </mxCell>
        <mxCell id="c3mjCf5Rib2vs3XdOX3i-467" value="" style="endArrow=classic;html=1;rounded=0;entryX=0;entryY=0.5;entryDx=0;entryDy=0;" parent="1" target="c3mjCf5Rib2vs3XdOX3i-453" edge="1">
          <mxGeometry width="50" height="50" relative="1" as="geometry">
            <mxPoint x="510" y="4600" as="sourcePoint" />
            <mxPoint x="560" y="4550" as="targetPoint" />
          </mxGeometry>
        </mxCell>
        <mxCell id="c3mjCf5Rib2vs3XdOX3i-468" value="" style="endArrow=none;html=1;rounded=0;" parent="1" edge="1">
          <mxGeometry width="50" height="50" relative="1" as="geometry">
            <mxPoint x="720" y="4600" as="sourcePoint" />
            <mxPoint x="740" y="4600" as="targetPoint" />
          </mxGeometry>
        </mxCell>
        <mxCell id="c3mjCf5Rib2vs3XdOX3i-469" value="" style="endArrow=none;html=1;rounded=0;" parent="1" edge="1">
          <mxGeometry width="50" height="50" relative="1" as="geometry">
            <mxPoint x="740" y="4600" as="sourcePoint" />
            <mxPoint x="740" y="4790" as="targetPoint" />
          </mxGeometry>
        </mxCell>
        <mxCell id="c3mjCf5Rib2vs3XdOX3i-470" value="" style="endArrow=none;html=1;rounded=0;" parent="1" edge="1">
          <mxGeometry width="50" height="50" relative="1" as="geometry">
            <mxPoint x="500" y="4790" as="sourcePoint" />
            <mxPoint x="740" y="4790" as="targetPoint" />
          </mxGeometry>
        </mxCell>
        <mxCell id="c3mjCf5Rib2vs3XdOX3i-471" value="" style="endArrow=none;html=1;rounded=0;" parent="1" edge="1">
          <mxGeometry width="50" height="50" relative="1" as="geometry">
            <mxPoint x="500" y="4790" as="sourcePoint" />
            <mxPoint x="500" y="4540" as="targetPoint" />
          </mxGeometry>
        </mxCell>
        <mxCell id="c3mjCf5Rib2vs3XdOX3i-472" value="" style="endArrow=classic;html=1;rounded=0;" parent="1" target="c3mjCf5Rib2vs3XdOX3i-451" edge="1">
          <mxGeometry width="50" height="50" relative="1" as="geometry">
            <mxPoint x="500" y="4540" as="sourcePoint" />
            <mxPoint x="550" y="4490" as="targetPoint" />
          </mxGeometry>
        </mxCell>
        <mxCell id="c3mjCf5Rib2vs3XdOX3i-473" value="" style="endArrow=none;html=1;rounded=0;" parent="1" edge="1">
          <mxGeometry width="50" height="50" relative="1" as="geometry">
            <mxPoint x="720" y="4540" as="sourcePoint" />
            <mxPoint x="750" y="4540" as="targetPoint" />
          </mxGeometry>
        </mxCell>
        <mxCell id="c3mjCf5Rib2vs3XdOX3i-474" value="" style="endArrow=none;html=1;rounded=0;" parent="1" edge="1">
          <mxGeometry width="50" height="50" relative="1" as="geometry">
            <mxPoint x="750" y="4540" as="sourcePoint" />
            <mxPoint x="750" y="4800.9140625" as="targetPoint" />
          </mxGeometry>
        </mxCell>
        <mxCell id="c3mjCf5Rib2vs3XdOX3i-475" value="" style="endArrow=none;html=1;rounded=0;" parent="1" edge="1">
          <mxGeometry width="50" height="50" relative="1" as="geometry">
            <mxPoint x="620" y="4800" as="sourcePoint" />
            <mxPoint x="750" y="4800" as="targetPoint" />
          </mxGeometry>
        </mxCell>
        <mxCell id="c3mjCf5Rib2vs3XdOX3i-476" value="" style="endArrow=classic;html=1;rounded=0;" parent="1" edge="1">
          <mxGeometry width="50" height="50" relative="1" as="geometry">
            <mxPoint x="620" y="4800" as="sourcePoint" />
            <mxPoint x="620" y="4820" as="targetPoint" />
          </mxGeometry>
        </mxCell>
        <mxCell id="c3mjCf5Rib2vs3XdOX3i-477" value="&lt;font face=&quot;Times New Roman&quot;&gt;&lt;span style=&quot;font-size: 14px;&quot;&gt;&amp;nbsp;return sorted;&lt;/span&gt;&lt;/font&gt;" style="rounded=0;whiteSpace=wrap;html=1;" parent="1" vertex="1">
          <mxGeometry x="520" y="4820" width="200" height="20" as="geometry" />
        </mxCell>
        <mxCell id="c3mjCf5Rib2vs3XdOX3i-478" value="" style="endArrow=classic;html=1;rounded=0;" parent="1" edge="1">
          <mxGeometry width="50" height="50" relative="1" as="geometry">
            <mxPoint x="619.8" y="4840" as="sourcePoint" />
            <mxPoint x="619.8" y="4860" as="targetPoint" />
          </mxGeometry>
        </mxCell>
        <mxCell id="c3mjCf5Rib2vs3XdOX3i-479" value="&lt;font face=&quot;Times New Roman&quot;&gt;&lt;span style=&quot;font-size: 14px;&quot;&gt;Конец&lt;/span&gt;&lt;/font&gt;" style="ellipse;whiteSpace=wrap;html=1;" parent="1" vertex="1">
          <mxGeometry x="520" y="4860" width="200" height="40" as="geometry" />
        </mxCell>
        <mxCell id="c3mjCf5Rib2vs3XdOX3i-480" value="&lt;font face=&quot;Times New Roman&quot;&gt;&lt;span style=&quot;font-size: 14px;&quot;&gt;35.1&lt;/span&gt;&lt;/font&gt;" style="text;html=1;align=center;verticalAlign=middle;resizable=0;points=[];autosize=1;strokeColor=none;fillColor=none;" parent="1" vertex="1">
          <mxGeometry x="444" y="4410" width="50" height="30" as="geometry" />
        </mxCell>
        <mxCell id="c3mjCf5Rib2vs3XdOX3i-481" value="&lt;font face=&quot;Times New Roman&quot;&gt;&lt;span style=&quot;font-size: 14px;&quot;&gt;35.2&lt;/span&gt;&lt;/font&gt;" style="text;html=1;align=center;verticalAlign=middle;resizable=0;points=[];autosize=1;strokeColor=none;fillColor=none;" parent="1" vertex="1">
          <mxGeometry x="444" y="4470" width="50" height="30" as="geometry" />
        </mxCell>
        <mxCell id="c3mjCf5Rib2vs3XdOX3i-482" value="&lt;font face=&quot;Times New Roman&quot;&gt;&lt;span style=&quot;font-size: 14px;&quot;&gt;35.3&lt;/span&gt;&lt;/font&gt;" style="text;html=1;align=center;verticalAlign=middle;resizable=0;points=[];autosize=1;strokeColor=none;fillColor=none;" parent="1" vertex="1">
          <mxGeometry x="444" y="4530" width="50" height="30" as="geometry" />
        </mxCell>
        <mxCell id="c3mjCf5Rib2vs3XdOX3i-483" value="&lt;font face=&quot;Times New Roman&quot;&gt;&lt;span style=&quot;font-size: 14px;&quot;&gt;35.4&lt;/span&gt;&lt;/font&gt;" style="text;html=1;align=center;verticalAlign=middle;resizable=0;points=[];autosize=1;strokeColor=none;fillColor=none;" parent="1" vertex="1">
          <mxGeometry x="444" y="4590" width="50" height="30" as="geometry" />
        </mxCell>
        <mxCell id="c3mjCf5Rib2vs3XdOX3i-484" value="&lt;font face=&quot;Times New Roman&quot;&gt;&lt;span style=&quot;font-size: 14px;&quot;&gt;35.5&lt;/span&gt;&lt;/font&gt;" style="text;html=1;align=center;verticalAlign=middle;resizable=0;points=[];autosize=1;strokeColor=none;fillColor=none;" parent="1" vertex="1">
          <mxGeometry x="445" y="4650" width="50" height="30" as="geometry" />
        </mxCell>
        <mxCell id="c3mjCf5Rib2vs3XdOX3i-485" value="&lt;font face=&quot;Times New Roman&quot;&gt;&lt;span style=&quot;font-size: 14px;&quot;&gt;35.6&lt;/span&gt;&lt;/font&gt;" style="text;html=1;align=center;verticalAlign=middle;resizable=0;points=[];autosize=1;strokeColor=none;fillColor=none;" parent="1" vertex="1">
          <mxGeometry x="444" y="4730" width="50" height="30" as="geometry" />
        </mxCell>
        <mxCell id="c3mjCf5Rib2vs3XdOX3i-486" value="&lt;font face=&quot;Times New Roman&quot;&gt;&lt;span style=&quot;font-size: 14px;&quot;&gt;35.7&lt;/span&gt;&lt;/font&gt;" style="text;html=1;align=center;verticalAlign=middle;resizable=0;points=[];autosize=1;strokeColor=none;fillColor=none;" parent="1" vertex="1">
          <mxGeometry x="444" y="4810" width="50" height="30" as="geometry" />
        </mxCell>
        <mxCell id="c3mjCf5Rib2vs3XdOX3i-487" value="&lt;font face=&quot;Times New Roman&quot;&gt;&lt;span style=&quot;font-size: 14px;&quot;&gt;35.8&lt;/span&gt;&lt;/font&gt;" style="text;html=1;align=center;verticalAlign=middle;resizable=0;points=[];autosize=1;strokeColor=none;fillColor=none;" parent="1" vertex="1">
          <mxGeometry x="444" y="4870" width="50" height="30" as="geometry" />
        </mxCell>
        <mxCell id="c3mjCf5Rib2vs3XdOX3i-488" value="&lt;font style=&quot;&quot; face=&quot;Times New Roman&quot;&gt;&lt;span style=&quot;font-size: 14px;&quot;&gt;метод printTimeString&amp;nbsp;класса clsRestaraunt&lt;/span&gt;&lt;/font&gt;" style="text;html=1;align=center;verticalAlign=middle;resizable=0;points=[];autosize=1;strokeColor=none;fillColor=none;" parent="1" vertex="1">
          <mxGeometry x="80" y="4650" width="270" height="30" as="geometry" />
        </mxCell>
        <mxCell id="c3mjCf5Rib2vs3XdOX3i-489" value="&lt;font style=&quot;font-size: 14px;&quot; face=&quot;Times New Roman&quot;&gt;Начало&lt;/font&gt;" style="ellipse;whiteSpace=wrap;html=1;" parent="1" vertex="1">
          <mxGeometry x="100" y="4680" width="200" height="40" as="geometry" />
        </mxCell>
        <mxCell id="c3mjCf5Rib2vs3XdOX3i-490" value="" style="endArrow=classic;html=1;rounded=0;" parent="1" edge="1">
          <mxGeometry width="50" height="50" relative="1" as="geometry">
            <mxPoint x="200" y="4720" as="sourcePoint" />
            <mxPoint x="200" y="4740" as="targetPoint" />
          </mxGeometry>
        </mxCell>
        <mxCell id="c3mjCf5Rib2vs3XdOX3i-491" value="&lt;div&gt;&lt;font face=&quot;Times New Roman&quot;&gt;&lt;span style=&quot;font-size: 14px;&quot;&gt;return $&quot;{OpenHour:00}:00 – {CloseHour:00}:00&quot;;&lt;/span&gt;&lt;/font&gt;&lt;br&gt;&lt;/div&gt;" style="rounded=0;whiteSpace=wrap;html=1;" parent="1" vertex="1">
          <mxGeometry x="100" y="4740" width="200" height="40" as="geometry" />
        </mxCell>
        <mxCell id="c3mjCf5Rib2vs3XdOX3i-492" value="&lt;font face=&quot;Times New Roman&quot;&gt;&lt;span style=&quot;font-size: 14px;&quot;&gt;36.1&lt;/span&gt;&lt;/font&gt;" style="text;html=1;align=center;verticalAlign=middle;resizable=0;points=[];autosize=1;strokeColor=none;fillColor=none;" parent="1" vertex="1">
          <mxGeometry x="24" y="4690" width="50" height="30" as="geometry" />
        </mxCell>
        <mxCell id="c3mjCf5Rib2vs3XdOX3i-493" value="&lt;font face=&quot;Times New Roman&quot;&gt;&lt;span style=&quot;font-size: 14px;&quot;&gt;36.2&lt;/span&gt;&lt;/font&gt;" style="text;html=1;align=center;verticalAlign=middle;resizable=0;points=[];autosize=1;strokeColor=none;fillColor=none;" parent="1" vertex="1">
          <mxGeometry x="24" y="4750" width="50" height="30" as="geometry" />
        </mxCell>
        <mxCell id="c3mjCf5Rib2vs3XdOX3i-494" value="" style="endArrow=classic;html=1;rounded=0;" parent="1" edge="1">
          <mxGeometry width="50" height="50" relative="1" as="geometry">
            <mxPoint x="199.43" y="4780" as="sourcePoint" />
            <mxPoint x="199.43" y="4800" as="targetPoint" />
          </mxGeometry>
        </mxCell>
        <mxCell id="c3mjCf5Rib2vs3XdOX3i-495" value="&lt;font face=&quot;Times New Roman&quot;&gt;&lt;span style=&quot;font-size: 14px;&quot;&gt;Конец&lt;/span&gt;&lt;/font&gt;" style="ellipse;whiteSpace=wrap;html=1;" parent="1" vertex="1">
          <mxGeometry x="100" y="4800" width="200" height="40" as="geometry" />
        </mxCell>
        <mxCell id="c3mjCf5Rib2vs3XdOX3i-496" value="&lt;font face=&quot;Times New Roman&quot;&gt;&lt;span style=&quot;font-size: 14px;&quot;&gt;36.3&lt;/span&gt;&lt;/font&gt;" style="text;html=1;align=center;verticalAlign=middle;resizable=0;points=[];autosize=1;strokeColor=none;fillColor=none;" parent="1" vertex="1">
          <mxGeometry x="24" y="4810" width="50" height="30" as="geometry" />
        </mxCell>
      </root>
    </mxGraphModel>
  </diagram>
</mxfile>
